<?xml version="1.0" encoding="UTF-8" standalone="no"?>
<!DOCTYPE svg PUBLIC "-//W3C//DTD SVG 1.1//EN"
 "http://www.w3.org/Graphics/SVG/1.1/DTD/svg11.dtd">
<!-- Generated by graphviz version 2.43.0 (0)
 -->
<!-- Title: G Pages: 1 -->
<svg width="1991pt" height="201pt"
 viewBox="0.00 0.00 1991.00 200.50" xmlns="http://www.w3.org/2000/svg" xmlns:xlink="http://www.w3.org/1999/xlink">
<g id="graph0" class="graph" transform="scale(1 1) rotate(0) translate(4 196.5)">
<title>G</title>
<polygon fill="white" stroke="transparent" points="-4,4 -4,-196.5 1987,-196.5 1987,4 -4,4"/>
<!-- node_0 -->
<g id="node1" class="node">
<title>node_0</title>
<path fill="#e9f2ff" stroke="#6b8fd6" stroke-width="2" d="M12,-102C12,-102 106,-102 106,-102 112,-102 118,-108 118,-114 118,-114 118,-150 118,-150 118,-156 112,-162 106,-162 106,-162 12,-162 12,-162 6,-162 0,-156 0,-150 0,-150 0,-114 0,-114 0,-108 6,-102 12,-102"/>
<text text-anchor="middle" x="59" y="-149.2" font-family="Fira Mono" font-size="11.00">ind: 0</text>
<polyline fill="none" stroke="#6b8fd6" stroke-width="2" points="0,-142 118,-142 "/>
<text text-anchor="middle" x="59" y="-129.2" font-family="Fira Mono" font-size="11.00">val: 10101</text>
<polyline fill="none" stroke="#6b8fd6" stroke-width="2" points="0,-122 118,-122 "/>
<text text-anchor="middle" x="31" y="-109.2" font-family="Fira Mono" font-size="11.00">prev: 11</text>
<polyline fill="none" stroke="#6b8fd6" stroke-width="2" points="62,-102 62,-122 "/>
<text text-anchor="middle" x="90" y="-109.2" font-family="Fira Mono" font-size="11.00">next: 2</text>
</g>
<!-- node_1 -->
<g id="node2" class="node">
<title>node_1</title>
<path fill="#ffecec" stroke="#d66d66" d="M184,-102C184,-102 275,-102 275,-102 281,-102 287,-108 287,-114 287,-114 287,-150 287,-150 287,-156 281,-162 275,-162 275,-162 184,-162 184,-162 178,-162 172,-156 172,-150 172,-150 172,-114 172,-114 172,-108 178,-102 184,-102"/>
<text text-anchor="middle" x="229.5" y="-149.2" font-family="Fira Mono" font-size="11.00">ind: 1</text>
<polyline fill="none" stroke="#d66d66" points="172,-142 287,-142 "/>
<text text-anchor="middle" x="229.5" y="-129.2" font-family="Fira Mono" font-size="11.00">val: &#45;100</text>
<polyline fill="none" stroke="#d66d66" points="172,-122 287,-122 "/>
<text text-anchor="middle" x="201.5" y="-109.2" font-family="Fira Mono" font-size="11.00">prev: &#45;1</text>
<polyline fill="none" stroke="#d66d66" points="231,-102 231,-122 "/>
<text text-anchor="middle" x="259" y="-109.2" font-family="Fira Mono" font-size="11.00">next: 6</text>
</g>
<!-- node_0&#45;&gt;node_1 -->
<!-- node_2 -->
<g id="node3" class="node">
<title>node_2</title>
<path fill="#e9fbf5" stroke="#5aa99b" d="M353,-102C353,-102 440,-102 440,-102 446,-102 452,-108 452,-114 452,-114 452,-150 452,-150 452,-156 446,-162 440,-162 440,-162 353,-162 353,-162 347,-162 341,-156 341,-150 341,-150 341,-114 341,-114 341,-108 347,-102 353,-102"/>
<text text-anchor="middle" x="396.5" y="-149.2" font-family="Fira Mono" font-size="11.00">ind: 2 (HEAD)</text>
<polyline fill="none" stroke="#5aa99b" points="341,-142 452,-142 "/>
<text text-anchor="middle" x="396.5" y="-129.2" font-family="Fira Mono" font-size="11.00">val: 40</text>
<polyline fill="none" stroke="#5aa99b" points="341,-122 452,-122 "/>
<text text-anchor="middle" x="368.5" y="-109.2" font-family="Fira Mono" font-size="11.00">prev: 0</text>
<polyline fill="none" stroke="#5aa99b" points="396,-102 396,-122 "/>
<text text-anchor="middle" x="424" y="-109.2" font-family="Fira Mono" font-size="11.00">next: 4</text>
</g>
<!-- node_0&#45;&gt;node_2 -->
<g id="edge13" class="edge">
<title>node_0&#45;&gt;node_2</title>
<path fill="none" stroke="#999999" d="M111,-91.86C111,-91.86 111,-79.67 111,-79.67 111,-79.67 397,-79.67 397,-79.67 397,-79.67 397,-91.86 397,-91.86"/>
<polygon fill="#999999" stroke="#999999" points="107.5,-91.86 111,-101.86 114.5,-91.86 107.5,-91.86"/>
<polygon fill="#999999" stroke="#999999" points="393.5,-91.86 397,-101.86 400.5,-91.86 393.5,-91.86"/>
</g>
<!-- node_1&#45;&gt;node_2 -->
<!-- node_6 -->
<g id="node7" class="node">
<title>node_6</title>
<path fill="#ffecec" stroke="#d66d66" d="M1033,-102C1033,-102 1127,-102 1127,-102 1133,-102 1139,-108 1139,-114 1139,-114 1139,-150 1139,-150 1139,-156 1133,-162 1127,-162 1127,-162 1033,-162 1033,-162 1027,-162 1021,-156 1021,-150 1021,-150 1021,-114 1021,-114 1021,-108 1027,-102 1033,-102"/>
<text text-anchor="middle" x="1080" y="-149.2" font-family="Fira Mono" font-size="11.00">ind: 6</text>
<polyline fill="none" stroke="#d66d66" points="1021,-142 1139,-142 "/>
<text text-anchor="middle" x="1080" y="-129.2" font-family="Fira Mono" font-size="11.00">val: &#45;100</text>
<polyline fill="none" stroke="#d66d66" points="1021,-122 1139,-122 "/>
<text text-anchor="middle" x="1052" y="-109.2" font-family="Fira Mono" font-size="11.00">prev: 10</text>
<polyline fill="none" stroke="#d66d66" points="1083,-102 1083,-122 "/>
<text text-anchor="middle" x="1111" y="-109.2" font-family="Fira Mono" font-size="11.00">next: 4</text>
</g>
<!-- node_1&#45;&gt;node_6 -->
<g id="edge12" class="edge">
<title>node_1&#45;&gt;node_6</title>
<path fill="none" stroke="#d88d88" stroke-dasharray="5,2" d="M230,-162.12C230,-174.72 230,-186.5 230,-186.5 230,-186.5 1051,-186.5 1051,-186.5 1051,-186.5 1051,-172.12 1051,-172.12"/>
<polygon fill="#d88d88" stroke="#d88d88" points="1054.5,-172.12 1051,-162.12 1047.5,-172.12 1054.5,-172.12"/>
</g>
<!-- node_3 -->
<g id="node4" class="node">
<title>node_3</title>
<path fill="#fff3e0" stroke="#000000" d="M518,-102C518,-102 618,-102 618,-102 624,-102 630,-108 630,-114 630,-114 630,-150 630,-150 630,-156 624,-162 618,-162 618,-162 518,-162 518,-162 512,-162 506,-156 506,-150 506,-150 506,-114 506,-114 506,-108 512,-102 518,-102"/>
<text text-anchor="middle" x="568" y="-149.2" font-family="Fira Mono" font-size="11.00">ind: 3</text>
<polyline fill="none" stroke="#000000" points="506,-142 630,-142 "/>
<text text-anchor="middle" x="568" y="-129.2" font-family="Fira Mono" font-size="11.00">val: 2</text>
<polyline fill="none" stroke="#000000" points="506,-122 630,-122 "/>
<text text-anchor="middle" x="540" y="-109.2" font-family="Fira Mono" font-size="11.00">prev: 150</text>
<polyline fill="none" stroke="#000000" points="574,-102 574,-122 "/>
<text text-anchor="middle" x="602" y="-109.2" font-family="Fira Mono" font-size="11.00">next: 4</text>
</g>
<!-- node_2&#45;&gt;node_3 -->
<!-- node_4 -->
<g id="node5" class="node">
<title>node_4</title>
<path fill="#fff3e0" stroke="#000000" d="M696,-102C696,-102 783,-102 783,-102 789,-102 795,-108 795,-114 795,-114 795,-150 795,-150 795,-156 789,-162 783,-162 783,-162 696,-162 696,-162 690,-162 684,-156 684,-150 684,-150 684,-114 684,-114 684,-108 690,-102 696,-102"/>
<text text-anchor="middle" x="739.5" y="-149.2" font-family="Fira Mono" font-size="11.00">ind: 4</text>
<polyline fill="none" stroke="#000000" points="684,-142 795,-142 "/>
<text text-anchor="middle" x="739.5" y="-129.2" font-family="Fira Mono" font-size="11.00">val: 20</text>
<polyline fill="none" stroke="#000000" points="684,-122 795,-122 "/>
<text text-anchor="middle" x="711.5" y="-109.2" font-family="Fira Mono" font-size="11.00">prev: 3</text>
<polyline fill="none" stroke="#000000" points="739,-102 739,-122 "/>
<text text-anchor="middle" x="767" y="-109.2" font-family="Fira Mono" font-size="11.00">next: 7</text>
</g>
<!-- node_2&#45;&gt;node_4 -->
<g id="edge14" class="edge">
<title>node_2&#45;&gt;node_4</title>
<path fill="none" stroke="#ff0000" stroke-width="2.2" d="M397,-162.43C397,-169.25 397,-174.5 397,-174.5 397,-174.5 712,-174.5 712,-174.5 712,-174.5 712,-172.43 712,-172.43"/>
<polygon fill="#ff0000" stroke="#ff0000" stroke-width="2.2" points="715.5,-172.43 712,-162.43 708.5,-172.43 715.5,-172.43"/>
</g>
<!-- node_3&#45;&gt;node_4 -->
<!-- node_3&#45;&gt;node_4 -->
<g id="edge15" class="edge">
<title>node_3&#45;&gt;node_4</title>
<path fill="none" stroke="#999999" d="M640.4,-142.17C640.4,-142.17 673.96,-142.17 673.96,-142.17"/>
<polygon fill="#999999" stroke="#999999" points="673.96,-145.67 683.96,-142.17 673.96,-138.67 673.96,-145.67"/>
<polygon fill="#999999" stroke="#999999" points="640.4,-138.67 630.4,-142.17 640.4,-145.67 640.4,-138.67"/>
</g>
<!-- node_bad_p_3 -->
<g id="node13" class="node">
<title>node_bad_p_3</title>
<path fill="#d88d88" stroke="#d66d66" d="M584.5,-36C584.5,-36 551.5,-36 551.5,-36 545.5,-36 539.5,-30 539.5,-24 539.5,-24 539.5,-12 539.5,-12 539.5,-6 545.5,0 551.5,0 551.5,0 584.5,0 584.5,0 590.5,0 596.5,-6 596.5,-12 596.5,-12 596.5,-24 596.5,-24 596.5,-30 590.5,-36 584.5,-36"/>
<text text-anchor="middle" x="568" y="-21.2" font-family="Fira Mono" font-size="11.00">idx 150</text>
<text text-anchor="middle" x="568" y="-9.2" font-family="Fira Mono" font-size="11.00">(N/A)</text>
</g>
<!-- node_3&#45;&gt;node_bad_p_3 -->
<!-- node_5 -->
<g id="node6" class="node">
<title>node_5</title>
<path fill="#ffecec" stroke="#d66d66" d="M861,-102C861,-102 955,-102 955,-102 961,-102 967,-108 967,-114 967,-114 967,-150 967,-150 967,-156 961,-162 955,-162 955,-162 861,-162 861,-162 855,-162 849,-156 849,-150 849,-150 849,-114 849,-114 849,-108 855,-102 861,-102"/>
<text text-anchor="middle" x="908" y="-149.2" font-family="Fira Mono" font-size="11.00">ind: 5</text>
<polyline fill="none" stroke="#d66d66" points="849,-142 967,-142 "/>
<text text-anchor="middle" x="908" y="-129.2" font-family="Fira Mono" font-size="11.00">val: &#45;100</text>
<polyline fill="none" stroke="#d66d66" points="849,-122 967,-122 "/>
<text text-anchor="middle" x="878.5" y="-109.2" font-family="Fira Mono" font-size="11.00">prev: &#45;1</text>
<polyline fill="none" stroke="#d66d66" points="908,-102 908,-122 "/>
<text text-anchor="middle" x="937.5" y="-109.2" font-family="Fira Mono" font-size="11.00">next: &#45;1</text>
</g>
<!-- node_4&#45;&gt;node_5 -->
<!-- node_7 -->
<g id="node8" class="node">
<title>node_7</title>
<path fill="#fff3e0" stroke="#000000" d="M1205,-102C1205,-102 1292,-102 1292,-102 1298,-102 1304,-108 1304,-114 1304,-114 1304,-150 1304,-150 1304,-156 1298,-162 1292,-162 1292,-162 1205,-162 1205,-162 1199,-162 1193,-156 1193,-150 1193,-150 1193,-114 1193,-114 1193,-108 1199,-102 1205,-102"/>
<text text-anchor="middle" x="1248.5" y="-149.2" font-family="Fira Mono" font-size="11.00">ind: 7</text>
<polyline fill="none" stroke="#000000" points="1193,-142 1304,-142 "/>
<text text-anchor="middle" x="1248.5" y="-129.2" font-family="Fira Mono" font-size="11.00">val: 5</text>
<polyline fill="none" stroke="#000000" points="1193,-122 1304,-122 "/>
<text text-anchor="middle" x="1220.5" y="-109.2" font-family="Fira Mono" font-size="11.00">prev: 4</text>
<polyline fill="none" stroke="#000000" points="1248,-102 1248,-122 "/>
<text text-anchor="middle" x="1276" y="-109.2" font-family="Fira Mono" font-size="11.00">next: 8</text>
</g>
<!-- node_4&#45;&gt;node_7 -->
<g id="edge16" class="edge">
<title>node_4&#45;&gt;node_7</title>
<path fill="none" stroke="#999999" d="M740,-172.25C740,-172.25 740,-192.5 740,-192.5 740,-192.5 1249,-192.5 1249,-192.5 1249,-192.5 1249,-172.25 1249,-172.25"/>
<polygon fill="#999999" stroke="#999999" points="743.5,-172.25 740,-162.25 736.5,-172.25 743.5,-172.25"/>
<polygon fill="#999999" stroke="#999999" points="1252.5,-172.25 1249,-162.25 1245.5,-172.25 1252.5,-172.25"/>
</g>
<!-- node_5&#45;&gt;node_6 -->
<!-- node_6&#45;&gt;node_4 -->
<g id="edge17" class="edge">
<title>node_6&#45;&gt;node_4</title>
<path fill="none" stroke="#ff0000" stroke-width="2.2" d="M1080,-162.16C1080,-172.03 1080,-180.5 1080,-180.5 1080,-180.5 768,-180.5 768,-180.5 768,-180.5 768,-172.16 768,-172.16"/>
<polygon fill="#ff0000" stroke="#ff0000" stroke-width="2.2" points="771.5,-172.16 768,-162.16 764.5,-172.16 771.5,-172.16"/>
</g>
<!-- node_6&#45;&gt;node_7 -->
<!-- node_8 -->
<g id="node9" class="node">
<title>node_8</title>
<path fill="#fff3e0" stroke="#000000" d="M1370,-102C1370,-102 1457,-102 1457,-102 1463,-102 1469,-108 1469,-114 1469,-114 1469,-150 1469,-150 1469,-156 1463,-162 1457,-162 1457,-162 1370,-162 1370,-162 1364,-162 1358,-156 1358,-150 1358,-150 1358,-114 1358,-114 1358,-108 1364,-102 1370,-102"/>
<text text-anchor="middle" x="1413.5" y="-149.2" font-family="Fira Mono" font-size="11.00">ind: 8</text>
<polyline fill="none" stroke="#000000" points="1358,-142 1469,-142 "/>
<text text-anchor="middle" x="1413.5" y="-129.2" font-family="Fira Mono" font-size="11.00">val: 4</text>
<polyline fill="none" stroke="#000000" points="1358,-122 1469,-122 "/>
<text text-anchor="middle" x="1385.5" y="-109.2" font-family="Fira Mono" font-size="11.00">prev: 7</text>
<polyline fill="none" stroke="#000000" points="1413,-102 1413,-122 "/>
<text text-anchor="middle" x="1441" y="-109.2" font-family="Fira Mono" font-size="11.00">next: 9</text>
</g>
<!-- node_7&#45;&gt;node_8 -->
<!-- node_7&#45;&gt;node_8 -->
<g id="edge18" class="edge">
<title>node_7&#45;&gt;node_8</title>
<path fill="none" stroke="#999999" d="M1314.36,-142.17C1314.36,-142.17 1347.98,-142.17 1347.98,-142.17"/>
<polygon fill="#999999" stroke="#999999" points="1347.98,-145.67 1357.98,-142.17 1347.98,-138.67 1347.98,-145.67"/>
<polygon fill="#999999" stroke="#999999" points="1314.36,-138.67 1304.36,-142.17 1314.36,-145.67 1314.36,-138.67"/>
</g>
<!-- node_9 -->
<g id="node10" class="node">
<title>node_9</title>
<path fill="#fff3e0" stroke="#000000" d="M1535,-102C1535,-102 1628,-102 1628,-102 1634,-102 1640,-108 1640,-114 1640,-114 1640,-150 1640,-150 1640,-156 1634,-162 1628,-162 1628,-162 1535,-162 1535,-162 1529,-162 1523,-156 1523,-150 1523,-150 1523,-114 1523,-114 1523,-108 1529,-102 1535,-102"/>
<text text-anchor="middle" x="1581.5" y="-149.2" font-family="Fira Mono" font-size="11.00">ind: 9</text>
<polyline fill="none" stroke="#000000" points="1523,-142 1640,-142 "/>
<text text-anchor="middle" x="1581.5" y="-129.2" font-family="Fira Mono" font-size="11.00">val: 5</text>
<polyline fill="none" stroke="#000000" points="1523,-122 1640,-122 "/>
<text text-anchor="middle" x="1550.5" y="-109.2" font-family="Fira Mono" font-size="11.00">prev: 8</text>
<polyline fill="none" stroke="#000000" points="1578,-102 1578,-122 "/>
<text text-anchor="middle" x="1609" y="-109.2" font-family="Fira Mono" font-size="11.00">next: 10</text>
</g>
<!-- node_8&#45;&gt;node_9 -->
<!-- node_8&#45;&gt;node_9 -->
<g id="edge19" class="edge">
<title>node_8&#45;&gt;node_9</title>
<path fill="none" stroke="#999999" d="M1479.44,-142.17C1479.44,-142.17 1512.93,-142.17 1512.93,-142.17"/>
<polygon fill="#999999" stroke="#999999" points="1512.93,-145.67 1522.93,-142.17 1512.93,-138.67 1512.93,-145.67"/>
<polygon fill="#999999" stroke="#999999" points="1479.44,-138.67 1469.44,-142.17 1479.44,-145.67 1479.44,-138.67"/>
</g>
<!-- node_10 -->
<g id="node11" class="node">
<title>node_10</title>
<path fill="#fff3e0" stroke="#000000" d="M1706,-102C1706,-102 1799,-102 1799,-102 1805,-102 1811,-108 1811,-114 1811,-114 1811,-150 1811,-150 1811,-156 1805,-162 1799,-162 1799,-162 1706,-162 1706,-162 1700,-162 1694,-156 1694,-150 1694,-150 1694,-114 1694,-114 1694,-108 1700,-102 1706,-102"/>
<text text-anchor="middle" x="1752.5" y="-149.2" font-family="Fira Mono" font-size="11.00">ind: 10</text>
<polyline fill="none" stroke="#000000" points="1694,-142 1811,-142 "/>
<text text-anchor="middle" x="1752.5" y="-129.2" font-family="Fira Mono" font-size="11.00">val: 4</text>
<polyline fill="none" stroke="#000000" points="1694,-122 1811,-122 "/>
<text text-anchor="middle" x="1721.5" y="-109.2" font-family="Fira Mono" font-size="11.00">prev: 9</text>
<polyline fill="none" stroke="#000000" points="1749,-102 1749,-122 "/>
<text text-anchor="middle" x="1780" y="-109.2" font-family="Fira Mono" font-size="11.00">next: 11</text>
</g>
<!-- node_9&#45;&gt;node_10 -->
<!-- node_9&#45;&gt;node_10 -->
<g id="edge20" class="edge">
<title>node_9&#45;&gt;node_10</title>
<path fill="none" stroke="#999999" d="M1650.35,-142.17C1650.35,-142.17 1683.83,-142.17 1683.83,-142.17"/>
<polygon fill="#999999" stroke="#999999" points="1683.83,-145.67 1693.83,-142.17 1683.83,-138.67 1683.83,-145.67"/>
<polygon fill="#999999" stroke="#999999" points="1650.35,-138.67 1640.35,-142.17 1650.35,-145.67 1650.35,-138.67"/>
</g>
<!-- node_10&#45;&gt;node_6 -->
<g id="edge25" class="edge">
<title>node_10&#45;&gt;node_6</title>
<path fill="none" stroke="#ff0000" stroke-width="2.2" d="M1753,-162.14C1753,-165.92 1753,-168.5 1753,-168.5 1753,-168.5 1110,-168.5 1110,-168.5 1110,-168.5 1110,-167.86 1110,-167.86"/>
<polygon fill="#ff0000" stroke="#ff0000" stroke-width="2.2" points="1113.5,-172.14 1110,-162.14 1106.5,-172.14 1113.5,-172.14"/>
</g>
<!-- node_11 -->
<g id="node12" class="node">
<title>node_11</title>
<path fill="#f1eafd" stroke="#8e6bd6" d="M1877,-102C1877,-102 1971,-102 1971,-102 1977,-102 1983,-108 1983,-114 1983,-114 1983,-150 1983,-150 1983,-156 1977,-162 1971,-162 1971,-162 1877,-162 1877,-162 1871,-162 1865,-156 1865,-150 1865,-150 1865,-114 1865,-114 1865,-108 1871,-102 1877,-102"/>
<text text-anchor="middle" x="1924" y="-149.2" font-family="Fira Mono" font-size="11.00">ind: 11 (TAIL)</text>
<polyline fill="none" stroke="#8e6bd6" points="1865,-142 1983,-142 "/>
<text text-anchor="middle" x="1924" y="-129.2" font-family="Fira Mono" font-size="11.00">val: 3</text>
<polyline fill="none" stroke="#8e6bd6" points="1865,-122 1983,-122 "/>
<text text-anchor="middle" x="1896" y="-109.2" font-family="Fira Mono" font-size="11.00">prev: 10</text>
<polyline fill="none" stroke="#8e6bd6" points="1927,-102 1927,-122 "/>
<text text-anchor="middle" x="1955" y="-109.2" font-family="Fira Mono" font-size="11.00">next: 0</text>
</g>
<!-- node_10&#45;&gt;node_11 -->
<!-- node_10&#45;&gt;node_11 -->
<g id="edge21" class="edge">
<title>node_10&#45;&gt;node_11</title>
<path fill="none" stroke="#999999" d="M1821.04,-142.17C1821.04,-142.17 1854.85,-142.17 1854.85,-142.17"/>
<polygon fill="#999999" stroke="#999999" points="1854.85,-145.67 1864.85,-142.17 1854.85,-138.67 1854.85,-145.67"/>
<polygon fill="#999999" stroke="#999999" points="1821.04,-138.67 1811.04,-142.17 1821.04,-145.67 1821.04,-138.67"/>
</g>
<!-- node_11&#45;&gt;node_0 -->
<g id="edge22" class="edge">
<title>node_11&#45;&gt;node_0</title>
<path fill="none" stroke="#999999" d="M1924,-91.83C1924,-91.83 1924,-57.83 1924,-57.83 1924,-57.83 103,-57.83 103,-57.83 103,-57.83 103,-91.83 103,-91.83"/>
<polygon fill="#999999" stroke="#999999" points="1920.5,-91.83 1924,-101.83 1927.5,-91.83 1920.5,-91.83"/>
<polygon fill="#999999" stroke="#999999" points="99.5,-91.83 103,-101.83 106.5,-91.83 99.5,-91.83"/>
</g>
<!-- node_bad_p_3&#45;&gt;node_3 -->
<g id="edge23" class="edge">
<title>node_bad_p_3&#45;&gt;node_3</title>
<path fill="none" stroke="#ffecec" stroke-width="2" d="M578,-36.06C578,-36.06 578,-91.59 578,-91.59"/>
<polygon fill="#ffecec" stroke="#ffecec" stroke-width="2" points="574.5,-91.59 578,-101.59 581.5,-91.59 574.5,-91.59"/>
</g>
<!-- node_free -->
<g id="node14" class="node">
<title>node_free</title>
<path fill="#ffecec" stroke="#d66d66" d="M82.5,-36C82.5,-36 35.5,-36 35.5,-36 29.5,-36 23.5,-30 23.5,-24 23.5,-24 23.5,-12 23.5,-12 23.5,-6 29.5,0 35.5,0 35.5,0 82.5,0 82.5,0 88.5,0 94.5,-6 94.5,-12 94.5,-12 94.5,-24 94.5,-24 94.5,-30 88.5,-36 82.5,-36"/>
<text text-anchor="middle" x="59" y="-15.2" font-family="Fira Mono" font-size="11.00">free_head</text>
</g>
<!-- node_free&#45;&gt;node_1 -->
<g id="edge26" class="edge">
<title>node_free&#45;&gt;node_1</title>
<path fill="none" stroke="#d88d88" stroke-dasharray="5,2" d="M94.85,-18C144.99,-18 230,-18 230,-18 230,-18 230,-91.75 230,-91.75"/>
<polygon fill="#d88d88" stroke="#d88d88" points="226.5,-91.75 230,-101.75 233.5,-91.75 226.5,-91.75"/>
</g>
</g>
</svg>
