<?xml version="1.0" encoding="UTF-8" standalone="no"?>
<!DOCTYPE svg PUBLIC "-//W3C//DTD SVG 1.1//EN"
 "http://www.w3.org/Graphics/SVG/1.1/DTD/svg11.dtd">
<!-- Generated by graphviz version 2.43.0 (0)
 -->
<!-- Title: G Pages: 1 -->
<svg width="562pt" height="102pt"
 viewBox="0.00 0.00 562.00 101.72" xmlns="http://www.w3.org/2000/svg" xmlns:xlink="http://www.w3.org/1999/xlink">
<g id="graph0" class="graph" transform="scale(0.35 0.35) rotate(0) translate(4 288.3)">
<title>G</title>
<polygon fill="white" stroke="transparent" points="-4,4 -4,-288.3 1611,-288.3 1611,4 -4,4"/>
<!-- node_0 -->
<g id="node1" class="node">
<title>node_0</title>
<path fill="#e9f2ff" stroke="#6b8fd6" stroke-width="2" d="M12,-195C12,-195 99,-195 99,-195 105,-195 111,-201 111,-207 111,-207 111,-243 111,-243 111,-249 105,-255 99,-255 99,-255 12,-255 12,-255 6,-255 0,-249 0,-243 0,-243 0,-207 0,-207 0,-201 6,-195 12,-195"/>
<text text-anchor="middle" x="55.5" y="-242.2" font-family="Fira Mono" font-size="11.00">ind: 0</text>
<polyline fill="none" stroke="#6b8fd6" stroke-width="2" points="0,-235 111,-235 "/>
<text text-anchor="middle" x="55.5" y="-222.2" font-family="Fira Mono" font-size="11.00">val: 10101</text>
<polyline fill="none" stroke="#6b8fd6" stroke-width="2" points="0,-215 111,-215 "/>
<text text-anchor="middle" x="27.5" y="-202.2" font-family="Fira Mono" font-size="11.00">prev: 3</text>
<polyline fill="none" stroke="#6b8fd6" stroke-width="2" points="55,-195 55,-215 "/>
<text text-anchor="middle" x="83" y="-202.2" font-family="Fira Mono" font-size="11.00">next: 1</text>
</g>
<!-- node_1 -->
<g id="node2" class="node">
<title>node_1</title>
<path fill="#e9fbf5" stroke="#5aa99b" d="M177,-195C177,-195 264,-195 264,-195 270,-195 276,-201 276,-207 276,-207 276,-243 276,-243 276,-249 270,-255 264,-255 264,-255 177,-255 177,-255 171,-255 165,-249 165,-243 165,-243 165,-207 165,-207 165,-201 171,-195 177,-195"/>
<text text-anchor="middle" x="220.5" y="-242.2" font-family="Fira Mono" font-size="11.00">ind: 1 (HEAD)</text>
<polyline fill="none" stroke="#5aa99b" points="165,-235 276,-235 "/>
<text text-anchor="middle" x="220.5" y="-222.2" font-family="Fira Mono" font-size="11.00">val: 2</text>
<polyline fill="none" stroke="#5aa99b" points="165,-215 276,-215 "/>
<text text-anchor="middle" x="192.5" y="-202.2" font-family="Fira Mono" font-size="11.00">prev: 0</text>
<polyline fill="none" stroke="#5aa99b" points="220,-195 220,-215 "/>
<text text-anchor="middle" x="248" y="-202.2" font-family="Fira Mono" font-size="11.00">next: 2</text>
</g>
<!-- node_0&#45;&gt;node_1 -->
<!-- node_0&#45;&gt;node_1 -->
<g id="edge11" class="edge">
<title>node_0&#45;&gt;node_1</title>
<path fill="none" stroke="#999999" d="M121.36,-235.17C121.36,-235.17 154.98,-235.17 154.98,-235.17"/>
<polygon fill="#999999" stroke="#999999" points="154.98,-238.67 164.98,-235.17 154.98,-231.67 154.98,-238.67"/>
<polygon fill="#999999" stroke="#999999" points="121.36,-231.67 111.36,-235.17 121.36,-238.67 121.36,-231.67"/>
</g>
<!-- node_2 -->
<g id="node3" class="node">
<title>node_2</title>
<path fill="#fff3e0" stroke="#000000" d="M342,-195C342,-195 429,-195 429,-195 435,-195 441,-201 441,-207 441,-207 441,-243 441,-243 441,-249 435,-255 429,-255 429,-255 342,-255 342,-255 336,-255 330,-249 330,-243 330,-243 330,-207 330,-207 330,-201 336,-195 342,-195"/>
<text text-anchor="middle" x="385.5" y="-242.2" font-family="Fira Mono" font-size="11.00">ind: 2</text>
<polyline fill="none" stroke="#000000" points="330,-235 441,-235 "/>
<text text-anchor="middle" x="385.5" y="-222.2" font-family="Fira Mono" font-size="11.00">val: 1</text>
<polyline fill="none" stroke="#000000" points="330,-215 441,-215 "/>
<text text-anchor="middle" x="357.5" y="-202.2" font-family="Fira Mono" font-size="11.00">prev: 1</text>
<polyline fill="none" stroke="#000000" points="385,-195 385,-215 "/>
<text text-anchor="middle" x="413" y="-202.2" font-family="Fira Mono" font-size="11.00">next: 5</text>
</g>
<!-- node_1&#45;&gt;node_2 -->
<!-- node_1&#45;&gt;node_2 -->
<g id="edge12" class="edge">
<title>node_1&#45;&gt;node_2</title>
<path fill="none" stroke="#999999" d="M286.36,-235.17C286.36,-235.17 319.98,-235.17 319.98,-235.17"/>
<polygon fill="#999999" stroke="#999999" points="319.98,-238.67 329.98,-235.17 319.98,-231.67 319.98,-238.67"/>
<polygon fill="#999999" stroke="#999999" points="286.36,-231.67 276.36,-235.17 286.36,-238.67 286.36,-231.67"/>
</g>
<!-- node_3 -->
<g id="node4" class="node">
<title>node_3</title>
<path fill="#f1eafd" stroke="#8e6bd6" d="M507,-195C507,-195 594,-195 594,-195 600,-195 606,-201 606,-207 606,-207 606,-243 606,-243 606,-249 600,-255 594,-255 594,-255 507,-255 507,-255 501,-255 495,-249 495,-243 495,-243 495,-207 495,-207 495,-201 501,-195 507,-195"/>
<text text-anchor="middle" x="550.5" y="-242.2" font-family="Fira Mono" font-size="11.00">ind: 3 (TAIL)</text>
<polyline fill="none" stroke="#8e6bd6" points="495,-235 606,-235 "/>
<text text-anchor="middle" x="550.5" y="-222.2" font-family="Fira Mono" font-size="11.00">val: 3</text>
<polyline fill="none" stroke="#8e6bd6" points="495,-215 606,-215 "/>
<text text-anchor="middle" x="522.5" y="-202.2" font-family="Fira Mono" font-size="11.00">prev: 6</text>
<polyline fill="none" stroke="#8e6bd6" points="550,-195 550,-215 "/>
<text text-anchor="middle" x="578" y="-202.2" font-family="Fira Mono" font-size="11.00">next: 0</text>
</g>
<!-- node_2&#45;&gt;node_3 -->
<!-- node_5 -->
<g id="node6" class="node">
<title>node_5</title>
<path fill="#fff3e0" stroke="#000000" d="M837,-195C837,-195 924,-195 924,-195 930,-195 936,-201 936,-207 936,-207 936,-243 936,-243 936,-249 930,-255 924,-255 924,-255 837,-255 837,-255 831,-255 825,-249 825,-243 825,-243 825,-207 825,-207 825,-201 831,-195 837,-195"/>
<text text-anchor="middle" x="880.5" y="-242.2" font-family="Fira Mono" font-size="11.00">ind: 5</text>
<polyline fill="none" stroke="#000000" points="825,-235 936,-235 "/>
<text text-anchor="middle" x="880.5" y="-222.2" font-family="Fira Mono" font-size="11.00">val: 5</text>
<polyline fill="none" stroke="#000000" points="825,-215 936,-215 "/>
<text text-anchor="middle" x="852.5" y="-202.2" font-family="Fira Mono" font-size="11.00">prev: 2</text>
<polyline fill="none" stroke="#000000" points="880,-195 880,-215 "/>
<text text-anchor="middle" x="908" y="-202.2" font-family="Fira Mono" font-size="11.00">next: 4</text>
</g>
<!-- node_2&#45;&gt;node_5 -->
<g id="edge13" class="edge">
<title>node_2&#45;&gt;node_5</title>
<path fill="none" stroke="#999999" d="M386,-265.34C386,-265.34 386,-284.3 386,-284.3 386,-284.3 881,-284.3 881,-284.3 881,-284.3 881,-265.34 881,-265.34"/>
<polygon fill="#999999" stroke="#999999" points="389.5,-265.34 386,-255.34 382.5,-265.34 389.5,-265.34"/>
<polygon fill="#999999" stroke="#999999" points="884.5,-265.34 881,-255.34 877.5,-265.34 884.5,-265.34"/>
</g>
<!-- node_3&#45;&gt;node_0 -->
<g id="edge14" class="edge">
<title>node_3&#45;&gt;node_0</title>
<path fill="none" stroke="#999999" d="M532,-265C532,-265 532,-277.1 532,-277.1 532,-277.1 56,-277.1 56,-277.1 56,-277.1 56,-265 56,-265"/>
<polygon fill="#999999" stroke="#999999" points="535.5,-265 532,-255 528.5,-265 535.5,-265"/>
<polygon fill="#999999" stroke="#999999" points="59.5,-265 56,-255 52.5,-265 59.5,-265"/>
</g>
<!-- node_4 -->
<g id="node5" class="node">
<title>node_4</title>
<path fill="#fff3e0" stroke="#000000" d="M672,-195C672,-195 759,-195 759,-195 765,-195 771,-201 771,-207 771,-207 771,-243 771,-243 771,-249 765,-255 759,-255 759,-255 672,-255 672,-255 666,-255 660,-249 660,-243 660,-243 660,-207 660,-207 660,-201 666,-195 672,-195"/>
<text text-anchor="middle" x="715.5" y="-242.2" font-family="Fira Mono" font-size="11.00">ind: 4</text>
<polyline fill="none" stroke="#000000" points="660,-235 771,-235 "/>
<text text-anchor="middle" x="715.5" y="-222.2" font-family="Fira Mono" font-size="11.00">val: 4</text>
<polyline fill="none" stroke="#000000" points="660,-215 771,-215 "/>
<text text-anchor="middle" x="687.5" y="-202.2" font-family="Fira Mono" font-size="11.00">prev: 5</text>
<polyline fill="none" stroke="#000000" points="715,-195 715,-215 "/>
<text text-anchor="middle" x="743" y="-202.2" font-family="Fira Mono" font-size="11.00">next: 7</text>
</g>
<!-- node_3&#45;&gt;node_4 -->
<!-- node_4&#45;&gt;node_5 -->
<!-- node_7 -->
<g id="node8" class="node">
<title>node_7</title>
<path fill="#fff3e0" stroke="#000000" d="M1167,-195C1167,-195 1254,-195 1254,-195 1260,-195 1266,-201 1266,-207 1266,-207 1266,-243 1266,-243 1266,-249 1260,-255 1254,-255 1254,-255 1167,-255 1167,-255 1161,-255 1155,-249 1155,-243 1155,-243 1155,-207 1155,-207 1155,-201 1161,-195 1167,-195"/>
<text text-anchor="middle" x="1210.5" y="-242.2" font-family="Fira Mono" font-size="11.00">ind: 7</text>
<polyline fill="none" stroke="#000000" points="1155,-235 1266,-235 "/>
<text text-anchor="middle" x="1210.5" y="-222.2" font-family="Fira Mono" font-size="11.00">val: 5</text>
<polyline fill="none" stroke="#000000" points="1155,-215 1266,-215 "/>
<text text-anchor="middle" x="1182.5" y="-202.2" font-family="Fira Mono" font-size="11.00">prev: 4</text>
<polyline fill="none" stroke="#000000" points="1210,-195 1210,-215 "/>
<text text-anchor="middle" x="1238" y="-202.2" font-family="Fira Mono" font-size="11.00">next: 6</text>
</g>
<!-- node_4&#45;&gt;node_7 -->
<g id="edge15" class="edge">
<title>node_4&#45;&gt;node_7</title>
<path fill="none" stroke="#999999" d="M716,-265.2C716,-265.2 716,-269.9 716,-269.9 716,-269.9 1211,-269.9 1211,-269.9 1211,-269.9 1211,-265.2 1211,-265.2"/>
<polygon fill="#999999" stroke="#999999" points="719.5,-265.2 716,-255.2 712.5,-265.2 719.5,-265.2"/>
<polygon fill="#999999" stroke="#999999" points="1214.5,-265.2 1211,-255.2 1207.5,-265.2 1214.5,-265.2"/>
</g>
<!-- node_5&#45;&gt;node_4 -->
<g id="edge16" class="edge">
<title>node_5&#45;&gt;node_4</title>
<path fill="none" stroke="#999999" d="M814.64,-235.17C814.64,-235.17 781.02,-235.17 781.02,-235.17"/>
<polygon fill="#999999" stroke="#999999" points="781.02,-231.67 771.02,-235.17 781.02,-238.67 781.02,-231.67"/>
<polygon fill="#999999" stroke="#999999" points="814.64,-238.67 824.64,-235.17 814.64,-231.67 814.64,-238.67"/>
</g>
<!-- node_6 -->
<g id="node7" class="node">
<title>node_6</title>
<path fill="#fff3e0" stroke="#000000" d="M1002,-195C1002,-195 1089,-195 1089,-195 1095,-195 1101,-201 1101,-207 1101,-207 1101,-243 1101,-243 1101,-249 1095,-255 1089,-255 1089,-255 1002,-255 1002,-255 996,-255 990,-249 990,-243 990,-243 990,-207 990,-207 990,-201 996,-195 1002,-195"/>
<text text-anchor="middle" x="1045.5" y="-242.2" font-family="Fira Mono" font-size="11.00">ind: 6</text>
<polyline fill="none" stroke="#000000" points="990,-235 1101,-235 "/>
<text text-anchor="middle" x="1045.5" y="-222.2" font-family="Fira Mono" font-size="11.00">val: 4</text>
<polyline fill="none" stroke="#000000" points="990,-215 1101,-215 "/>
<text text-anchor="middle" x="1017.5" y="-202.2" font-family="Fira Mono" font-size="11.00">prev: 7</text>
<polyline fill="none" stroke="#000000" points="1045,-195 1045,-215 "/>
<text text-anchor="middle" x="1073" y="-202.2" font-family="Fira Mono" font-size="11.00">next: 3</text>
</g>
<!-- node_5&#45;&gt;node_6 -->
<!-- node_6&#45;&gt;node_3 -->
<g id="edge17" class="edge">
<title>node_6&#45;&gt;node_3</title>
<path fill="none" stroke="#999999" d="M1046,-261.94C1046,-261.94 1046,-262.7 1046,-262.7 1046,-262.7 569,-262.7 569,-262.7 569,-262.7 569,-261.94 569,-261.94"/>
<polygon fill="#999999" stroke="#999999" points="1049.5,-265.07 1046,-255.07 1042.5,-265.07 1049.5,-265.07"/>
<polygon fill="#999999" stroke="#999999" points="572.5,-265.07 569,-255.07 565.5,-265.07 572.5,-265.07"/>
</g>
<!-- node_6&#45;&gt;node_7 -->
<!-- node_7&#45;&gt;node_6 -->
<g id="edge18" class="edge">
<title>node_7&#45;&gt;node_6</title>
<path fill="none" stroke="#999999" d="M1144.64,-235.17C1144.64,-235.17 1111.02,-235.17 1111.02,-235.17"/>
<polygon fill="#999999" stroke="#999999" points="1111.02,-231.67 1101.02,-235.17 1111.02,-238.67 1111.02,-231.67"/>
<polygon fill="#999999" stroke="#999999" points="1144.64,-238.67 1154.64,-235.17 1144.64,-231.67 1144.64,-238.67"/>
</g>
<!-- node_8 -->
<g id="node9" class="node">
<title>node_8</title>
<path fill="#ffecec" stroke="#000000" d="M1332,-195C1332,-195 1423,-195 1423,-195 1429,-195 1435,-201 1435,-207 1435,-207 1435,-243 1435,-243 1435,-249 1429,-255 1423,-255 1423,-255 1332,-255 1332,-255 1326,-255 1320,-249 1320,-243 1320,-243 1320,-207 1320,-207 1320,-201 1326,-195 1332,-195"/>
<text text-anchor="middle" x="1377.5" y="-242.2" font-family="Fira Mono" font-size="11.00">ind: 8</text>
<polyline fill="none" stroke="#000000" points="1320,-235 1435,-235 "/>
<text text-anchor="middle" x="1377.5" y="-222.2" font-family="Fira Mono" font-size="11.00">val: &#45;1</text>
<polyline fill="none" stroke="#000000" points="1320,-215 1435,-215 "/>
<text text-anchor="middle" x="1349.5" y="-202.2" font-family="Fira Mono" font-size="11.00">prev: &#45;1</text>
<polyline fill="none" stroke="#000000" points="1379,-195 1379,-215 "/>
<text text-anchor="middle" x="1407" y="-202.2" font-family="Fira Mono" font-size="11.00">next: 9</text>
</g>
<!-- node_7&#45;&gt;node_8 -->
<!-- node_9 -->
<g id="node10" class="node">
<title>node_9</title>
<path fill="#ffecec" stroke="#000000" d="M1501,-195C1501,-195 1595,-195 1595,-195 1601,-195 1607,-201 1607,-207 1607,-207 1607,-243 1607,-243 1607,-249 1601,-255 1595,-255 1595,-255 1501,-255 1501,-255 1495,-255 1489,-249 1489,-243 1489,-243 1489,-207 1489,-207 1489,-201 1495,-195 1501,-195"/>
<text text-anchor="middle" x="1548" y="-242.2" font-family="Fira Mono" font-size="11.00">ind: 9</text>
<polyline fill="none" stroke="#000000" points="1489,-235 1607,-235 "/>
<text text-anchor="middle" x="1548" y="-222.2" font-family="Fira Mono" font-size="11.00">val: &#45;1</text>
<polyline fill="none" stroke="#000000" points="1489,-215 1607,-215 "/>
<text text-anchor="middle" x="1518.5" y="-202.2" font-family="Fira Mono" font-size="11.00">prev: &#45;1</text>
<polyline fill="none" stroke="#000000" points="1548,-195 1548,-215 "/>
<text text-anchor="middle" x="1577.5" y="-202.2" font-family="Fira Mono" font-size="11.00">next: &#45;1</text>
</g>
<!-- node_8&#45;&gt;node_9 -->
<!-- node_8&#45;&gt;node_9 -->
<g id="edge10" class="edge">
<title>node_8&#45;&gt;node_9</title>
<path fill="none" stroke="#000000" stroke-dasharray="5,2" d="M1435.22,-235.17C1435.22,-235.17 1478.88,-235.17 1478.88,-235.17"/>
<polygon fill="#000000" stroke="#000000" points="1478.88,-238.67 1488.88,-235.17 1478.88,-231.67 1478.88,-238.67"/>
</g>
<!-- node_free -->
<g id="node11" class="node">
<title>node_free</title>
<path fill="#ffecec" stroke="#000000" d="M79,-36C79,-36 32,-36 32,-36 26,-36 20,-30 20,-24 20,-24 20,-12 20,-12 20,-6 26,0 32,0 32,0 79,0 79,0 85,0 91,-6 91,-12 91,-12 91,-24 91,-24 91,-30 85,-36 79,-36"/>
<text text-anchor="middle" x="55.5" y="-15.2" font-family="Fira Mono" font-size="11.00">free_head</text>
</g>
<!-- node_free&#45;&gt;node_8 -->
<g id="edge19" class="edge">
<title>node_free&#45;&gt;node_8</title>
<path fill="none" stroke="#000000" stroke-dasharray="5,2" d="M91.22,-18C302.35,-18 1378,-18 1378,-18 1378,-18 1378,-184.9 1378,-184.9"/>
<polygon fill="#000000" stroke="#000000" points="1374.5,-184.9 1378,-194.9 1381.5,-184.9 1374.5,-184.9"/>
</g>
</g>
</svg>
