<?xml version="1.0" encoding="UTF-8" standalone="no"?>
<!DOCTYPE svg PUBLIC "-//W3C//DTD SVG 1.1//EN"
 "http://www.w3.org/Graphics/SVG/1.1/DTD/svg11.dtd">
<!-- Generated by graphviz version 2.43.0 (0)
 -->
<!-- Title: G Pages: 1 -->
<svg width="3354pt" height="472pt"
 viewBox="0.00 0.00 3354.00 471.90" xmlns="http://www.w3.org/2000/svg" xmlns:xlink="http://www.w3.org/1999/xlink">
<g id="graph0" class="graph" transform="scale(1 1) rotate(0) translate(4 467.9)">
<title>G</title>
<polygon fill="white" stroke="transparent" points="-4,4 -4,-467.9 3350,-467.9 3350,4 -4,4"/>
<!-- node_0 -->
<g id="node1" class="node">
<title>node_0</title>
<path fill="#e9f2ff" stroke="#6b8fd6" stroke-width="2" d="M12,-371C12,-371 99,-371 99,-371 105,-371 111,-377 111,-383 111,-383 111,-419 111,-419 111,-425 105,-431 99,-431 99,-431 12,-431 12,-431 6,-431 0,-425 0,-419 0,-419 0,-383 0,-383 0,-377 6,-371 12,-371"/>
<text text-anchor="middle" x="55.5" y="-418.2" font-family="Fira Mono" font-size="11.00">ind: 0</text>
<polyline fill="none" stroke="#6b8fd6" stroke-width="2" points="0,-411 111,-411 "/>
<text text-anchor="middle" x="55.5" y="-398.2" font-family="Fira Mono" font-size="11.00">val: 10101</text>
<polyline fill="none" stroke="#6b8fd6" stroke-width="2" points="0,-391 111,-391 "/>
<text text-anchor="middle" x="27.5" y="-378.2" font-family="Fira Mono" font-size="11.00">prev: 3</text>
<polyline fill="none" stroke="#6b8fd6" stroke-width="2" points="55,-371 55,-391 "/>
<text text-anchor="middle" x="83" y="-378.2" font-family="Fira Mono" font-size="11.00">next: 8</text>
</g>
<!-- node_1 -->
<g id="node2" class="node">
<title>node_1</title>
<path fill="#fff3e0" stroke="#000000" d="M177,-371C177,-371 264,-371 264,-371 270,-371 276,-377 276,-383 276,-383 276,-419 276,-419 276,-425 270,-431 264,-431 264,-431 177,-431 177,-431 171,-431 165,-425 165,-419 165,-419 165,-383 165,-383 165,-377 171,-371 177,-371"/>
<text text-anchor="middle" x="220.5" y="-418.2" font-family="Fira Mono" font-size="11.00">ind: 1</text>
<polyline fill="none" stroke="#000000" points="165,-411 276,-411 "/>
<text text-anchor="middle" x="220.5" y="-398.2" font-family="Fira Mono" font-size="11.00">val: 2</text>
<polyline fill="none" stroke="#000000" points="165,-391 276,-391 "/>
<text text-anchor="middle" x="192.5" y="-378.2" font-family="Fira Mono" font-size="11.00">prev: 8</text>
<polyline fill="none" stroke="#000000" points="220,-371 220,-391 "/>
<text text-anchor="middle" x="248" y="-378.2" font-family="Fira Mono" font-size="11.00">next: 9</text>
</g>
<!-- node_0&#45;&gt;node_1 -->
<!-- node_8 -->
<g id="node9" class="node">
<title>node_8</title>
<path fill="#e9fbf5" stroke="#5aa99b" d="M1345,-371C1345,-371 1432,-371 1432,-371 1438,-371 1444,-377 1444,-383 1444,-383 1444,-419 1444,-419 1444,-425 1438,-431 1432,-431 1432,-431 1345,-431 1345,-431 1339,-431 1333,-425 1333,-419 1333,-419 1333,-383 1333,-383 1333,-377 1339,-371 1345,-371"/>
<text text-anchor="middle" x="1388.5" y="-418.2" font-family="Fira Mono" font-size="11.00">ind: 8 (HEAD)</text>
<polyline fill="none" stroke="#5aa99b" points="1333,-411 1444,-411 "/>
<text text-anchor="middle" x="1388.5" y="-398.2" font-family="Fira Mono" font-size="11.00">val: 10</text>
<polyline fill="none" stroke="#5aa99b" points="1333,-391 1444,-391 "/>
<text text-anchor="middle" x="1360.5" y="-378.2" font-family="Fira Mono" font-size="11.00">prev: 0</text>
<polyline fill="none" stroke="#5aa99b" points="1388,-371 1388,-391 "/>
<text text-anchor="middle" x="1416" y="-378.2" font-family="Fira Mono" font-size="11.00">next: 1</text>
</g>
<!-- node_0&#45;&gt;node_8 -->
<g id="edge28" class="edge">
<title>node_0&#45;&gt;node_8</title>
<path fill="none" stroke="#999999" d="M37,-441.34C37,-441.34 37,-463.9 37,-463.9 37,-463.9 1370,-463.9 1370,-463.9 1370,-463.9 1370,-441.34 1370,-441.34"/>
<polygon fill="#999999" stroke="#999999" points="40.5,-441.34 37,-431.34 33.5,-441.34 40.5,-441.34"/>
<polygon fill="#999999" stroke="#999999" points="1373.5,-441.34 1370,-431.34 1366.5,-441.34 1373.5,-441.34"/>
</g>
<!-- node_2 -->
<g id="node3" class="node">
<title>node_2</title>
<path fill="#fff3e0" stroke="#000000" d="M342,-371C342,-371 435,-371 435,-371 441,-371 447,-377 447,-383 447,-383 447,-419 447,-419 447,-425 441,-431 435,-431 435,-431 342,-431 342,-431 336,-431 330,-425 330,-419 330,-419 330,-383 330,-383 330,-377 336,-371 342,-371"/>
<text text-anchor="middle" x="388.5" y="-418.2" font-family="Fira Mono" font-size="11.00">ind: 2</text>
<polyline fill="none" stroke="#000000" points="330,-411 447,-411 "/>
<text text-anchor="middle" x="388.5" y="-398.2" font-family="Fira Mono" font-size="11.00">val: 1</text>
<polyline fill="none" stroke="#000000" points="330,-391 447,-391 "/>
<text text-anchor="middle" x="357.5" y="-378.2" font-family="Fira Mono" font-size="11.00">prev: 9</text>
<polyline fill="none" stroke="#000000" points="385,-371 385,-391 "/>
<text text-anchor="middle" x="416" y="-378.2" font-family="Fira Mono" font-size="11.00">next: 10</text>
</g>
<!-- node_1&#45;&gt;node_2 -->
<!-- node_9 -->
<g id="node10" class="node">
<title>node_9</title>
<path fill="#fff3e0" stroke="#000000" d="M1510,-371C1510,-371 1597,-371 1597,-371 1603,-371 1609,-377 1609,-383 1609,-383 1609,-419 1609,-419 1609,-425 1603,-431 1597,-431 1597,-431 1510,-431 1510,-431 1504,-431 1498,-425 1498,-419 1498,-419 1498,-383 1498,-383 1498,-377 1504,-371 1510,-371"/>
<text text-anchor="middle" x="1553.5" y="-418.2" font-family="Fira Mono" font-size="11.00">ind: 9</text>
<polyline fill="none" stroke="#000000" points="1498,-411 1609,-411 "/>
<text text-anchor="middle" x="1553.5" y="-398.2" font-family="Fira Mono" font-size="11.00">val: 20</text>
<polyline fill="none" stroke="#000000" points="1498,-391 1609,-391 "/>
<text text-anchor="middle" x="1525.5" y="-378.2" font-family="Fira Mono" font-size="11.00">prev: 1</text>
<polyline fill="none" stroke="#000000" points="1553,-371 1553,-391 "/>
<text text-anchor="middle" x="1581" y="-378.2" font-family="Fira Mono" font-size="11.00">next: 2</text>
</g>
<!-- node_1&#45;&gt;node_9 -->
<g id="edge29" class="edge">
<title>node_1&#45;&gt;node_9</title>
<path fill="none" stroke="#999999" d="M202,-441C202,-441 202,-453.1 202,-453.1 202,-453.1 1535,-453.1 1535,-453.1 1535,-453.1 1535,-441 1535,-441"/>
<polygon fill="#999999" stroke="#999999" points="205.5,-441 202,-431 198.5,-441 205.5,-441"/>
<polygon fill="#999999" stroke="#999999" points="1538.5,-441 1535,-431 1531.5,-441 1538.5,-441"/>
</g>
<!-- node_3 -->
<g id="node4" class="node">
<title>node_3</title>
<path fill="#f1eafd" stroke="#8e6bd6" d="M513,-371C513,-371 600,-371 600,-371 606,-371 612,-377 612,-383 612,-383 612,-419 612,-419 612,-425 606,-431 600,-431 600,-431 513,-431 513,-431 507,-431 501,-425 501,-419 501,-419 501,-383 501,-383 501,-377 507,-371 513,-371"/>
<text text-anchor="middle" x="556.5" y="-418.2" font-family="Fira Mono" font-size="11.00">ind: 3 (TAIL)</text>
<polyline fill="none" stroke="#8e6bd6" points="501,-411 612,-411 "/>
<text text-anchor="middle" x="556.5" y="-398.2" font-family="Fira Mono" font-size="11.00">val: 3</text>
<polyline fill="none" stroke="#8e6bd6" points="501,-391 612,-391 "/>
<text text-anchor="middle" x="528.5" y="-378.2" font-family="Fira Mono" font-size="11.00">prev: 6</text>
<polyline fill="none" stroke="#8e6bd6" points="556,-371 556,-391 "/>
<text text-anchor="middle" x="584" y="-378.2" font-family="Fira Mono" font-size="11.00">next: 0</text>
</g>
<!-- node_2&#45;&gt;node_3 -->
<!-- node_10 -->
<g id="node11" class="node">
<title>node_10</title>
<path fill="#fff3e0" stroke="#000000" d="M1675,-371C1675,-371 1762,-371 1762,-371 1768,-371 1774,-377 1774,-383 1774,-383 1774,-419 1774,-419 1774,-425 1768,-431 1762,-431 1762,-431 1675,-431 1675,-431 1669,-431 1663,-425 1663,-419 1663,-419 1663,-383 1663,-383 1663,-377 1669,-371 1675,-371"/>
<text text-anchor="middle" x="1718.5" y="-418.2" font-family="Fira Mono" font-size="11.00">ind: 10</text>
<polyline fill="none" stroke="#000000" points="1663,-411 1774,-411 "/>
<text text-anchor="middle" x="1718.5" y="-398.2" font-family="Fira Mono" font-size="11.00">val: 30</text>
<polyline fill="none" stroke="#000000" points="1663,-391 1774,-391 "/>
<text text-anchor="middle" x="1690.5" y="-378.2" font-family="Fira Mono" font-size="11.00">prev: 2</text>
<polyline fill="none" stroke="#000000" points="1718,-371 1718,-391 "/>
<text text-anchor="middle" x="1746" y="-378.2" font-family="Fira Mono" font-size="11.00">next: 5</text>
</g>
<!-- node_2&#45;&gt;node_10 -->
<g id="edge30" class="edge">
<title>node_2&#45;&gt;node_10</title>
<path fill="none" stroke="#999999" d="M369,-441.13C369,-441.13 369,-456.7 369,-456.7 369,-456.7 1700,-456.7 1700,-456.7 1700,-456.7 1700,-441.13 1700,-441.13"/>
<polygon fill="#999999" stroke="#999999" points="372.5,-441.13 369,-431.13 365.5,-441.13 372.5,-441.13"/>
<polygon fill="#999999" stroke="#999999" points="1703.5,-441.13 1700,-431.13 1696.5,-441.13 1703.5,-441.13"/>
</g>
<!-- node_3&#45;&gt;node_0 -->
<g id="edge31" class="edge">
<title>node_3&#45;&gt;node_0</title>
<path fill="none" stroke="#999999" d="M538,-441.34C538,-441.34 538,-460.3 538,-460.3 538,-460.3 74,-460.3 74,-460.3 74,-460.3 74,-441.34 74,-441.34"/>
<polygon fill="#999999" stroke="#999999" points="541.5,-441.34 538,-431.34 534.5,-441.34 541.5,-441.34"/>
<polygon fill="#999999" stroke="#999999" points="77.5,-441.34 74,-431.34 70.5,-441.34 77.5,-441.34"/>
</g>
<!-- node_4 -->
<g id="node5" class="node">
<title>node_4</title>
<path fill="#fff3e0" stroke="#000000" d="M678,-371C678,-371 765,-371 765,-371 771,-371 777,-377 777,-383 777,-383 777,-419 777,-419 777,-425 771,-431 765,-431 765,-431 678,-431 678,-431 672,-431 666,-425 666,-419 666,-419 666,-383 666,-383 666,-377 672,-371 678,-371"/>
<text text-anchor="middle" x="721.5" y="-418.2" font-family="Fira Mono" font-size="11.00">ind: 4</text>
<polyline fill="none" stroke="#000000" points="666,-411 777,-411 "/>
<text text-anchor="middle" x="721.5" y="-398.2" font-family="Fira Mono" font-size="11.00">val: 4</text>
<polyline fill="none" stroke="#000000" points="666,-391 777,-391 "/>
<text text-anchor="middle" x="693.5" y="-378.2" font-family="Fira Mono" font-size="11.00">prev: 5</text>
<polyline fill="none" stroke="#000000" points="721,-371 721,-391 "/>
<text text-anchor="middle" x="749" y="-378.2" font-family="Fira Mono" font-size="11.00">next: 7</text>
</g>
<!-- node_3&#45;&gt;node_4 -->
<!-- node_5 -->
<g id="node6" class="node">
<title>node_5</title>
<path fill="#fff3e0" stroke="#000000" d="M843,-371C843,-371 937,-371 937,-371 943,-371 949,-377 949,-383 949,-383 949,-419 949,-419 949,-425 943,-431 937,-431 937,-431 843,-431 843,-431 837,-431 831,-425 831,-419 831,-419 831,-383 831,-383 831,-377 837,-371 843,-371"/>
<text text-anchor="middle" x="890" y="-418.2" font-family="Fira Mono" font-size="11.00">ind: 5</text>
<polyline fill="none" stroke="#000000" points="831,-411 949,-411 "/>
<text text-anchor="middle" x="890" y="-398.2" font-family="Fira Mono" font-size="11.00">val: 5</text>
<polyline fill="none" stroke="#000000" points="831,-391 949,-391 "/>
<text text-anchor="middle" x="862" y="-378.2" font-family="Fira Mono" font-size="11.00">prev: 10</text>
<polyline fill="none" stroke="#000000" points="893,-371 893,-391 "/>
<text text-anchor="middle" x="921" y="-378.2" font-family="Fira Mono" font-size="11.00">next: 4</text>
</g>
<!-- node_4&#45;&gt;node_5 -->
<!-- node_7 -->
<g id="node8" class="node">
<title>node_7</title>
<path fill="#fff3e0" stroke="#000000" d="M1180,-371C1180,-371 1267,-371 1267,-371 1273,-371 1279,-377 1279,-383 1279,-383 1279,-419 1279,-419 1279,-425 1273,-431 1267,-431 1267,-431 1180,-431 1180,-431 1174,-431 1168,-425 1168,-419 1168,-419 1168,-383 1168,-383 1168,-377 1174,-371 1180,-371"/>
<text text-anchor="middle" x="1223.5" y="-418.2" font-family="Fira Mono" font-size="11.00">ind: 7</text>
<polyline fill="none" stroke="#000000" points="1168,-411 1279,-411 "/>
<text text-anchor="middle" x="1223.5" y="-398.2" font-family="Fira Mono" font-size="11.00">val: 5</text>
<polyline fill="none" stroke="#000000" points="1168,-391 1279,-391 "/>
<text text-anchor="middle" x="1195.5" y="-378.2" font-family="Fira Mono" font-size="11.00">prev: 4</text>
<polyline fill="none" stroke="#000000" points="1223,-371 1223,-391 "/>
<text text-anchor="middle" x="1251" y="-378.2" font-family="Fira Mono" font-size="11.00">next: 6</text>
</g>
<!-- node_4&#45;&gt;node_7 -->
<g id="edge32" class="edge">
<title>node_4&#45;&gt;node_7</title>
<path fill="none" stroke="#999999" d="M722,-441.01C722,-441.01 722,-442.3 722,-442.3 722,-442.3 1224,-442.3 1224,-442.3 1224,-442.3 1224,-441.01 1224,-441.01"/>
<polygon fill="#999999" stroke="#999999" points="725.5,-441.01 722,-431.01 718.5,-441.01 725.5,-441.01"/>
<polygon fill="#999999" stroke="#999999" points="1227.5,-441.01 1224,-431.01 1220.5,-441.01 1227.5,-441.01"/>
</g>
<!-- node_5&#45;&gt;node_4 -->
<g id="edge33" class="edge">
<title>node_5&#45;&gt;node_4</title>
<path fill="none" stroke="#999999" d="M820.59,-411.17C820.59,-411.17 787.27,-411.17 787.27,-411.17"/>
<polygon fill="#999999" stroke="#999999" points="787.27,-407.67 777.27,-411.17 787.27,-414.67 787.27,-407.67"/>
<polygon fill="#999999" stroke="#999999" points="820.59,-414.67 830.59,-411.17 820.59,-407.67 820.59,-414.67"/>
</g>
<!-- node_6 -->
<g id="node7" class="node">
<title>node_6</title>
<path fill="#fff3e0" stroke="#000000" d="M1015,-371C1015,-371 1102,-371 1102,-371 1108,-371 1114,-377 1114,-383 1114,-383 1114,-419 1114,-419 1114,-425 1108,-431 1102,-431 1102,-431 1015,-431 1015,-431 1009,-431 1003,-425 1003,-419 1003,-419 1003,-383 1003,-383 1003,-377 1009,-371 1015,-371"/>
<text text-anchor="middle" x="1058.5" y="-418.2" font-family="Fira Mono" font-size="11.00">ind: 6</text>
<polyline fill="none" stroke="#000000" points="1003,-411 1114,-411 "/>
<text text-anchor="middle" x="1058.5" y="-398.2" font-family="Fira Mono" font-size="11.00">val: 4</text>
<polyline fill="none" stroke="#000000" points="1003,-391 1114,-391 "/>
<text text-anchor="middle" x="1030.5" y="-378.2" font-family="Fira Mono" font-size="11.00">prev: 7</text>
<polyline fill="none" stroke="#000000" points="1058,-371 1058,-391 "/>
<text text-anchor="middle" x="1086" y="-378.2" font-family="Fira Mono" font-size="11.00">next: 3</text>
</g>
<!-- node_5&#45;&gt;node_6 -->
<!-- node_6&#45;&gt;node_3 -->
<g id="edge34" class="edge">
<title>node_6&#45;&gt;node_3</title>
<path fill="none" stroke="#999999" d="M1059,-437.94C1059,-437.94 1059,-438.7 1059,-438.7 1059,-438.7 575,-438.7 575,-438.7 575,-438.7 575,-437.94 575,-437.94"/>
<polygon fill="#999999" stroke="#999999" points="1062.5,-441.07 1059,-431.07 1055.5,-441.07 1062.5,-441.07"/>
<polygon fill="#999999" stroke="#999999" points="578.5,-441.07 575,-431.07 571.5,-441.07 578.5,-441.07"/>
</g>
<!-- node_6&#45;&gt;node_7 -->
<!-- node_7&#45;&gt;node_6 -->
<g id="edge35" class="edge">
<title>node_7&#45;&gt;node_6</title>
<path fill="none" stroke="#999999" d="M1157.64,-411.17C1157.64,-411.17 1124.02,-411.17 1124.02,-411.17"/>
<polygon fill="#999999" stroke="#999999" points="1124.02,-407.67 1114.02,-411.17 1124.02,-414.67 1124.02,-407.67"/>
<polygon fill="#999999" stroke="#999999" points="1157.64,-414.67 1167.64,-411.17 1157.64,-407.67 1157.64,-414.67"/>
</g>
<!-- node_7&#45;&gt;node_8 -->
<!-- node_8&#45;&gt;node_1 -->
<g id="edge36" class="edge">
<title>node_8&#45;&gt;node_1</title>
<path fill="none" stroke="#999999" d="M1407,-441.2C1407,-441.2 1407,-445.9 1407,-445.9 1407,-445.9 239,-445.9 239,-445.9 239,-445.9 239,-441.2 239,-441.2"/>
<polygon fill="#999999" stroke="#999999" points="1410.5,-441.2 1407,-431.2 1403.5,-441.2 1410.5,-441.2"/>
<polygon fill="#999999" stroke="#999999" points="242.5,-441.2 239,-431.2 235.5,-441.2 242.5,-441.2"/>
</g>
<!-- node_8&#45;&gt;node_9 -->
<!-- node_9&#45;&gt;node_2 -->
<g id="edge37" class="edge">
<title>node_9&#45;&gt;node_2</title>
<path fill="none" stroke="#999999" d="M1572,-441.16C1572,-441.16 1572,-449.5 1572,-449.5 1572,-449.5 408,-449.5 408,-449.5 408,-449.5 408,-441.16 408,-441.16"/>
<polygon fill="#999999" stroke="#999999" points="1575.5,-441.16 1572,-431.16 1568.5,-441.16 1575.5,-441.16"/>
<polygon fill="#999999" stroke="#999999" points="411.5,-441.16 408,-431.16 404.5,-441.16 411.5,-441.16"/>
</g>
<!-- node_9&#45;&gt;node_10 -->
<!-- node_10&#45;&gt;node_5 -->
<g id="edge38" class="edge">
<title>node_10&#45;&gt;node_5</title>
<path fill="none" stroke="#999999" d="M1737,-434.71C1737,-434.71 1737,-435.1 1737,-435.1 1737,-435.1 890,-435.1 890,-435.1 890,-435.1 890,-434.71 890,-434.71"/>
<polygon fill="#999999" stroke="#999999" points="1740.5,-441.19 1737,-431.19 1733.5,-441.19 1740.5,-441.19"/>
<polygon fill="#999999" stroke="#999999" points="893.5,-441.19 890,-431.19 886.5,-441.19 893.5,-441.19"/>
</g>
<!-- node_11 -->
<g id="node12" class="node">
<title>node_11</title>
<path fill="#ffecec" stroke="#d66d66" d="M1840,-371C1840,-371 1937,-371 1937,-371 1943,-371 1949,-377 1949,-383 1949,-383 1949,-419 1949,-419 1949,-425 1943,-431 1937,-431 1937,-431 1840,-431 1840,-431 1834,-431 1828,-425 1828,-419 1828,-419 1828,-383 1828,-383 1828,-377 1834,-371 1840,-371"/>
<text text-anchor="middle" x="1888.5" y="-418.2" font-family="Fira Mono" font-size="11.00">ind: 11</text>
<polyline fill="none" stroke="#d66d66" points="1828,-411 1949,-411 "/>
<text text-anchor="middle" x="1888.5" y="-398.2" font-family="Fira Mono" font-size="11.00">val: &#45;100</text>
<polyline fill="none" stroke="#d66d66" points="1828,-391 1949,-391 "/>
<text text-anchor="middle" x="1857.5" y="-378.2" font-family="Fira Mono" font-size="11.00">prev: &#45;1</text>
<polyline fill="none" stroke="#d66d66" points="1887,-371 1887,-391 "/>
<text text-anchor="middle" x="1918" y="-378.2" font-family="Fira Mono" font-size="11.00">next: 12</text>
</g>
<!-- node_10&#45;&gt;node_11 -->
<!-- node_12 -->
<g id="node13" class="node">
<title>node_12</title>
<path fill="#ffecec" stroke="#d66d66" d="M2015,-371C2015,-371 2112,-371 2112,-371 2118,-371 2124,-377 2124,-383 2124,-383 2124,-419 2124,-419 2124,-425 2118,-431 2112,-431 2112,-431 2015,-431 2015,-431 2009,-431 2003,-425 2003,-419 2003,-419 2003,-383 2003,-383 2003,-377 2009,-371 2015,-371"/>
<text text-anchor="middle" x="2063.5" y="-418.2" font-family="Fira Mono" font-size="11.00">ind: 12</text>
<polyline fill="none" stroke="#d66d66" points="2003,-411 2124,-411 "/>
<text text-anchor="middle" x="2063.5" y="-398.2" font-family="Fira Mono" font-size="11.00">val: &#45;100</text>
<polyline fill="none" stroke="#d66d66" points="2003,-391 2124,-391 "/>
<text text-anchor="middle" x="2032.5" y="-378.2" font-family="Fira Mono" font-size="11.00">prev: &#45;1</text>
<polyline fill="none" stroke="#d66d66" points="2062,-371 2062,-391 "/>
<text text-anchor="middle" x="2093" y="-378.2" font-family="Fira Mono" font-size="11.00">next: 13</text>
</g>
<!-- node_11&#45;&gt;node_12 -->
<!-- node_11&#45;&gt;node_12 -->
<g id="edge20" class="edge">
<title>node_11&#45;&gt;node_12</title>
<path fill="none" stroke="#d88d88" stroke-dasharray="5,2" d="M1949.22,-411.17C1949.22,-411.17 1992.89,-411.17 1992.89,-411.17"/>
<polygon fill="#d88d88" stroke="#d88d88" points="1992.89,-414.67 2002.89,-411.17 1992.89,-407.67 1992.89,-414.67"/>
</g>
<!-- node_13 -->
<g id="node14" class="node">
<title>node_13</title>
<path fill="#ffecec" stroke="#d66d66" d="M2190,-371C2190,-371 2287,-371 2287,-371 2293,-371 2299,-377 2299,-383 2299,-383 2299,-419 2299,-419 2299,-425 2293,-431 2287,-431 2287,-431 2190,-431 2190,-431 2184,-431 2178,-425 2178,-419 2178,-419 2178,-383 2178,-383 2178,-377 2184,-371 2190,-371"/>
<text text-anchor="middle" x="2238.5" y="-418.2" font-family="Fira Mono" font-size="11.00">ind: 13</text>
<polyline fill="none" stroke="#d66d66" points="2178,-411 2299,-411 "/>
<text text-anchor="middle" x="2238.5" y="-398.2" font-family="Fira Mono" font-size="11.00">val: &#45;100</text>
<polyline fill="none" stroke="#d66d66" points="2178,-391 2299,-391 "/>
<text text-anchor="middle" x="2207.5" y="-378.2" font-family="Fira Mono" font-size="11.00">prev: &#45;1</text>
<polyline fill="none" stroke="#d66d66" points="2237,-371 2237,-391 "/>
<text text-anchor="middle" x="2268" y="-378.2" font-family="Fira Mono" font-size="11.00">next: 14</text>
</g>
<!-- node_12&#45;&gt;node_13 -->
<!-- node_12&#45;&gt;node_13 -->
<g id="edge21" class="edge">
<title>node_12&#45;&gt;node_13</title>
<path fill="none" stroke="#d88d88" stroke-dasharray="5,2" d="M2124.22,-411.17C2124.22,-411.17 2167.89,-411.17 2167.89,-411.17"/>
<polygon fill="#d88d88" stroke="#d88d88" points="2167.89,-414.67 2177.89,-411.17 2167.89,-407.67 2167.89,-414.67"/>
</g>
<!-- node_14 -->
<g id="node15" class="node">
<title>node_14</title>
<path fill="#ffecec" stroke="#d66d66" d="M2365,-371C2365,-371 2462,-371 2462,-371 2468,-371 2474,-377 2474,-383 2474,-383 2474,-419 2474,-419 2474,-425 2468,-431 2462,-431 2462,-431 2365,-431 2365,-431 2359,-431 2353,-425 2353,-419 2353,-419 2353,-383 2353,-383 2353,-377 2359,-371 2365,-371"/>
<text text-anchor="middle" x="2413.5" y="-418.2" font-family="Fira Mono" font-size="11.00">ind: 14</text>
<polyline fill="none" stroke="#d66d66" points="2353,-411 2474,-411 "/>
<text text-anchor="middle" x="2413.5" y="-398.2" font-family="Fira Mono" font-size="11.00">val: &#45;100</text>
<polyline fill="none" stroke="#d66d66" points="2353,-391 2474,-391 "/>
<text text-anchor="middle" x="2382.5" y="-378.2" font-family="Fira Mono" font-size="11.00">prev: &#45;1</text>
<polyline fill="none" stroke="#d66d66" points="2412,-371 2412,-391 "/>
<text text-anchor="middle" x="2443" y="-378.2" font-family="Fira Mono" font-size="11.00">next: 15</text>
</g>
<!-- node_13&#45;&gt;node_14 -->
<!-- node_13&#45;&gt;node_14 -->
<g id="edge22" class="edge">
<title>node_13&#45;&gt;node_14</title>
<path fill="none" stroke="#d88d88" stroke-dasharray="5,2" d="M2299.22,-411.17C2299.22,-411.17 2342.89,-411.17 2342.89,-411.17"/>
<polygon fill="#d88d88" stroke="#d88d88" points="2342.89,-414.67 2352.89,-411.17 2342.89,-407.67 2342.89,-414.67"/>
</g>
<!-- node_15 -->
<g id="node16" class="node">
<title>node_15</title>
<path fill="#ffecec" stroke="#d66d66" d="M2540,-371C2540,-371 2637,-371 2637,-371 2643,-371 2649,-377 2649,-383 2649,-383 2649,-419 2649,-419 2649,-425 2643,-431 2637,-431 2637,-431 2540,-431 2540,-431 2534,-431 2528,-425 2528,-419 2528,-419 2528,-383 2528,-383 2528,-377 2534,-371 2540,-371"/>
<text text-anchor="middle" x="2588.5" y="-418.2" font-family="Fira Mono" font-size="11.00">ind: 15</text>
<polyline fill="none" stroke="#d66d66" points="2528,-411 2649,-411 "/>
<text text-anchor="middle" x="2588.5" y="-398.2" font-family="Fira Mono" font-size="11.00">val: &#45;100</text>
<polyline fill="none" stroke="#d66d66" points="2528,-391 2649,-391 "/>
<text text-anchor="middle" x="2557.5" y="-378.2" font-family="Fira Mono" font-size="11.00">prev: &#45;1</text>
<polyline fill="none" stroke="#d66d66" points="2587,-371 2587,-391 "/>
<text text-anchor="middle" x="2618" y="-378.2" font-family="Fira Mono" font-size="11.00">next: 16</text>
</g>
<!-- node_14&#45;&gt;node_15 -->
<!-- node_14&#45;&gt;node_15 -->
<g id="edge23" class="edge">
<title>node_14&#45;&gt;node_15</title>
<path fill="none" stroke="#d88d88" stroke-dasharray="5,2" d="M2474.22,-411.17C2474.22,-411.17 2517.89,-411.17 2517.89,-411.17"/>
<polygon fill="#d88d88" stroke="#d88d88" points="2517.89,-414.67 2527.89,-411.17 2517.89,-407.67 2517.89,-414.67"/>
</g>
<!-- node_16 -->
<g id="node17" class="node">
<title>node_16</title>
<path fill="#ffecec" stroke="#d66d66" d="M2715,-371C2715,-371 2812,-371 2812,-371 2818,-371 2824,-377 2824,-383 2824,-383 2824,-419 2824,-419 2824,-425 2818,-431 2812,-431 2812,-431 2715,-431 2715,-431 2709,-431 2703,-425 2703,-419 2703,-419 2703,-383 2703,-383 2703,-377 2709,-371 2715,-371"/>
<text text-anchor="middle" x="2763.5" y="-418.2" font-family="Fira Mono" font-size="11.00">ind: 16</text>
<polyline fill="none" stroke="#d66d66" points="2703,-411 2824,-411 "/>
<text text-anchor="middle" x="2763.5" y="-398.2" font-family="Fira Mono" font-size="11.00">val: &#45;100</text>
<polyline fill="none" stroke="#d66d66" points="2703,-391 2824,-391 "/>
<text text-anchor="middle" x="2732.5" y="-378.2" font-family="Fira Mono" font-size="11.00">prev: &#45;1</text>
<polyline fill="none" stroke="#d66d66" points="2762,-371 2762,-391 "/>
<text text-anchor="middle" x="2793" y="-378.2" font-family="Fira Mono" font-size="11.00">next: 17</text>
</g>
<!-- node_15&#45;&gt;node_16 -->
<!-- node_15&#45;&gt;node_16 -->
<g id="edge24" class="edge">
<title>node_15&#45;&gt;node_16</title>
<path fill="none" stroke="#d88d88" stroke-dasharray="5,2" d="M2649.22,-411.17C2649.22,-411.17 2692.89,-411.17 2692.89,-411.17"/>
<polygon fill="#d88d88" stroke="#d88d88" points="2692.89,-414.67 2702.89,-411.17 2692.89,-407.67 2692.89,-414.67"/>
</g>
<!-- node_17 -->
<g id="node18" class="node">
<title>node_17</title>
<path fill="#ffecec" stroke="#d66d66" d="M2890,-371C2890,-371 2987,-371 2987,-371 2993,-371 2999,-377 2999,-383 2999,-383 2999,-419 2999,-419 2999,-425 2993,-431 2987,-431 2987,-431 2890,-431 2890,-431 2884,-431 2878,-425 2878,-419 2878,-419 2878,-383 2878,-383 2878,-377 2884,-371 2890,-371"/>
<text text-anchor="middle" x="2938.5" y="-418.2" font-family="Fira Mono" font-size="11.00">ind: 17</text>
<polyline fill="none" stroke="#d66d66" points="2878,-411 2999,-411 "/>
<text text-anchor="middle" x="2938.5" y="-398.2" font-family="Fira Mono" font-size="11.00">val: &#45;100</text>
<polyline fill="none" stroke="#d66d66" points="2878,-391 2999,-391 "/>
<text text-anchor="middle" x="2907.5" y="-378.2" font-family="Fira Mono" font-size="11.00">prev: &#45;1</text>
<polyline fill="none" stroke="#d66d66" points="2937,-371 2937,-391 "/>
<text text-anchor="middle" x="2968" y="-378.2" font-family="Fira Mono" font-size="11.00">next: 18</text>
</g>
<!-- node_16&#45;&gt;node_17 -->
<!-- node_16&#45;&gt;node_17 -->
<g id="edge25" class="edge">
<title>node_16&#45;&gt;node_17</title>
<path fill="none" stroke="#d88d88" stroke-dasharray="5,2" d="M2824.22,-411.17C2824.22,-411.17 2867.89,-411.17 2867.89,-411.17"/>
<polygon fill="#d88d88" stroke="#d88d88" points="2867.89,-414.67 2877.89,-411.17 2867.89,-407.67 2867.89,-414.67"/>
</g>
<!-- node_18 -->
<g id="node19" class="node">
<title>node_18</title>
<path fill="#ffecec" stroke="#d66d66" d="M3065,-371C3065,-371 3162,-371 3162,-371 3168,-371 3174,-377 3174,-383 3174,-383 3174,-419 3174,-419 3174,-425 3168,-431 3162,-431 3162,-431 3065,-431 3065,-431 3059,-431 3053,-425 3053,-419 3053,-419 3053,-383 3053,-383 3053,-377 3059,-371 3065,-371"/>
<text text-anchor="middle" x="3113.5" y="-418.2" font-family="Fira Mono" font-size="11.00">ind: 18</text>
<polyline fill="none" stroke="#d66d66" points="3053,-411 3174,-411 "/>
<text text-anchor="middle" x="3113.5" y="-398.2" font-family="Fira Mono" font-size="11.00">val: &#45;100</text>
<polyline fill="none" stroke="#d66d66" points="3053,-391 3174,-391 "/>
<text text-anchor="middle" x="3082.5" y="-378.2" font-family="Fira Mono" font-size="11.00">prev: &#45;1</text>
<polyline fill="none" stroke="#d66d66" points="3112,-371 3112,-391 "/>
<text text-anchor="middle" x="3143" y="-378.2" font-family="Fira Mono" font-size="11.00">next: 19</text>
</g>
<!-- node_17&#45;&gt;node_18 -->
<!-- node_17&#45;&gt;node_18 -->
<g id="edge26" class="edge">
<title>node_17&#45;&gt;node_18</title>
<path fill="none" stroke="#d88d88" stroke-dasharray="5,2" d="M2999.22,-411.17C2999.22,-411.17 3042.89,-411.17 3042.89,-411.17"/>
<polygon fill="#d88d88" stroke="#d88d88" points="3042.89,-414.67 3052.89,-411.17 3042.89,-407.67 3042.89,-414.67"/>
</g>
<!-- node_19 -->
<g id="node20" class="node">
<title>node_19</title>
<path fill="#ffecec" stroke="#d66d66" d="M3240,-371C3240,-371 3334,-371 3334,-371 3340,-371 3346,-377 3346,-383 3346,-383 3346,-419 3346,-419 3346,-425 3340,-431 3334,-431 3334,-431 3240,-431 3240,-431 3234,-431 3228,-425 3228,-419 3228,-419 3228,-383 3228,-383 3228,-377 3234,-371 3240,-371"/>
<text text-anchor="middle" x="3287" y="-418.2" font-family="Fira Mono" font-size="11.00">ind: 19</text>
<polyline fill="none" stroke="#d66d66" points="3228,-411 3346,-411 "/>
<text text-anchor="middle" x="3287" y="-398.2" font-family="Fira Mono" font-size="11.00">val: &#45;100</text>
<polyline fill="none" stroke="#d66d66" points="3228,-391 3346,-391 "/>
<text text-anchor="middle" x="3257.5" y="-378.2" font-family="Fira Mono" font-size="11.00">prev: &#45;1</text>
<polyline fill="none" stroke="#d66d66" points="3287,-371 3287,-391 "/>
<text text-anchor="middle" x="3316.5" y="-378.2" font-family="Fira Mono" font-size="11.00">next: &#45;1</text>
</g>
<!-- node_18&#45;&gt;node_19 -->
<!-- node_18&#45;&gt;node_19 -->
<g id="edge27" class="edge">
<title>node_18&#45;&gt;node_19</title>
<path fill="none" stroke="#d88d88" stroke-dasharray="5,2" d="M3174.18,-411.17C3174.18,-411.17 3217.81,-411.17 3217.81,-411.17"/>
<polygon fill="#d88d88" stroke="#d88d88" points="3217.81,-414.67 3227.81,-411.17 3217.81,-407.67 3217.81,-414.67"/>
</g>
<!-- node_free -->
<g id="node21" class="node">
<title>node_free</title>
<path fill="#ffecec" stroke="#d66d66" d="M79,-36C79,-36 32,-36 32,-36 26,-36 20,-30 20,-24 20,-24 20,-12 20,-12 20,-6 26,0 32,0 32,0 79,0 79,0 85,0 91,-6 91,-12 91,-12 91,-24 91,-24 91,-30 85,-36 79,-36"/>
<text text-anchor="middle" x="55.5" y="-15.2" font-family="Fira Mono" font-size="11.00">free_head</text>
</g>
<!-- node_free&#45;&gt;node_11 -->
<g id="edge39" class="edge">
<title>node_free&#45;&gt;node_11</title>
<path fill="none" stroke="#d88d88" stroke-dasharray="5,2" d="M91.3,-18C347.26,-18 1889,-18 1889,-18 1889,-18 1889,-360.95 1889,-360.95"/>
<polygon fill="#d88d88" stroke="#d88d88" points="1885.5,-360.95 1889,-370.95 1892.5,-360.95 1885.5,-360.95"/>
</g>
</g>
</svg>
