<?xml version="1.0" encoding="UTF-8" standalone="no"?>
<!DOCTYPE svg PUBLIC "-//W3C//DTD SVG 1.1//EN"
 "http://www.w3.org/Graphics/SVG/1.1/DTD/svg11.dtd">
<!-- Generated by graphviz version 2.43.0 (0)
 -->
<!-- Title: G Pages: 1 -->
<svg width="380pt" height="306pt"
 viewBox="0.00 0.00 380.00 306.49" xmlns="http://www.w3.org/2000/svg" xmlns:xlink="http://www.w3.org/1999/xlink">
<g id="graph0" class="graph" transform="scale(1 1) rotate(-90) translate(-302.49 376)">
<title>G</title>
<polygon fill="white" stroke="transparent" points="-4,4 -4,-376 302.49,-376 302.49,4 -4,4"/>
<!-- node0 -->
<g id="node1" class="node">
<title>node0</title>
<path fill="lightblue" stroke="black" stroke-width="3" d="M286.49,-372C286.49,-372 146.49,-372 146.49,-372 140.49,-372 134.49,-366 134.49,-360 134.49,-360 134.49,-324 134.49,-324 134.49,-318 140.49,-312 146.49,-312 146.49,-312 286.49,-312 286.49,-312 292.49,-312 298.49,-318 298.49,-324 298.49,-324 298.49,-360 298.49,-360 298.49,-366 292.49,-372 286.49,-372"/>
<text text-anchor="middle" x="216.49" y="-358.4" font-family="Times,serif" font-size="12.00">index: 0</text>
<text text-anchor="middle" x="216.49" y="-345.4" font-family="Times,serif" font-size="12.00">next: 1</text>
<text text-anchor="middle" x="216.49" y="-332.4" font-family="Times,serif" font-size="12.00">value: 2</text>
<text text-anchor="middle" x="216.49" y="-319.4" font-family="Times,serif" font-size="12.00">prev: 140733073542272</text>
</g>
<!-- node1 -->
<g id="node2" class="node">
<title>node1</title>
<path fill="lightgreen" stroke="blue" stroke-width="3" d="M286.49,-216C286.49,-216 146.49,-216 146.49,-216 140.49,-216 134.49,-210 134.49,-204 134.49,-204 134.49,-168 134.49,-168 134.49,-162 140.49,-156 146.49,-156 146.49,-156 286.49,-156 286.49,-156 292.49,-156 298.49,-162 298.49,-168 298.49,-168 298.49,-204 298.49,-204 298.49,-210 292.49,-216 286.49,-216"/>
<text text-anchor="middle" x="216.49" y="-202.4" font-family="Times,serif" font-size="12.00">index: 1</text>
<text text-anchor="middle" x="216.49" y="-189.4" font-family="Times,serif" font-size="12.00">next: 2</text>
<text text-anchor="middle" x="216.49" y="-176.4" font-family="Times,serif" font-size="12.00">value: 0</text>
<text text-anchor="middle" x="216.49" y="-163.4" font-family="Times,serif" font-size="12.00">prev: 140733073542272</text>
</g>
<!-- node0&#45;&gt;node1 -->
<!-- node0&#45;&gt;node1 -->
<g id="edge5" class="edge">
<title>node0&#45;&gt;node1</title>
<path fill="none" stroke="green" d="M134.25,-314.89C124.81,-308.5 116.45,-300.64 110.49,-291 97.88,-270.58 97.88,-257.42 110.49,-237 114.68,-230.22 120.06,-224.32 126.16,-219.2"/>
<polygon fill="green" stroke="green" points="128.36,-221.92 134.25,-213.11 124.15,-216.33 128.36,-221.92"/>
</g>
<!-- node2 -->
<g id="node3" class="node">
<title>node2</title>
<path fill="lightgreen" stroke="orange" stroke-width="3" d="M286.49,-294C286.49,-294 146.49,-294 146.49,-294 140.49,-294 134.49,-288 134.49,-282 134.49,-282 134.49,-246 134.49,-246 134.49,-240 140.49,-234 146.49,-234 146.49,-234 286.49,-234 286.49,-234 292.49,-234 298.49,-240 298.49,-246 298.49,-246 298.49,-282 298.49,-282 298.49,-288 292.49,-294 286.49,-294"/>
<text text-anchor="middle" x="216.49" y="-280.4" font-family="Times,serif" font-size="12.00">index: 2</text>
<text text-anchor="middle" x="216.49" y="-267.4" font-family="Times,serif" font-size="12.00">next: 0</text>
<text text-anchor="middle" x="216.49" y="-254.4" font-family="Times,serif" font-size="12.00">value: 1</text>
<text text-anchor="middle" x="216.49" y="-241.4" font-family="Times,serif" font-size="12.00">prev: 140733073542272</text>
</g>
<!-- node0&#45;&gt;node2 -->
<g id="edge8" class="edge">
<title>node0&#45;&gt;node2</title>
<path fill="none" stroke="blue" stroke-dasharray="5,2" d="M216.49,-311.73C216.49,-309.26 216.49,-306.79 216.49,-304.32"/>
<polygon fill="blue" stroke="blue" points="219.99,-304.16 216.49,-294.16 212.99,-304.16 219.99,-304.16"/>
</g>
<!-- node1&#45;&gt;node2 -->
<!-- node1&#45;&gt;node2 -->
<g id="edge6" class="edge">
<title>node1&#45;&gt;node2</title>
<path fill="none" stroke="green" d="M216.49,-216.16C216.49,-218.63 216.49,-221.1 216.49,-223.57"/>
<polygon fill="green" stroke="green" points="212.99,-223.73 216.49,-233.73 219.99,-223.73 212.99,-223.73"/>
</g>
<!-- node2&#45;&gt;node1 -->
<g id="edge9" class="edge">
<title>node2&#45;&gt;node1</title>
<path fill="none" stroke="blue" stroke-dasharray="5,2" d="M158.07,-233.73C156.2,-231.08 155.18,-228.42 155.02,-225.77"/>
<polygon fill="blue" stroke="blue" points="158.38,-226.76 158.15,-216.16 151.72,-224.59 158.38,-226.76"/>
</g>
<!-- node3 -->
<g id="node4" class="node">
<title>node3</title>
<path fill="lightcoral" stroke="green" stroke-width="3" d="M286.49,-138C286.49,-138 146.49,-138 146.49,-138 140.49,-138 134.49,-132 134.49,-126 134.49,-126 134.49,-90 134.49,-90 134.49,-84 140.49,-78 146.49,-78 146.49,-78 286.49,-78 286.49,-78 292.49,-78 298.49,-84 298.49,-90 298.49,-90 298.49,-126 298.49,-126 298.49,-132 292.49,-138 286.49,-138"/>
<text text-anchor="middle" x="216.49" y="-124.4" font-family="Times,serif" font-size="12.00">index: 3</text>
<text text-anchor="middle" x="216.49" y="-111.4" font-family="Times,serif" font-size="12.00">next: 4</text>
<text text-anchor="middle" x="216.49" y="-98.4" font-family="Times,serif" font-size="12.00">value: &#45;1</text>
<text text-anchor="middle" x="216.49" y="-85.4" font-family="Times,serif" font-size="12.00">prev: 140733073542272</text>
</g>
<!-- node2&#45;&gt;node3 -->
<!-- node4 -->
<g id="node5" class="node">
<title>node4</title>
<path fill="lightcoral" stroke="black" stroke-width="3" d="M286.49,-60C286.49,-60 146.49,-60 146.49,-60 140.49,-60 134.49,-54 134.49,-48 134.49,-48 134.49,-12 134.49,-12 134.49,-6 140.49,0 146.49,0 146.49,0 286.49,0 286.49,0 292.49,0 298.49,-6 298.49,-12 298.49,-12 298.49,-48 298.49,-48 298.49,-54 292.49,-60 286.49,-60"/>
<text text-anchor="middle" x="216.49" y="-46.4" font-family="Times,serif" font-size="12.00">index: 4</text>
<text text-anchor="middle" x="216.49" y="-33.4" font-family="Times,serif" font-size="12.00">next: 4294967295</text>
<text text-anchor="middle" x="216.49" y="-20.4" font-family="Times,serif" font-size="12.00">value: &#45;1</text>
<text text-anchor="middle" x="216.49" y="-7.4" font-family="Times,serif" font-size="12.00">prev: 140733073542272</text>
</g>
<!-- node3&#45;&gt;node4 -->
<!-- node3&#45;&gt;node4 -->
<g id="edge7" class="edge">
<title>node3&#45;&gt;node4</title>
<path fill="none" stroke="red" stroke-width="3" d="M216.49,-77.73C216.49,-75.26 216.49,-72.79 216.49,-70.32"/>
<polygon fill="red" stroke="red" stroke-width="3" points="219.99,-70.16 216.49,-60.16 212.99,-70.16 219.99,-70.16"/>
</g>
<!-- node3&#45;&gt;node4 -->
<g id="edge10" class="edge">
<title>node3&#45;&gt;node4</title>
<path fill="none" stroke="gray" stroke-dasharray="1,5" d="M158.07,-77.73C156.2,-75.08 155.18,-72.42 155.02,-69.77"/>
<polygon fill="gray" stroke="gray" points="158.38,-70.76 158.15,-60.16 151.72,-68.59 158.38,-70.76"/>
</g>
<!-- null_elem -->
<g id="node6" class="node">
<title>null_elem</title>
<ellipse fill="lightgray" stroke="black" cx="49.25" cy="-342" rx="32.75" ry="18"/>
<text text-anchor="middle" x="49.25" y="-338.9" font-family="Times,serif" font-size="12.00">NULL</text>
</g>
<!-- null_elem&#45;&gt;node0 -->
<g id="edge11" class="edge">
<title>null_elem&#45;&gt;node0</title>
<path fill="none" stroke="brown" d="M82.11,-342C94.3,-342 108.9,-342 123.9,-342"/>
<polygon fill="brown" stroke="brown" points="124.32,-345.5 134.32,-342 124.32,-338.5 124.32,-345.5"/>
</g>
<!-- free_head -->
<g id="node7" class="node">
<title>free_head</title>
<ellipse fill="lightgray" stroke="black" cx="49.25" cy="-108" rx="49.5" ry="18"/>
<text text-anchor="middle" x="49.25" y="-104.9" font-family="Times,serif" font-size="12.00">Free Head</text>
</g>
<!-- free_head&#45;&gt;node3 -->
<g id="edge12" class="edge">
<title>free_head&#45;&gt;node3</title>
<path fill="none" stroke="green" d="M98.93,-108C106.94,-108 115.46,-108 124.11,-108"/>
<polygon fill="green" stroke="green" points="124.3,-111.5 134.3,-108 124.3,-104.5 124.3,-111.5"/>
</g>
<!-- list_head -->
<g id="node8" class="node">
<title>list_head</title>
<ellipse fill="lightblue" stroke="black" cx="49.25" cy="-186" rx="46.34" ry="18"/>
<text text-anchor="middle" x="49.25" y="-182.9" font-family="Times,serif" font-size="12.00">List Head</text>
</g>
<!-- list_head&#45;&gt;node1 -->
<g id="edge13" class="edge">
<title>list_head&#45;&gt;node1</title>
<path fill="none" stroke="blue" d="M95.84,-186C104.7,-186 114.28,-186 124.03,-186"/>
<polygon fill="blue" stroke="blue" points="124.22,-189.5 134.22,-186 124.22,-182.5 124.22,-189.5"/>
</g>
<!-- list_tail -->
<g id="node9" class="node">
<title>list_tail</title>
<ellipse fill="orange" stroke="black" cx="49.25" cy="-264" rx="40.03" ry="18"/>
<text text-anchor="middle" x="49.25" y="-260.9" font-family="Times,serif" font-size="12.00">List Tail</text>
</g>
<!-- list_tail&#45;&gt;node2 -->
<g id="edge14" class="edge">
<title>list_tail&#45;&gt;node2</title>
<path fill="none" stroke="orange" d="M89.41,-264C100,-264 111.92,-264 124.09,-264"/>
<polygon fill="orange" stroke="orange" points="124.36,-267.5 134.36,-264 124.36,-260.5 124.36,-267.5"/>
</g>
</g>
</svg>
