<?xml version="1.0" encoding="UTF-8" standalone="no"?>
<!DOCTYPE svg PUBLIC "-//W3C//DTD SVG 1.1//EN"
 "http://www.w3.org/Graphics/SVG/1.1/DTD/svg11.dtd">
<!-- Generated by graphviz version 2.43.0 (0)
 -->
<!-- Title: G Pages: 1 -->
<svg width="1978pt" height="199pt"
 viewBox="0.00 0.00 1978.00 199.30" xmlns="http://www.w3.org/2000/svg" xmlns:xlink="http://www.w3.org/1999/xlink">
<g id="graph0" class="graph" transform="scale(1 1) rotate(0) translate(4 195.3)">
<title>G</title>
<polygon fill="white" stroke="transparent" points="-4,4 -4,-195.3 1974,-195.3 1974,4 -4,4"/>
<!-- node_0 -->
<g id="node1" class="node">
<title>node_0</title>
<path fill="#e9f2ff" stroke="#6b8fd6" stroke-width="2" d="M12,-102C12,-102 106,-102 106,-102 112,-102 118,-108 118,-114 118,-114 118,-150 118,-150 118,-156 112,-162 106,-162 106,-162 12,-162 12,-162 6,-162 0,-156 0,-150 0,-150 0,-114 0,-114 0,-108 6,-102 12,-102"/>
<text text-anchor="middle" x="59" y="-149.2" font-family="Fira Mono" font-size="11.00">ind: 0</text>
<polyline fill="none" stroke="#6b8fd6" stroke-width="2" points="0,-142 118,-142 "/>
<text text-anchor="middle" x="59" y="-129.2" font-family="Fira Mono" font-size="11.00">val: 10101</text>
<polyline fill="none" stroke="#6b8fd6" stroke-width="2" points="0,-122 118,-122 "/>
<text text-anchor="middle" x="31" y="-109.2" font-family="Fira Mono" font-size="11.00">prev: 11</text>
<polyline fill="none" stroke="#6b8fd6" stroke-width="2" points="62,-102 62,-122 "/>
<text text-anchor="middle" x="90" y="-109.2" font-family="Fira Mono" font-size="11.00">next: 2</text>
</g>
<!-- node_1 -->
<g id="node2" class="node">
<title>node_1</title>
<path fill="#ffecec" stroke="#d66d66" d="M184,-102C184,-102 275,-102 275,-102 281,-102 287,-108 287,-114 287,-114 287,-150 287,-150 287,-156 281,-162 275,-162 275,-162 184,-162 184,-162 178,-162 172,-156 172,-150 172,-150 172,-114 172,-114 172,-108 178,-102 184,-102"/>
<text text-anchor="middle" x="229.5" y="-149.2" font-family="Fira Mono" font-size="11.00">ind: 1</text>
<polyline fill="none" stroke="#d66d66" points="172,-142 287,-142 "/>
<text text-anchor="middle" x="229.5" y="-129.2" font-family="Fira Mono" font-size="11.00">val: &#45;100</text>
<polyline fill="none" stroke="#d66d66" points="172,-122 287,-122 "/>
<text text-anchor="middle" x="201.5" y="-109.2" font-family="Fira Mono" font-size="11.00">prev: &#45;1</text>
<polyline fill="none" stroke="#d66d66" points="231,-102 231,-122 "/>
<text text-anchor="middle" x="259" y="-109.2" font-family="Fira Mono" font-size="11.00">next: 6</text>
</g>
<!-- node_0&#45;&gt;node_1 -->
<!-- node_2 -->
<g id="node3" class="node">
<title>node_2</title>
<path fill="#e9fbf5" stroke="#5aa99b" d="M353,-102C353,-102 440,-102 440,-102 446,-102 452,-108 452,-114 452,-114 452,-150 452,-150 452,-156 446,-162 440,-162 440,-162 353,-162 353,-162 347,-162 341,-156 341,-150 341,-150 341,-114 341,-114 341,-108 347,-102 353,-102"/>
<text text-anchor="middle" x="396.5" y="-149.2" font-family="Fira Mono" font-size="11.00">ind: 2 (HEAD)</text>
<polyline fill="none" stroke="#5aa99b" points="341,-142 452,-142 "/>
<text text-anchor="middle" x="396.5" y="-129.2" font-family="Fira Mono" font-size="11.00">val: 40</text>
<polyline fill="none" stroke="#5aa99b" points="341,-122 452,-122 "/>
<text text-anchor="middle" x="368.5" y="-109.2" font-family="Fira Mono" font-size="11.00">prev: 0</text>
<polyline fill="none" stroke="#5aa99b" points="396,-102 396,-122 "/>
<text text-anchor="middle" x="424" y="-109.2" font-family="Fira Mono" font-size="11.00">next: 3</text>
</g>
<!-- node_0&#45;&gt;node_2 -->
<g id="edge13" class="edge">
<title>node_0&#45;&gt;node_2</title>
<path fill="none" stroke="#999999" d="M111,-91.86C111,-91.86 111,-79.67 111,-79.67 111,-79.67 397,-79.67 397,-79.67 397,-79.67 397,-91.86 397,-91.86"/>
<polygon fill="#999999" stroke="#999999" points="107.5,-91.86 111,-101.86 114.5,-91.86 107.5,-91.86"/>
<polygon fill="#999999" stroke="#999999" points="393.5,-91.86 397,-101.86 400.5,-91.86 393.5,-91.86"/>
</g>
<!-- node_1&#45;&gt;node_2 -->
<!-- node_6 -->
<g id="node7" class="node">
<title>node_6</title>
<path fill="#ffecec" stroke="#d66d66" d="M1020,-102C1020,-102 1114,-102 1114,-102 1120,-102 1126,-108 1126,-114 1126,-114 1126,-150 1126,-150 1126,-156 1120,-162 1114,-162 1114,-162 1020,-162 1020,-162 1014,-162 1008,-156 1008,-150 1008,-150 1008,-114 1008,-114 1008,-108 1014,-102 1020,-102"/>
<text text-anchor="middle" x="1067" y="-149.2" font-family="Fira Mono" font-size="11.00">ind: 6</text>
<polyline fill="none" stroke="#d66d66" points="1008,-142 1126,-142 "/>
<text text-anchor="middle" x="1067" y="-129.2" font-family="Fira Mono" font-size="11.00">val: &#45;100</text>
<polyline fill="none" stroke="#d66d66" points="1008,-122 1126,-122 "/>
<text text-anchor="middle" x="1039" y="-109.2" font-family="Fira Mono" font-size="11.00">prev: 10</text>
<polyline fill="none" stroke="#d66d66" points="1070,-102 1070,-122 "/>
<text text-anchor="middle" x="1098" y="-109.2" font-family="Fira Mono" font-size="11.00">next: 4</text>
</g>
<!-- node_1&#45;&gt;node_6 -->
<g id="edge12" class="edge">
<title>node_1&#45;&gt;node_6</title>
<path fill="none" stroke="#d88d88" stroke-dasharray="5,2" d="M230,-162C230,-173.59 230,-184.1 230,-184.1 230,-184.1 1038,-184.1 1038,-184.1 1038,-184.1 1038,-172 1038,-172"/>
<polygon fill="#d88d88" stroke="#d88d88" points="1041.5,-172 1038,-162 1034.5,-172 1041.5,-172"/>
</g>
<!-- node_3 -->
<g id="node4" class="node">
<title>node_3</title>
<path fill="#fff3e0" stroke="#000000" d="M518,-102C518,-102 605,-102 605,-102 611,-102 617,-108 617,-114 617,-114 617,-150 617,-150 617,-156 611,-162 605,-162 605,-162 518,-162 518,-162 512,-162 506,-156 506,-150 506,-150 506,-114 506,-114 506,-108 512,-102 518,-102"/>
<text text-anchor="middle" x="561.5" y="-149.2" font-family="Fira Mono" font-size="11.00">ind: 3</text>
<polyline fill="none" stroke="#000000" points="506,-142 617,-142 "/>
<text text-anchor="middle" x="561.5" y="-129.2" font-family="Fira Mono" font-size="11.00">val: 2</text>
<polyline fill="none" stroke="#000000" points="506,-122 617,-122 "/>
<text text-anchor="middle" x="533.5" y="-109.2" font-family="Fira Mono" font-size="11.00">prev: 2</text>
<polyline fill="none" stroke="#000000" points="561,-102 561,-122 "/>
<text text-anchor="middle" x="589" y="-109.2" font-family="Fira Mono" font-size="11.00">next: 4</text>
</g>
<!-- node_2&#45;&gt;node_3 -->
<!-- node_2&#45;&gt;node_3 -->
<g id="edge14" class="edge">
<title>node_2&#45;&gt;node_3</title>
<path fill="none" stroke="#999999" d="M462.36,-142.17C462.36,-142.17 495.98,-142.17 495.98,-142.17"/>
<polygon fill="#999999" stroke="#999999" points="495.98,-145.67 505.98,-142.17 495.98,-138.67 495.98,-145.67"/>
<polygon fill="#999999" stroke="#999999" points="462.36,-138.67 452.36,-142.17 462.36,-145.67 462.36,-138.67"/>
</g>
<!-- node_4 -->
<g id="node5" class="node">
<title>node_4</title>
<path fill="#fff3e0" stroke="#000000" d="M683,-102C683,-102 770,-102 770,-102 776,-102 782,-108 782,-114 782,-114 782,-150 782,-150 782,-156 776,-162 770,-162 770,-162 683,-162 683,-162 677,-162 671,-156 671,-150 671,-150 671,-114 671,-114 671,-108 677,-102 683,-102"/>
<text text-anchor="middle" x="726.5" y="-149.2" font-family="Fira Mono" font-size="11.00">ind: 4</text>
<polyline fill="none" stroke="#000000" points="671,-142 782,-142 "/>
<text text-anchor="middle" x="726.5" y="-129.2" font-family="Fira Mono" font-size="11.00">val: 20</text>
<polyline fill="none" stroke="#000000" points="671,-122 782,-122 "/>
<text text-anchor="middle" x="698.5" y="-109.2" font-family="Fira Mono" font-size="11.00">prev: 3</text>
<polyline fill="none" stroke="#000000" points="726,-102 726,-122 "/>
<text text-anchor="middle" x="754" y="-109.2" font-family="Fira Mono" font-size="11.00">next: 7</text>
</g>
<!-- node_3&#45;&gt;node_4 -->
<!-- node_3&#45;&gt;node_4 -->
<g id="edge15" class="edge">
<title>node_3&#45;&gt;node_4</title>
<path fill="none" stroke="#999999" d="M627.36,-142.17C627.36,-142.17 660.98,-142.17 660.98,-142.17"/>
<polygon fill="#999999" stroke="#999999" points="660.98,-145.67 670.98,-142.17 660.98,-138.67 660.98,-145.67"/>
<polygon fill="#999999" stroke="#999999" points="627.36,-138.67 617.36,-142.17 627.36,-145.67 627.36,-138.67"/>
</g>
<!-- node_5 -->
<g id="node6" class="node">
<title>node_5</title>
<path fill="#ffecec" stroke="#d66d66" d="M848,-102C848,-102 942,-102 942,-102 948,-102 954,-108 954,-114 954,-114 954,-150 954,-150 954,-156 948,-162 942,-162 942,-162 848,-162 848,-162 842,-162 836,-156 836,-150 836,-150 836,-114 836,-114 836,-108 842,-102 848,-102"/>
<text text-anchor="middle" x="895" y="-149.2" font-family="Fira Mono" font-size="11.00">ind: 5</text>
<polyline fill="none" stroke="#d66d66" points="836,-142 954,-142 "/>
<text text-anchor="middle" x="895" y="-129.2" font-family="Fira Mono" font-size="11.00">val: &#45;100</text>
<polyline fill="none" stroke="#d66d66" points="836,-122 954,-122 "/>
<text text-anchor="middle" x="865.5" y="-109.2" font-family="Fira Mono" font-size="11.00">prev: &#45;1</text>
<polyline fill="none" stroke="#d66d66" points="895,-102 895,-122 "/>
<text text-anchor="middle" x="924.5" y="-109.2" font-family="Fira Mono" font-size="11.00">next: &#45;1</text>
</g>
<!-- node_4&#45;&gt;node_5 -->
<!-- node_7 -->
<g id="node8" class="node">
<title>node_7</title>
<path fill="#fff3e0" stroke="#000000" d="M1192,-102C1192,-102 1279,-102 1279,-102 1285,-102 1291,-108 1291,-114 1291,-114 1291,-150 1291,-150 1291,-156 1285,-162 1279,-162 1279,-162 1192,-162 1192,-162 1186,-162 1180,-156 1180,-150 1180,-150 1180,-114 1180,-114 1180,-108 1186,-102 1192,-102"/>
<text text-anchor="middle" x="1235.5" y="-149.2" font-family="Fira Mono" font-size="11.00">ind: 7</text>
<polyline fill="none" stroke="#000000" points="1180,-142 1291,-142 "/>
<text text-anchor="middle" x="1235.5" y="-129.2" font-family="Fira Mono" font-size="11.00">val: 5</text>
<polyline fill="none" stroke="#000000" points="1180,-122 1291,-122 "/>
<text text-anchor="middle" x="1207.5" y="-109.2" font-family="Fira Mono" font-size="11.00">prev: 4</text>
<polyline fill="none" stroke="#000000" points="1235,-102 1235,-122 "/>
<text text-anchor="middle" x="1263" y="-109.2" font-family="Fira Mono" font-size="11.00">next: 8</text>
</g>
<!-- node_4&#45;&gt;node_7 -->
<g id="edge16" class="edge">
<title>node_4&#45;&gt;node_7</title>
<path fill="none" stroke="#999999" d="M708,-172.34C708,-172.34 708,-191.3 708,-191.3 708,-191.3 1236,-191.3 1236,-191.3 1236,-191.3 1236,-172.34 1236,-172.34"/>
<polygon fill="#999999" stroke="#999999" points="711.5,-172.34 708,-162.34 704.5,-172.34 711.5,-172.34"/>
<polygon fill="#999999" stroke="#999999" points="1239.5,-172.34 1236,-162.34 1232.5,-172.34 1239.5,-172.34"/>
</g>
<!-- node_5&#45;&gt;node_6 -->
<!-- node_6&#45;&gt;node_4 -->
<g id="edge17" class="edge">
<title>node_6&#45;&gt;node_4</title>
<path fill="none" stroke="#ff0000" stroke-width="2.2" d="M1067,-162.2C1067,-170.32 1067,-176.9 1067,-176.9 1067,-176.9 745,-176.9 745,-176.9 745,-176.9 745,-172.2 745,-172.2"/>
<polygon fill="#ff0000" stroke="#ff0000" stroke-width="2.2" points="748.5,-172.2 745,-162.2 741.5,-172.2 748.5,-172.2"/>
</g>
<!-- node_6&#45;&gt;node_7 -->
<!-- node_8 -->
<g id="node9" class="node">
<title>node_8</title>
<path fill="#fff3e0" stroke="#000000" d="M1357,-102C1357,-102 1444,-102 1444,-102 1450,-102 1456,-108 1456,-114 1456,-114 1456,-150 1456,-150 1456,-156 1450,-162 1444,-162 1444,-162 1357,-162 1357,-162 1351,-162 1345,-156 1345,-150 1345,-150 1345,-114 1345,-114 1345,-108 1351,-102 1357,-102"/>
<text text-anchor="middle" x="1400.5" y="-149.2" font-family="Fira Mono" font-size="11.00">ind: 8</text>
<polyline fill="none" stroke="#000000" points="1345,-142 1456,-142 "/>
<text text-anchor="middle" x="1400.5" y="-129.2" font-family="Fira Mono" font-size="11.00">val: 4</text>
<polyline fill="none" stroke="#000000" points="1345,-122 1456,-122 "/>
<text text-anchor="middle" x="1372.5" y="-109.2" font-family="Fira Mono" font-size="11.00">prev: 7</text>
<polyline fill="none" stroke="#000000" points="1400,-102 1400,-122 "/>
<text text-anchor="middle" x="1428" y="-109.2" font-family="Fira Mono" font-size="11.00">next: 9</text>
</g>
<!-- node_7&#45;&gt;node_8 -->
<!-- node_7&#45;&gt;node_8 -->
<g id="edge18" class="edge">
<title>node_7&#45;&gt;node_8</title>
<path fill="none" stroke="#999999" d="M1301.36,-142.17C1301.36,-142.17 1334.98,-142.17 1334.98,-142.17"/>
<polygon fill="#999999" stroke="#999999" points="1334.98,-145.67 1344.98,-142.17 1334.98,-138.67 1334.98,-145.67"/>
<polygon fill="#999999" stroke="#999999" points="1301.36,-138.67 1291.36,-142.17 1301.36,-145.67 1301.36,-138.67"/>
</g>
<!-- node_9 -->
<g id="node10" class="node">
<title>node_9</title>
<path fill="#fff3e0" stroke="#000000" d="M1522,-102C1522,-102 1615,-102 1615,-102 1621,-102 1627,-108 1627,-114 1627,-114 1627,-150 1627,-150 1627,-156 1621,-162 1615,-162 1615,-162 1522,-162 1522,-162 1516,-162 1510,-156 1510,-150 1510,-150 1510,-114 1510,-114 1510,-108 1516,-102 1522,-102"/>
<text text-anchor="middle" x="1568.5" y="-149.2" font-family="Fira Mono" font-size="11.00">ind: 9</text>
<polyline fill="none" stroke="#000000" points="1510,-142 1627,-142 "/>
<text text-anchor="middle" x="1568.5" y="-129.2" font-family="Fira Mono" font-size="11.00">val: 5</text>
<polyline fill="none" stroke="#000000" points="1510,-122 1627,-122 "/>
<text text-anchor="middle" x="1537.5" y="-109.2" font-family="Fira Mono" font-size="11.00">prev: 8</text>
<polyline fill="none" stroke="#000000" points="1565,-102 1565,-122 "/>
<text text-anchor="middle" x="1596" y="-109.2" font-family="Fira Mono" font-size="11.00">next: 10</text>
</g>
<!-- node_8&#45;&gt;node_9 -->
<!-- node_8&#45;&gt;node_9 -->
<g id="edge19" class="edge">
<title>node_8&#45;&gt;node_9</title>
<path fill="none" stroke="#999999" d="M1466.44,-142.17C1466.44,-142.17 1499.93,-142.17 1499.93,-142.17"/>
<polygon fill="#999999" stroke="#999999" points="1499.93,-145.67 1509.93,-142.17 1499.93,-138.67 1499.93,-145.67"/>
<polygon fill="#999999" stroke="#999999" points="1466.44,-138.67 1456.44,-142.17 1466.44,-145.67 1466.44,-138.67"/>
</g>
<!-- node_10 -->
<g id="node11" class="node">
<title>node_10</title>
<path fill="#fff3e0" stroke="#000000" d="M1693,-102C1693,-102 1786,-102 1786,-102 1792,-102 1798,-108 1798,-114 1798,-114 1798,-150 1798,-150 1798,-156 1792,-162 1786,-162 1786,-162 1693,-162 1693,-162 1687,-162 1681,-156 1681,-150 1681,-150 1681,-114 1681,-114 1681,-108 1687,-102 1693,-102"/>
<text text-anchor="middle" x="1739.5" y="-149.2" font-family="Fira Mono" font-size="11.00">ind: 10</text>
<polyline fill="none" stroke="#000000" points="1681,-142 1798,-142 "/>
<text text-anchor="middle" x="1739.5" y="-129.2" font-family="Fira Mono" font-size="11.00">val: 4</text>
<polyline fill="none" stroke="#000000" points="1681,-122 1798,-122 "/>
<text text-anchor="middle" x="1708.5" y="-109.2" font-family="Fira Mono" font-size="11.00">prev: 9</text>
<polyline fill="none" stroke="#000000" points="1736,-102 1736,-122 "/>
<text text-anchor="middle" x="1767" y="-109.2" font-family="Fira Mono" font-size="11.00">next: 11</text>
</g>
<!-- node_9&#45;&gt;node_10 -->
<!-- node_9&#45;&gt;node_10 -->
<g id="edge20" class="edge">
<title>node_9&#45;&gt;node_10</title>
<path fill="none" stroke="#999999" d="M1637.35,-142.17C1637.35,-142.17 1670.83,-142.17 1670.83,-142.17"/>
<polygon fill="#999999" stroke="#999999" points="1670.83,-145.67 1680.83,-142.17 1670.83,-138.67 1670.83,-145.67"/>
<polygon fill="#999999" stroke="#999999" points="1637.35,-138.67 1627.35,-142.17 1637.35,-145.67 1637.35,-138.67"/>
</g>
<!-- node_10&#45;&gt;node_6 -->
<g id="edge23" class="edge">
<title>node_10&#45;&gt;node_6</title>
<path fill="none" stroke="#ff0000" stroke-width="2.2" d="M1740,-162.07C1740,-166.55 1740,-169.7 1740,-169.7 1740,-169.7 1097,-169.7 1097,-169.7 1097,-169.7 1097,-168.94 1097,-168.94"/>
<polygon fill="#ff0000" stroke="#ff0000" stroke-width="2.2" points="1100.5,-172.07 1097,-162.07 1093.5,-172.07 1100.5,-172.07"/>
</g>
<!-- node_11 -->
<g id="node12" class="node">
<title>node_11</title>
<path fill="#f1eafd" stroke="#8e6bd6" d="M1864,-102C1864,-102 1958,-102 1958,-102 1964,-102 1970,-108 1970,-114 1970,-114 1970,-150 1970,-150 1970,-156 1964,-162 1958,-162 1958,-162 1864,-162 1864,-162 1858,-162 1852,-156 1852,-150 1852,-150 1852,-114 1852,-114 1852,-108 1858,-102 1864,-102"/>
<text text-anchor="middle" x="1911" y="-149.2" font-family="Fira Mono" font-size="11.00">ind: 11 (TAIL)</text>
<polyline fill="none" stroke="#8e6bd6" points="1852,-142 1970,-142 "/>
<text text-anchor="middle" x="1911" y="-129.2" font-family="Fira Mono" font-size="11.00">val: 3</text>
<polyline fill="none" stroke="#8e6bd6" points="1852,-122 1970,-122 "/>
<text text-anchor="middle" x="1883" y="-109.2" font-family="Fira Mono" font-size="11.00">prev: 10</text>
<polyline fill="none" stroke="#8e6bd6" points="1914,-102 1914,-122 "/>
<text text-anchor="middle" x="1942" y="-109.2" font-family="Fira Mono" font-size="11.00">next: 0</text>
</g>
<!-- node_10&#45;&gt;node_11 -->
<!-- node_10&#45;&gt;node_11 -->
<g id="edge21" class="edge">
<title>node_10&#45;&gt;node_11</title>
<path fill="none" stroke="#999999" d="M1808.04,-142.17C1808.04,-142.17 1841.85,-142.17 1841.85,-142.17"/>
<polygon fill="#999999" stroke="#999999" points="1841.85,-145.67 1851.85,-142.17 1841.85,-138.67 1841.85,-145.67"/>
<polygon fill="#999999" stroke="#999999" points="1808.04,-138.67 1798.04,-142.17 1808.04,-145.67 1808.04,-138.67"/>
</g>
<!-- node_11&#45;&gt;node_0 -->
<g id="edge22" class="edge">
<title>node_11&#45;&gt;node_0</title>
<path fill="none" stroke="#999999" d="M1911,-91.83C1911,-91.83 1911,-57.83 1911,-57.83 1911,-57.83 103,-57.83 103,-57.83 103,-57.83 103,-91.83 103,-91.83"/>
<polygon fill="#999999" stroke="#999999" points="1907.5,-91.83 1911,-101.83 1914.5,-91.83 1907.5,-91.83"/>
<polygon fill="#999999" stroke="#999999" points="99.5,-91.83 103,-101.83 106.5,-91.83 99.5,-91.83"/>
</g>
<!-- node_free -->
<g id="node13" class="node">
<title>node_free</title>
<path fill="#ffecec" stroke="#d66d66" d="M82.5,-36C82.5,-36 35.5,-36 35.5,-36 29.5,-36 23.5,-30 23.5,-24 23.5,-24 23.5,-12 23.5,-12 23.5,-6 29.5,0 35.5,0 35.5,0 82.5,0 82.5,0 88.5,0 94.5,-6 94.5,-12 94.5,-12 94.5,-24 94.5,-24 94.5,-30 88.5,-36 82.5,-36"/>
<text text-anchor="middle" x="59" y="-15.2" font-family="Fira Mono" font-size="11.00">free_head</text>
</g>
<!-- node_free&#45;&gt;node_1 -->
<g id="edge24" class="edge">
<title>node_free&#45;&gt;node_1</title>
<path fill="none" stroke="#d88d88" stroke-dasharray="5,2" d="M94.85,-18C144.99,-18 230,-18 230,-18 230,-18 230,-91.75 230,-91.75"/>
<polygon fill="#d88d88" stroke="#d88d88" points="226.5,-91.75 230,-101.75 233.5,-91.75 226.5,-91.75"/>
</g>
</g>
</svg>
