<?xml version="1.0" encoding="UTF-8" standalone="no"?>
<!DOCTYPE svg PUBLIC "-//W3C//DTD SVG 1.1//EN"
 "http://www.w3.org/Graphics/SVG/1.1/DTD/svg11.dtd">
<!-- Generated by graphviz version 2.43.0 (0)
 -->
<!-- Title: G Pages: 1 -->
<svg width="2015pt" height="299pt"
 viewBox="0.00 0.00 2015.00 298.50" xmlns="http://www.w3.org/2000/svg" xmlns:xlink="http://www.w3.org/1999/xlink">
<g id="graph0" class="graph" transform="scale(1 1) rotate(0) translate(4 294.5)">
<title>G</title>
<polygon fill="white" stroke="transparent" points="-4,4 -4,-294.5 2011,-294.5 2011,4 -4,4"/>
<!-- node_0 -->
<g id="node1" class="node">
<title>node_0</title>
<path fill="#e9f2ff" stroke="#6b8fd6" stroke-width="2" d="M12,-203C12,-203 106,-203 106,-203 112,-203 118,-209 118,-215 118,-215 118,-251 118,-251 118,-257 112,-263 106,-263 106,-263 12,-263 12,-263 6,-263 0,-257 0,-251 0,-251 0,-215 0,-215 0,-209 6,-203 12,-203"/>
<text text-anchor="middle" x="59" y="-250.2" font-family="Fira Mono" font-size="11.00">ind: 0</text>
<polyline fill="none" stroke="#6b8fd6" stroke-width="2" points="0,-243 118,-243 "/>
<text text-anchor="middle" x="59" y="-230.2" font-family="Fira Mono" font-size="11.00">val: 3.73593e+09</text>
<polyline fill="none" stroke="#6b8fd6" stroke-width="2" points="0,-223 118,-223 "/>
<text text-anchor="middle" x="31" y="-210.2" font-family="Fira Mono" font-size="11.00">prev: 11</text>
<polyline fill="none" stroke="#6b8fd6" stroke-width="2" points="62,-203 62,-223 "/>
<text text-anchor="middle" x="90" y="-210.2" font-family="Fira Mono" font-size="11.00">next: 3</text>
</g>
<!-- node_1 -->
<g id="node2" class="node">
<title>node_1</title>
<path fill="#ffecec" stroke="#d66d66" d="M184,-203C184,-203 275,-203 275,-203 281,-203 287,-209 287,-215 287,-215 287,-251 287,-251 287,-257 281,-263 275,-263 275,-263 184,-263 184,-263 178,-263 172,-257 172,-251 172,-251 172,-215 172,-215 172,-209 178,-203 184,-203"/>
<text text-anchor="middle" x="229.5" y="-250.2" font-family="Fira Mono" font-size="11.00">ind: 1</text>
<polyline fill="none" stroke="#d66d66" points="172,-243 287,-243 "/>
<text text-anchor="middle" x="229.5" y="-230.2" font-family="Fira Mono" font-size="11.00">val: &#45;100</text>
<polyline fill="none" stroke="#d66d66" points="172,-223 287,-223 "/>
<text text-anchor="middle" x="201.5" y="-210.2" font-family="Fira Mono" font-size="11.00">prev: &#45;1</text>
<polyline fill="none" stroke="#d66d66" points="231,-203 231,-223 "/>
<text text-anchor="middle" x="259" y="-210.2" font-family="Fira Mono" font-size="11.00">next: 6</text>
</g>
<!-- node_0&#45;&gt;node_1 -->
<!-- node_2 -->
<g id="node3" class="node">
<title>node_2</title>
<path fill="#e9fbf5" stroke="#5aa99b" d="M353,-203C353,-203 440,-203 440,-203 446,-203 452,-209 452,-215 452,-215 452,-251 452,-251 452,-257 446,-263 440,-263 440,-263 353,-263 353,-263 347,-263 341,-257 341,-251 341,-251 341,-215 341,-215 341,-209 347,-203 353,-203"/>
<text text-anchor="middle" x="396.5" y="-250.2" font-family="Fira Mono" font-size="11.00">ind: 2 (HEAD)</text>
<polyline fill="none" stroke="#5aa99b" points="341,-243 452,-243 "/>
<text text-anchor="middle" x="396.5" y="-230.2" font-family="Fira Mono" font-size="11.00">val: 40</text>
<polyline fill="none" stroke="#5aa99b" points="341,-223 452,-223 "/>
<text text-anchor="middle" x="368.5" y="-210.2" font-family="Fira Mono" font-size="11.00">prev: 0</text>
<polyline fill="none" stroke="#5aa99b" points="396,-203 396,-223 "/>
<text text-anchor="middle" x="424" y="-210.2" font-family="Fira Mono" font-size="11.00">next: 4</text>
</g>
<!-- node_0&#45;&gt;node_2 -->
<g id="edge24" class="edge">
<title>node_0&#45;&gt;node_2</title>
<path fill="none" stroke="#ff0000" stroke-width="2.2" d="M113,-202.78C113,-193.71 113,-186.12 113,-186.12 113,-186.12 397,-186.12 397,-186.12 397,-186.12 397,-192.78 397,-192.78"/>
<polygon fill="#ff0000" stroke="#ff0000" stroke-width="2.2" points="393.5,-192.78 397,-202.78 400.5,-192.78 393.5,-192.78"/>
</g>
<!-- node_3 -->
<g id="node4" class="node">
<title>node_3</title>
<path fill="#fff3e0" stroke="#000000" d="M518,-203C518,-203 645,-203 645,-203 651,-203 657,-209 657,-215 657,-215 657,-251 657,-251 657,-257 651,-263 645,-263 645,-263 518,-263 518,-263 512,-263 506,-257 506,-251 506,-251 506,-215 506,-215 506,-209 512,-203 518,-203"/>
<text text-anchor="middle" x="581.5" y="-250.2" font-family="Fira Mono" font-size="11.00">ind: 3</text>
<polyline fill="none" stroke="#000000" points="506,-243 657,-243 "/>
<text text-anchor="middle" x="581.5" y="-230.2" font-family="Fira Mono" font-size="11.00">val: 2</text>
<polyline fill="none" stroke="#000000" points="506,-223 657,-223 "/>
<text text-anchor="middle" x="540" y="-210.2" font-family="Fira Mono" font-size="11.00">prev: 150</text>
<polyline fill="none" stroke="#000000" points="574,-203 574,-223 "/>
<text text-anchor="middle" x="615.5" y="-210.2" font-family="Fira Mono" font-size="11.00">next: 10000</text>
</g>
<!-- node_0&#45;&gt;node_3 -->
<g id="edge14" class="edge">
<title>node_0&#45;&gt;node_3</title>
<path fill="none" stroke="#ff0000" stroke-width="2.2" d="M107,-202.86C107,-186.57 107,-169.75 107,-169.75 107,-169.75 526,-169.75 526,-169.75 526,-169.75 526,-192.86 526,-192.86"/>
<polygon fill="#ff0000" stroke="#ff0000" stroke-width="2.2" points="522.5,-192.86 526,-202.86 529.5,-192.86 522.5,-192.86"/>
</g>
<!-- node_1&#45;&gt;node_2 -->
<!-- node_6 -->
<g id="node7" class="node">
<title>node_6</title>
<path fill="#ffecec" stroke="#d66d66" d="M1060,-203C1060,-203 1151,-203 1151,-203 1157,-203 1163,-209 1163,-215 1163,-215 1163,-251 1163,-251 1163,-257 1157,-263 1151,-263 1151,-263 1060,-263 1060,-263 1054,-263 1048,-257 1048,-251 1048,-251 1048,-215 1048,-215 1048,-209 1054,-203 1060,-203"/>
<text text-anchor="middle" x="1105.5" y="-250.2" font-family="Fira Mono" font-size="11.00">ind: 6</text>
<polyline fill="none" stroke="#d66d66" points="1048,-243 1163,-243 "/>
<text text-anchor="middle" x="1105.5" y="-230.2" font-family="Fira Mono" font-size="11.00">val: &#45;100</text>
<polyline fill="none" stroke="#d66d66" points="1048,-223 1163,-223 "/>
<text text-anchor="middle" x="1077.5" y="-210.2" font-family="Fira Mono" font-size="11.00">prev: &#45;1</text>
<polyline fill="none" stroke="#d66d66" points="1107,-203 1107,-223 "/>
<text text-anchor="middle" x="1135" y="-210.2" font-family="Fira Mono" font-size="11.00">next: 5</text>
</g>
<!-- node_1&#45;&gt;node_6 -->
<g id="edge12" class="edge">
<title>node_1&#45;&gt;node_6</title>
<path fill="none" stroke="#d88d88" stroke-dasharray="5,2" d="M230,-263.1C230,-277.01 230,-290.5 230,-290.5 230,-290.5 1106,-290.5 1106,-290.5 1106,-290.5 1106,-273.1 1106,-273.1"/>
<polygon fill="#d88d88" stroke="#d88d88" points="1109.5,-273.1 1106,-263.1 1102.5,-273.1 1109.5,-273.1"/>
</g>
<!-- node_2&#45;&gt;node_3 -->
<!-- node_4 -->
<g id="node5" class="node">
<title>node_4</title>
<path fill="#fff3e0" stroke="#000000" d="M723,-203C723,-203 810,-203 810,-203 816,-203 822,-209 822,-215 822,-215 822,-251 822,-251 822,-257 816,-263 810,-263 810,-263 723,-263 723,-263 717,-263 711,-257 711,-251 711,-251 711,-215 711,-215 711,-209 717,-203 723,-203"/>
<text text-anchor="middle" x="766.5" y="-250.2" font-family="Fira Mono" font-size="11.00">ind: 4</text>
<polyline fill="none" stroke="#000000" points="711,-243 822,-243 "/>
<text text-anchor="middle" x="766.5" y="-230.2" font-family="Fira Mono" font-size="11.00">val: 20</text>
<polyline fill="none" stroke="#000000" points="711,-223 822,-223 "/>
<text text-anchor="middle" x="738.5" y="-210.2" font-family="Fira Mono" font-size="11.00">prev: 3</text>
<polyline fill="none" stroke="#000000" points="766,-203 766,-223 "/>
<text text-anchor="middle" x="794" y="-210.2" font-family="Fira Mono" font-size="11.00">next: 7</text>
</g>
<!-- node_2&#45;&gt;node_4 -->
<g id="edge15" class="edge">
<title>node_2&#45;&gt;node_4</title>
<path fill="none" stroke="#ff0000" stroke-width="2.2" d="M397,-263.16C397,-273.03 397,-281.5 397,-281.5 397,-281.5 748,-281.5 748,-281.5 748,-281.5 748,-273.16 748,-273.16"/>
<polygon fill="#ff0000" stroke="#ff0000" stroke-width="2.2" points="751.5,-273.16 748,-263.16 744.5,-273.16 751.5,-273.16"/>
</g>
<!-- node_3&#45;&gt;node_4 -->
<!-- node_3&#45;&gt;node_4 -->
<g id="edge27" class="edge">
<title>node_3&#45;&gt;node_4</title>
<path fill="none" stroke="#ff0000" stroke-width="2.2" d="M657.01,-243.17C657.01,-243.17 700.78,-243.17 700.78,-243.17"/>
<polygon fill="#ff0000" stroke="#ff0000" stroke-width="2.2" points="700.78,-246.67 710.78,-243.17 700.78,-239.67 700.78,-246.67"/>
</g>
<!-- node_bad_n_3 -->
<g id="node13" class="node">
<title>node_bad_n_3</title>
<path fill="#ffecec" stroke="#d66d66" d="M605,-36C605,-36 558,-36 558,-36 552,-36 546,-30 546,-24 546,-24 546,-12 546,-12 546,-6 552,0 558,0 558,0 605,0 605,0 611,0 617,-6 617,-12 617,-12 617,-24 617,-24 617,-30 611,-36 605,-36"/>
<text text-anchor="middle" x="581.5" y="-21.2" font-family="Fira Mono" font-size="11.00">idx 10000</text>
<text text-anchor="middle" x="581.5" y="-9.2" font-family="Fira Mono" font-size="11.00">(N/A)</text>
</g>
<!-- node_3&#45;&gt;node_bad_n_3 -->
<g id="edge16" class="edge">
<title>node_3&#45;&gt;node_bad_n_3</title>
<path fill="none" stroke="#d66d66" stroke-width="2" d="M549,-202.65C549,-202.65 549,-46.2 549,-46.2"/>
<polygon fill="#d66d66" stroke="#d66d66" stroke-width="2" points="552.5,-46.2 549,-36.2 545.5,-46.2 552.5,-46.2"/>
</g>
<!-- node_3&#45;&gt;node_bad_n_3 -->
<!-- node_bad_p_3 -->
<g id="node14" class="node">
<title>node_bad_p_3</title>
<path fill="#ffecec" stroke="#d66d66" d="M598,-137C598,-137 565,-137 565,-137 559,-137 553,-131 553,-125 553,-125 553,-113 553,-113 553,-107 559,-101 565,-101 565,-101 598,-101 598,-101 604,-101 610,-107 610,-113 610,-113 610,-125 610,-125 610,-131 604,-137 598,-137"/>
<text text-anchor="middle" x="581.5" y="-122.2" font-family="Fira Mono" font-size="11.00">idx 150</text>
<text text-anchor="middle" x="581.5" y="-110.2" font-family="Fira Mono" font-size="11.00">(N/A)</text>
</g>
<!-- node_3&#45;&gt;node_bad_p_3 -->
<!-- node_5 -->
<g id="node6" class="node">
<title>node_5</title>
<path fill="#ffecec" stroke="#d66d66" d="M888,-203C888,-203 982,-203 982,-203 988,-203 994,-209 994,-215 994,-215 994,-251 994,-251 994,-257 988,-263 982,-263 982,-263 888,-263 888,-263 882,-263 876,-257 876,-251 876,-251 876,-215 876,-215 876,-209 882,-203 888,-203"/>
<text text-anchor="middle" x="935" y="-250.2" font-family="Fira Mono" font-size="11.00">ind: 5</text>
<polyline fill="none" stroke="#d66d66" points="876,-243 994,-243 "/>
<text text-anchor="middle" x="935" y="-230.2" font-family="Fira Mono" font-size="11.00">val: &#45;100</text>
<polyline fill="none" stroke="#d66d66" points="876,-223 994,-223 "/>
<text text-anchor="middle" x="905.5" y="-210.2" font-family="Fira Mono" font-size="11.00">prev: &#45;1</text>
<polyline fill="none" stroke="#d66d66" points="935,-203 935,-223 "/>
<text text-anchor="middle" x="964.5" y="-210.2" font-family="Fira Mono" font-size="11.00">next: &#45;1</text>
</g>
<!-- node_4&#45;&gt;node_5 -->
<!-- node_7 -->
<g id="node8" class="node">
<title>node_7</title>
<path fill="#fff3e0" stroke="#000000" d="M1229,-203C1229,-203 1316,-203 1316,-203 1322,-203 1328,-209 1328,-215 1328,-215 1328,-251 1328,-251 1328,-257 1322,-263 1316,-263 1316,-263 1229,-263 1229,-263 1223,-263 1217,-257 1217,-251 1217,-251 1217,-215 1217,-215 1217,-209 1223,-203 1229,-203"/>
<text text-anchor="middle" x="1272.5" y="-250.2" font-family="Fira Mono" font-size="11.00">ind: 7</text>
<polyline fill="none" stroke="#000000" points="1217,-243 1328,-243 "/>
<text text-anchor="middle" x="1272.5" y="-230.2" font-family="Fira Mono" font-size="11.00">val: 5</text>
<polyline fill="none" stroke="#000000" points="1217,-223 1328,-223 "/>
<text text-anchor="middle" x="1244.5" y="-210.2" font-family="Fira Mono" font-size="11.00">prev: 4</text>
<polyline fill="none" stroke="#000000" points="1272,-203 1272,-223 "/>
<text text-anchor="middle" x="1300" y="-210.2" font-family="Fira Mono" font-size="11.00">next: 8</text>
</g>
<!-- node_4&#45;&gt;node_7 -->
<g id="edge18" class="edge">
<title>node_4&#45;&gt;node_7</title>
<path fill="none" stroke="#999999" d="M785,-271.58C785,-271.58 785,-272.5 785,-272.5 785,-272.5 1273,-272.5 1273,-272.5 1273,-272.5 1273,-271.58 1273,-271.58"/>
<polygon fill="#999999" stroke="#999999" points="788.5,-273.34 785,-263.34 781.5,-273.34 788.5,-273.34"/>
<polygon fill="#999999" stroke="#999999" points="1276.5,-273.34 1273,-263.34 1269.5,-273.34 1276.5,-273.34"/>
</g>
<!-- node_5&#45;&gt;node_6 -->
<!-- node_6&#45;&gt;node_5 -->
<g id="edge13" class="edge">
<title>node_6&#45;&gt;node_5</title>
<path fill="none" stroke="#d88d88" stroke-dasharray="5,2" d="M1047.78,-243.17C1047.78,-243.17 1004.12,-243.17 1004.12,-243.17"/>
<polygon fill="#d88d88" stroke="#d88d88" points="1004.12,-239.67 994.12,-243.17 1004.12,-246.67 1004.12,-239.67"/>
</g>
<!-- node_6&#45;&gt;node_7 -->
<!-- node_8 -->
<g id="node9" class="node">
<title>node_8</title>
<path fill="#fff3e0" stroke="#000000" d="M1394,-203C1394,-203 1481,-203 1481,-203 1487,-203 1493,-209 1493,-215 1493,-215 1493,-251 1493,-251 1493,-257 1487,-263 1481,-263 1481,-263 1394,-263 1394,-263 1388,-263 1382,-257 1382,-251 1382,-251 1382,-215 1382,-215 1382,-209 1388,-203 1394,-203"/>
<text text-anchor="middle" x="1437.5" y="-250.2" font-family="Fira Mono" font-size="11.00">ind: 8</text>
<polyline fill="none" stroke="#000000" points="1382,-243 1493,-243 "/>
<text text-anchor="middle" x="1437.5" y="-230.2" font-family="Fira Mono" font-size="11.00">val: 4</text>
<polyline fill="none" stroke="#000000" points="1382,-223 1493,-223 "/>
<text text-anchor="middle" x="1409.5" y="-210.2" font-family="Fira Mono" font-size="11.00">prev: 7</text>
<polyline fill="none" stroke="#000000" points="1437,-203 1437,-223 "/>
<text text-anchor="middle" x="1465" y="-210.2" font-family="Fira Mono" font-size="11.00">next: 9</text>
</g>
<!-- node_7&#45;&gt;node_8 -->
<!-- node_7&#45;&gt;node_8 -->
<g id="edge19" class="edge">
<title>node_7&#45;&gt;node_8</title>
<path fill="none" stroke="#999999" d="M1338.36,-243.17C1338.36,-243.17 1371.98,-243.17 1371.98,-243.17"/>
<polygon fill="#999999" stroke="#999999" points="1371.98,-246.67 1381.98,-243.17 1371.98,-239.67 1371.98,-246.67"/>
<polygon fill="#999999" stroke="#999999" points="1338.36,-239.67 1328.36,-243.17 1338.36,-246.67 1338.36,-239.67"/>
</g>
<!-- node_9 -->
<g id="node10" class="node">
<title>node_9</title>
<path fill="#fff3e0" stroke="#000000" d="M1559,-203C1559,-203 1652,-203 1652,-203 1658,-203 1664,-209 1664,-215 1664,-215 1664,-251 1664,-251 1664,-257 1658,-263 1652,-263 1652,-263 1559,-263 1559,-263 1553,-263 1547,-257 1547,-251 1547,-251 1547,-215 1547,-215 1547,-209 1553,-203 1559,-203"/>
<text text-anchor="middle" x="1605.5" y="-250.2" font-family="Fira Mono" font-size="11.00">ind: 9</text>
<polyline fill="none" stroke="#000000" points="1547,-243 1664,-243 "/>
<text text-anchor="middle" x="1605.5" y="-230.2" font-family="Fira Mono" font-size="11.00">val: 5</text>
<polyline fill="none" stroke="#000000" points="1547,-223 1664,-223 "/>
<text text-anchor="middle" x="1574.5" y="-210.2" font-family="Fira Mono" font-size="11.00">prev: 8</text>
<polyline fill="none" stroke="#000000" points="1602,-203 1602,-223 "/>
<text text-anchor="middle" x="1633" y="-210.2" font-family="Fira Mono" font-size="11.00">next: 10</text>
</g>
<!-- node_8&#45;&gt;node_9 -->
<!-- node_8&#45;&gt;node_9 -->
<g id="edge20" class="edge">
<title>node_8&#45;&gt;node_9</title>
<path fill="none" stroke="#999999" d="M1503.44,-243.17C1503.44,-243.17 1536.93,-243.17 1536.93,-243.17"/>
<polygon fill="#999999" stroke="#999999" points="1536.93,-246.67 1546.93,-243.17 1536.93,-239.67 1536.93,-246.67"/>
<polygon fill="#999999" stroke="#999999" points="1503.44,-239.67 1493.44,-243.17 1503.44,-246.67 1503.44,-239.67"/>
</g>
<!-- node_10 -->
<g id="node11" class="node">
<title>node_10</title>
<path fill="#fff3e0" stroke="#000000" d="M1730,-203C1730,-203 1823,-203 1823,-203 1829,-203 1835,-209 1835,-215 1835,-215 1835,-251 1835,-251 1835,-257 1829,-263 1823,-263 1823,-263 1730,-263 1730,-263 1724,-263 1718,-257 1718,-251 1718,-251 1718,-215 1718,-215 1718,-209 1724,-203 1730,-203"/>
<text text-anchor="middle" x="1776.5" y="-250.2" font-family="Fira Mono" font-size="11.00">ind: 10</text>
<polyline fill="none" stroke="#000000" points="1718,-243 1835,-243 "/>
<text text-anchor="middle" x="1776.5" y="-230.2" font-family="Fira Mono" font-size="11.00">val: 4</text>
<polyline fill="none" stroke="#000000" points="1718,-223 1835,-223 "/>
<text text-anchor="middle" x="1745.5" y="-210.2" font-family="Fira Mono" font-size="11.00">prev: 9</text>
<polyline fill="none" stroke="#000000" points="1773,-203 1773,-223 "/>
<text text-anchor="middle" x="1804" y="-210.2" font-family="Fira Mono" font-size="11.00">next: 11</text>
</g>
<!-- node_9&#45;&gt;node_10 -->
<!-- node_9&#45;&gt;node_10 -->
<g id="edge21" class="edge">
<title>node_9&#45;&gt;node_10</title>
<path fill="none" stroke="#999999" d="M1674.35,-243.17C1674.35,-243.17 1707.83,-243.17 1707.83,-243.17"/>
<polygon fill="#999999" stroke="#999999" points="1707.83,-246.67 1717.83,-243.17 1707.83,-239.67 1707.83,-246.67"/>
<polygon fill="#999999" stroke="#999999" points="1674.35,-239.67 1664.35,-243.17 1674.35,-246.67 1674.35,-239.67"/>
</g>
<!-- node_11 -->
<g id="node12" class="node">
<title>node_11</title>
<path fill="#f1eafd" stroke="#8e6bd6" d="M1901,-203C1901,-203 1995,-203 1995,-203 2001,-203 2007,-209 2007,-215 2007,-215 2007,-251 2007,-251 2007,-257 2001,-263 1995,-263 1995,-263 1901,-263 1901,-263 1895,-263 1889,-257 1889,-251 1889,-251 1889,-215 1889,-215 1889,-209 1895,-203 1901,-203"/>
<text text-anchor="middle" x="1948" y="-250.2" font-family="Fira Mono" font-size="11.00">ind: 11 (TAIL)</text>
<polyline fill="none" stroke="#8e6bd6" points="1889,-243 2007,-243 "/>
<text text-anchor="middle" x="1948" y="-230.2" font-family="Fira Mono" font-size="11.00">val: 3</text>
<polyline fill="none" stroke="#8e6bd6" points="1889,-223 2007,-223 "/>
<text text-anchor="middle" x="1920" y="-210.2" font-family="Fira Mono" font-size="11.00">prev: 10</text>
<polyline fill="none" stroke="#8e6bd6" points="1951,-203 1951,-223 "/>
<text text-anchor="middle" x="1979" y="-210.2" font-family="Fira Mono" font-size="11.00">next: 0</text>
</g>
<!-- node_10&#45;&gt;node_11 -->
<!-- node_10&#45;&gt;node_11 -->
<g id="edge22" class="edge">
<title>node_10&#45;&gt;node_11</title>
<path fill="none" stroke="#999999" d="M1845.04,-243.17C1845.04,-243.17 1878.85,-243.17 1878.85,-243.17"/>
<polygon fill="#999999" stroke="#999999" points="1878.85,-246.67 1888.85,-243.17 1878.85,-239.67 1878.85,-246.67"/>
<polygon fill="#999999" stroke="#999999" points="1845.04,-239.67 1835.04,-243.17 1845.04,-246.67 1845.04,-239.67"/>
</g>
<!-- node_11&#45;&gt;node_0 -->
<g id="edge23" class="edge">
<title>node_11&#45;&gt;node_0</title>
<path fill="none" stroke="#999999" d="M1948,-192.9C1948,-192.9 1948,-153.38 1948,-153.38 1948,-153.38 101,-153.38 101,-153.38 101,-153.38 101,-192.9 101,-192.9"/>
<polygon fill="#999999" stroke="#999999" points="1944.5,-192.9 1948,-202.9 1951.5,-192.9 1944.5,-192.9"/>
<polygon fill="#999999" stroke="#999999" points="97.5,-192.9 101,-202.9 104.5,-192.9 97.5,-192.9"/>
</g>
<!-- node_bad_p_3&#45;&gt;node_3 -->
<g id="edge25" class="edge">
<title>node_bad_p_3&#45;&gt;node_3</title>
<path fill="none" stroke="#d66d66" stroke-width="2" d="M591,-137.06C591,-137.06 591,-192.59 591,-192.59"/>
<polygon fill="#d66d66" stroke="#d66d66" stroke-width="2" points="587.5,-192.59 591,-202.59 594.5,-192.59 587.5,-192.59"/>
</g>
<!-- node_free -->
<g id="node15" class="node">
<title>node_free</title>
<path fill="#ffecec" stroke="#d66d66" d="M82.5,-137C82.5,-137 35.5,-137 35.5,-137 29.5,-137 23.5,-131 23.5,-125 23.5,-125 23.5,-113 23.5,-113 23.5,-107 29.5,-101 35.5,-101 35.5,-101 82.5,-101 82.5,-101 88.5,-101 94.5,-107 94.5,-113 94.5,-113 94.5,-125 94.5,-125 94.5,-131 88.5,-137 82.5,-137"/>
<text text-anchor="middle" x="59" y="-116.2" font-family="Fira Mono" font-size="11.00">free_head</text>
</g>
<!-- node_free&#45;&gt;node_1 -->
<g id="edge28" class="edge">
<title>node_free&#45;&gt;node_1</title>
<path fill="none" stroke="#d88d88" stroke-dasharray="5,2" d="M94.85,-119C144.99,-119 230,-119 230,-119 230,-119 230,-192.75 230,-192.75"/>
<polygon fill="#d88d88" stroke="#d88d88" points="226.5,-192.75 230,-202.75 233.5,-192.75 226.5,-192.75"/>
</g>
</g>
</svg>
