<?xml version="1.0" encoding="UTF-8" standalone="no"?>
<!DOCTYPE svg PUBLIC "-//W3C//DTD SVG 1.1//EN"
 "http://www.w3.org/Graphics/SVG/1.1/DTD/svg11.dtd">
<!-- Generated by graphviz version 2.43.0 (0)
 -->
<!-- Title: G Pages: 1 -->
<svg width="1988pt" height="198pt"
 viewBox="0.00 0.00 1988.00 197.50" xmlns="http://www.w3.org/2000/svg" xmlns:xlink="http://www.w3.org/1999/xlink">
<g id="graph0" class="graph" transform="scale(1 1) rotate(0) translate(4 193.5)">
<title>G</title>
<polygon fill="white" stroke="transparent" points="-4,4 -4,-193.5 1984,-193.5 1984,4 -4,4"/>
<!-- node_0 -->
<g id="node1" class="node">
<title>node_0</title>
<path fill="#e9f2ff" stroke="#6b8fd6" stroke-width="2" d="M12,-102C12,-102 106,-102 106,-102 112,-102 118,-108 118,-114 118,-114 118,-150 118,-150 118,-156 112,-162 106,-162 106,-162 12,-162 12,-162 6,-162 0,-156 0,-150 0,-150 0,-114 0,-114 0,-108 6,-102 12,-102"/>
<text text-anchor="middle" x="59" y="-149.2" font-family="Fira Mono" font-size="11.00">ind: 0</text>
<polyline fill="none" stroke="#6b8fd6" stroke-width="2" points="0,-142 118,-142 "/>
<text text-anchor="middle" x="59" y="-129.2" font-family="Fira Mono" font-size="11.00">val: 10101</text>
<polyline fill="none" stroke="#6b8fd6" stroke-width="2" points="0,-122 118,-122 "/>
<text text-anchor="middle" x="31" y="-109.2" font-family="Fira Mono" font-size="11.00">prev: 11</text>
<polyline fill="none" stroke="#6b8fd6" stroke-width="2" points="62,-102 62,-122 "/>
<text text-anchor="middle" x="90" y="-109.2" font-family="Fira Mono" font-size="11.00">next: 2</text>
</g>
<!-- node_1 -->
<g id="node2" class="node">
<title>node_1</title>
<path fill="#ffecec" stroke="#d66d66" d="M184,-102C184,-102 275,-102 275,-102 281,-102 287,-108 287,-114 287,-114 287,-150 287,-150 287,-156 281,-162 275,-162 275,-162 184,-162 184,-162 178,-162 172,-156 172,-150 172,-150 172,-114 172,-114 172,-108 178,-102 184,-102"/>
<text text-anchor="middle" x="229.5" y="-149.2" font-family="Fira Mono" font-size="11.00">ind: 1</text>
<polyline fill="none" stroke="#d66d66" points="172,-142 287,-142 "/>
<text text-anchor="middle" x="229.5" y="-129.2" font-family="Fira Mono" font-size="11.00">val: &#45;100</text>
<polyline fill="none" stroke="#d66d66" points="172,-122 287,-122 "/>
<text text-anchor="middle" x="201.5" y="-109.2" font-family="Fira Mono" font-size="11.00">prev: &#45;1</text>
<polyline fill="none" stroke="#d66d66" points="231,-102 231,-122 "/>
<text text-anchor="middle" x="259" y="-109.2" font-family="Fira Mono" font-size="11.00">next: 6</text>
</g>
<!-- node_0&#45;&gt;node_1 -->
<!-- node_2 -->
<g id="node3" class="node">
<title>node_2</title>
<path fill="#e9fbf5" stroke="#5aa99b" d="M353,-102C353,-102 440,-102 440,-102 446,-102 452,-108 452,-114 452,-114 452,-150 452,-150 452,-156 446,-162 440,-162 440,-162 353,-162 353,-162 347,-162 341,-156 341,-150 341,-150 341,-114 341,-114 341,-108 347,-102 353,-102"/>
<text text-anchor="middle" x="396.5" y="-149.2" font-family="Fira Mono" font-size="11.00">ind: 2 (HEAD)</text>
<polyline fill="none" stroke="#5aa99b" points="341,-142 452,-142 "/>
<text text-anchor="middle" x="396.5" y="-129.2" font-family="Fira Mono" font-size="11.00">val: 40</text>
<polyline fill="none" stroke="#5aa99b" points="341,-122 452,-122 "/>
<text text-anchor="middle" x="368.5" y="-109.2" font-family="Fira Mono" font-size="11.00">prev: 0</text>
<polyline fill="none" stroke="#5aa99b" points="396,-102 396,-122 "/>
<text text-anchor="middle" x="424" y="-109.2" font-family="Fira Mono" font-size="11.00">next: 4</text>
</g>
<!-- node_0&#45;&gt;node_2 -->
<g id="edge14" class="edge">
<title>node_0&#45;&gt;node_2</title>
<path fill="none" stroke="#999999" d="M111,-91.86C111,-91.86 111,-79.67 111,-79.67 111,-79.67 397,-79.67 397,-79.67 397,-79.67 397,-91.86 397,-91.86"/>
<polygon fill="#999999" stroke="#999999" points="107.5,-91.86 111,-101.86 114.5,-91.86 107.5,-91.86"/>
<polygon fill="#999999" stroke="#999999" points="393.5,-91.86 397,-101.86 400.5,-91.86 393.5,-91.86"/>
</g>
<!-- node_1&#45;&gt;node_2 -->
<!-- node_6 -->
<g id="node7" class="node">
<title>node_6</title>
<path fill="#ffecec" stroke="#d66d66" d="M1033,-102C1033,-102 1124,-102 1124,-102 1130,-102 1136,-108 1136,-114 1136,-114 1136,-150 1136,-150 1136,-156 1130,-162 1124,-162 1124,-162 1033,-162 1033,-162 1027,-162 1021,-156 1021,-150 1021,-150 1021,-114 1021,-114 1021,-108 1027,-102 1033,-102"/>
<text text-anchor="middle" x="1078.5" y="-149.2" font-family="Fira Mono" font-size="11.00">ind: 6</text>
<polyline fill="none" stroke="#d66d66" points="1021,-142 1136,-142 "/>
<text text-anchor="middle" x="1078.5" y="-129.2" font-family="Fira Mono" font-size="11.00">val: &#45;100</text>
<polyline fill="none" stroke="#d66d66" points="1021,-122 1136,-122 "/>
<text text-anchor="middle" x="1050.5" y="-109.2" font-family="Fira Mono" font-size="11.00">prev: &#45;1</text>
<polyline fill="none" stroke="#d66d66" points="1080,-102 1080,-122 "/>
<text text-anchor="middle" x="1108" y="-109.2" font-family="Fira Mono" font-size="11.00">next: 5</text>
</g>
<!-- node_1&#45;&gt;node_6 -->
<g id="edge12" class="edge">
<title>node_1&#45;&gt;node_6</title>
<path fill="none" stroke="#d88d88" stroke-dasharray="5,2" d="M230,-162.1C230,-176.01 230,-189.5 230,-189.5 230,-189.5 1079,-189.5 1079,-189.5 1079,-189.5 1079,-172.1 1079,-172.1"/>
<polygon fill="#d88d88" stroke="#d88d88" points="1082.5,-172.1 1079,-162.1 1075.5,-172.1 1082.5,-172.1"/>
</g>
<!-- node_3 -->
<g id="node4" class="node">
<title>node_3</title>
<path fill="#fff3e0" stroke="#000000" d="M518,-102C518,-102 618,-102 618,-102 624,-102 630,-108 630,-114 630,-114 630,-150 630,-150 630,-156 624,-162 618,-162 618,-162 518,-162 518,-162 512,-162 506,-156 506,-150 506,-150 506,-114 506,-114 506,-108 512,-102 518,-102"/>
<text text-anchor="middle" x="568" y="-149.2" font-family="Fira Mono" font-size="11.00">ind: 3</text>
<polyline fill="none" stroke="#000000" points="506,-142 630,-142 "/>
<text text-anchor="middle" x="568" y="-129.2" font-family="Fira Mono" font-size="11.00">val: 2</text>
<polyline fill="none" stroke="#000000" points="506,-122 630,-122 "/>
<text text-anchor="middle" x="540" y="-109.2" font-family="Fira Mono" font-size="11.00">prev: 150</text>
<polyline fill="none" stroke="#000000" points="574,-102 574,-122 "/>
<text text-anchor="middle" x="602" y="-109.2" font-family="Fira Mono" font-size="11.00">next: 4</text>
</g>
<!-- node_2&#45;&gt;node_3 -->
<!-- node_4 -->
<g id="node5" class="node">
<title>node_4</title>
<path fill="#fff3e0" stroke="#000000" d="M696,-102C696,-102 783,-102 783,-102 789,-102 795,-108 795,-114 795,-114 795,-150 795,-150 795,-156 789,-162 783,-162 783,-162 696,-162 696,-162 690,-162 684,-156 684,-150 684,-150 684,-114 684,-114 684,-108 690,-102 696,-102"/>
<text text-anchor="middle" x="739.5" y="-149.2" font-family="Fira Mono" font-size="11.00">ind: 4</text>
<polyline fill="none" stroke="#000000" points="684,-142 795,-142 "/>
<text text-anchor="middle" x="739.5" y="-129.2" font-family="Fira Mono" font-size="11.00">val: 20</text>
<polyline fill="none" stroke="#000000" points="684,-122 795,-122 "/>
<text text-anchor="middle" x="711.5" y="-109.2" font-family="Fira Mono" font-size="11.00">prev: 3</text>
<polyline fill="none" stroke="#000000" points="739,-102 739,-122 "/>
<text text-anchor="middle" x="767" y="-109.2" font-family="Fira Mono" font-size="11.00">next: 7</text>
</g>
<!-- node_2&#45;&gt;node_4 -->
<g id="edge15" class="edge">
<title>node_2&#45;&gt;node_4</title>
<path fill="none" stroke="#ff0000" stroke-width="2.2" d="M397,-162.16C397,-172.03 397,-180.5 397,-180.5 397,-180.5 721,-180.5 721,-180.5 721,-180.5 721,-172.16 721,-172.16"/>
<polygon fill="#ff0000" stroke="#ff0000" stroke-width="2.2" points="724.5,-172.16 721,-162.16 717.5,-172.16 724.5,-172.16"/>
</g>
<!-- node_3&#45;&gt;node_4 -->
<!-- node_3&#45;&gt;node_4 -->
<g id="edge16" class="edge">
<title>node_3&#45;&gt;node_4</title>
<path fill="none" stroke="#999999" d="M640.4,-142.17C640.4,-142.17 673.96,-142.17 673.96,-142.17"/>
<polygon fill="#999999" stroke="#999999" points="673.96,-145.67 683.96,-142.17 673.96,-138.67 673.96,-145.67"/>
<polygon fill="#999999" stroke="#999999" points="640.4,-138.67 630.4,-142.17 640.4,-145.67 640.4,-138.67"/>
</g>
<!-- node_bad_p_3 -->
<g id="node13" class="node">
<title>node_bad_p_3</title>
<path fill="#ffecec" stroke="#d66d66" d="M584.5,-36C584.5,-36 551.5,-36 551.5,-36 545.5,-36 539.5,-30 539.5,-24 539.5,-24 539.5,-12 539.5,-12 539.5,-6 545.5,0 551.5,0 551.5,0 584.5,0 584.5,0 590.5,0 596.5,-6 596.5,-12 596.5,-12 596.5,-24 596.5,-24 596.5,-30 590.5,-36 584.5,-36"/>
<text text-anchor="middle" x="568" y="-21.2" font-family="Fira Mono" font-size="11.00">idx 150</text>
<text text-anchor="middle" x="568" y="-9.2" font-family="Fira Mono" font-size="11.00">(N/A)</text>
</g>
<!-- node_3&#45;&gt;node_bad_p_3 -->
<!-- node_5 -->
<g id="node6" class="node">
<title>node_5</title>
<path fill="#ffecec" stroke="#d66d66" d="M861,-102C861,-102 955,-102 955,-102 961,-102 967,-108 967,-114 967,-114 967,-150 967,-150 967,-156 961,-162 955,-162 955,-162 861,-162 861,-162 855,-162 849,-156 849,-150 849,-150 849,-114 849,-114 849,-108 855,-102 861,-102"/>
<text text-anchor="middle" x="908" y="-149.2" font-family="Fira Mono" font-size="11.00">ind: 5</text>
<polyline fill="none" stroke="#d66d66" points="849,-142 967,-142 "/>
<text text-anchor="middle" x="908" y="-129.2" font-family="Fira Mono" font-size="11.00">val: &#45;100</text>
<polyline fill="none" stroke="#d66d66" points="849,-122 967,-122 "/>
<text text-anchor="middle" x="878.5" y="-109.2" font-family="Fira Mono" font-size="11.00">prev: &#45;1</text>
<polyline fill="none" stroke="#d66d66" points="908,-102 908,-122 "/>
<text text-anchor="middle" x="937.5" y="-109.2" font-family="Fira Mono" font-size="11.00">next: &#45;1</text>
</g>
<!-- node_4&#45;&gt;node_5 -->
<!-- node_7 -->
<g id="node8" class="node">
<title>node_7</title>
<path fill="#fff3e0" stroke="#000000" d="M1202,-102C1202,-102 1289,-102 1289,-102 1295,-102 1301,-108 1301,-114 1301,-114 1301,-150 1301,-150 1301,-156 1295,-162 1289,-162 1289,-162 1202,-162 1202,-162 1196,-162 1190,-156 1190,-150 1190,-150 1190,-114 1190,-114 1190,-108 1196,-102 1202,-102"/>
<text text-anchor="middle" x="1245.5" y="-149.2" font-family="Fira Mono" font-size="11.00">ind: 7</text>
<polyline fill="none" stroke="#000000" points="1190,-142 1301,-142 "/>
<text text-anchor="middle" x="1245.5" y="-129.2" font-family="Fira Mono" font-size="11.00">val: 5</text>
<polyline fill="none" stroke="#000000" points="1190,-122 1301,-122 "/>
<text text-anchor="middle" x="1217.5" y="-109.2" font-family="Fira Mono" font-size="11.00">prev: 4</text>
<polyline fill="none" stroke="#000000" points="1245,-102 1245,-122 "/>
<text text-anchor="middle" x="1273" y="-109.2" font-family="Fira Mono" font-size="11.00">next: 8</text>
</g>
<!-- node_4&#45;&gt;node_7 -->
<g id="edge17" class="edge">
<title>node_4&#45;&gt;node_7</title>
<path fill="none" stroke="#999999" d="M758,-170.58C758,-170.58 758,-171.5 758,-171.5 758,-171.5 1246,-171.5 1246,-171.5 1246,-171.5 1246,-170.58 1246,-170.58"/>
<polygon fill="#999999" stroke="#999999" points="761.5,-172.34 758,-162.34 754.5,-172.34 761.5,-172.34"/>
<polygon fill="#999999" stroke="#999999" points="1249.5,-172.34 1246,-162.34 1242.5,-172.34 1249.5,-172.34"/>
</g>
<!-- node_5&#45;&gt;node_6 -->
<!-- node_6&#45;&gt;node_5 -->
<g id="edge13" class="edge">
<title>node_6&#45;&gt;node_5</title>
<path fill="none" stroke="#d88d88" stroke-dasharray="5,2" d="M1020.78,-142.17C1020.78,-142.17 977.12,-142.17 977.12,-142.17"/>
<polygon fill="#d88d88" stroke="#d88d88" points="977.12,-138.67 967.12,-142.17 977.12,-145.67 977.12,-138.67"/>
</g>
<!-- node_6&#45;&gt;node_7 -->
<!-- node_8 -->
<g id="node9" class="node">
<title>node_8</title>
<path fill="#fff3e0" stroke="#000000" d="M1367,-102C1367,-102 1454,-102 1454,-102 1460,-102 1466,-108 1466,-114 1466,-114 1466,-150 1466,-150 1466,-156 1460,-162 1454,-162 1454,-162 1367,-162 1367,-162 1361,-162 1355,-156 1355,-150 1355,-150 1355,-114 1355,-114 1355,-108 1361,-102 1367,-102"/>
<text text-anchor="middle" x="1410.5" y="-149.2" font-family="Fira Mono" font-size="11.00">ind: 8</text>
<polyline fill="none" stroke="#000000" points="1355,-142 1466,-142 "/>
<text text-anchor="middle" x="1410.5" y="-129.2" font-family="Fira Mono" font-size="11.00">val: 4</text>
<polyline fill="none" stroke="#000000" points="1355,-122 1466,-122 "/>
<text text-anchor="middle" x="1382.5" y="-109.2" font-family="Fira Mono" font-size="11.00">prev: 7</text>
<polyline fill="none" stroke="#000000" points="1410,-102 1410,-122 "/>
<text text-anchor="middle" x="1438" y="-109.2" font-family="Fira Mono" font-size="11.00">next: 9</text>
</g>
<!-- node_7&#45;&gt;node_8 -->
<!-- node_7&#45;&gt;node_8 -->
<g id="edge18" class="edge">
<title>node_7&#45;&gt;node_8</title>
<path fill="none" stroke="#999999" d="M1311.36,-142.17C1311.36,-142.17 1344.98,-142.17 1344.98,-142.17"/>
<polygon fill="#999999" stroke="#999999" points="1344.98,-145.67 1354.98,-142.17 1344.98,-138.67 1344.98,-145.67"/>
<polygon fill="#999999" stroke="#999999" points="1311.36,-138.67 1301.36,-142.17 1311.36,-145.67 1311.36,-138.67"/>
</g>
<!-- node_9 -->
<g id="node10" class="node">
<title>node_9</title>
<path fill="#fff3e0" stroke="#000000" d="M1532,-102C1532,-102 1625,-102 1625,-102 1631,-102 1637,-108 1637,-114 1637,-114 1637,-150 1637,-150 1637,-156 1631,-162 1625,-162 1625,-162 1532,-162 1532,-162 1526,-162 1520,-156 1520,-150 1520,-150 1520,-114 1520,-114 1520,-108 1526,-102 1532,-102"/>
<text text-anchor="middle" x="1578.5" y="-149.2" font-family="Fira Mono" font-size="11.00">ind: 9</text>
<polyline fill="none" stroke="#000000" points="1520,-142 1637,-142 "/>
<text text-anchor="middle" x="1578.5" y="-129.2" font-family="Fira Mono" font-size="11.00">val: 5</text>
<polyline fill="none" stroke="#000000" points="1520,-122 1637,-122 "/>
<text text-anchor="middle" x="1547.5" y="-109.2" font-family="Fira Mono" font-size="11.00">prev: 8</text>
<polyline fill="none" stroke="#000000" points="1575,-102 1575,-122 "/>
<text text-anchor="middle" x="1606" y="-109.2" font-family="Fira Mono" font-size="11.00">next: 10</text>
</g>
<!-- node_8&#45;&gt;node_9 -->
<!-- node_8&#45;&gt;node_9 -->
<g id="edge19" class="edge">
<title>node_8&#45;&gt;node_9</title>
<path fill="none" stroke="#999999" d="M1476.44,-142.17C1476.44,-142.17 1509.93,-142.17 1509.93,-142.17"/>
<polygon fill="#999999" stroke="#999999" points="1509.93,-145.67 1519.93,-142.17 1509.93,-138.67 1509.93,-145.67"/>
<polygon fill="#999999" stroke="#999999" points="1476.44,-138.67 1466.44,-142.17 1476.44,-145.67 1476.44,-138.67"/>
</g>
<!-- node_10 -->
<g id="node11" class="node">
<title>node_10</title>
<path fill="#fff3e0" stroke="#000000" d="M1703,-102C1703,-102 1796,-102 1796,-102 1802,-102 1808,-108 1808,-114 1808,-114 1808,-150 1808,-150 1808,-156 1802,-162 1796,-162 1796,-162 1703,-162 1703,-162 1697,-162 1691,-156 1691,-150 1691,-150 1691,-114 1691,-114 1691,-108 1697,-102 1703,-102"/>
<text text-anchor="middle" x="1749.5" y="-149.2" font-family="Fira Mono" font-size="11.00">ind: 10</text>
<polyline fill="none" stroke="#000000" points="1691,-142 1808,-142 "/>
<text text-anchor="middle" x="1749.5" y="-129.2" font-family="Fira Mono" font-size="11.00">val: 4</text>
<polyline fill="none" stroke="#000000" points="1691,-122 1808,-122 "/>
<text text-anchor="middle" x="1718.5" y="-109.2" font-family="Fira Mono" font-size="11.00">prev: 9</text>
<polyline fill="none" stroke="#000000" points="1746,-102 1746,-122 "/>
<text text-anchor="middle" x="1777" y="-109.2" font-family="Fira Mono" font-size="11.00">next: 11</text>
</g>
<!-- node_9&#45;&gt;node_10 -->
<!-- node_9&#45;&gt;node_10 -->
<g id="edge20" class="edge">
<title>node_9&#45;&gt;node_10</title>
<path fill="none" stroke="#999999" d="M1647.35,-142.17C1647.35,-142.17 1680.83,-142.17 1680.83,-142.17"/>
<polygon fill="#999999" stroke="#999999" points="1680.83,-145.67 1690.83,-142.17 1680.83,-138.67 1680.83,-145.67"/>
<polygon fill="#999999" stroke="#999999" points="1647.35,-138.67 1637.35,-142.17 1647.35,-145.67 1647.35,-138.67"/>
</g>
<!-- node_11 -->
<g id="node12" class="node">
<title>node_11</title>
<path fill="#f1eafd" stroke="#8e6bd6" d="M1874,-102C1874,-102 1968,-102 1968,-102 1974,-102 1980,-108 1980,-114 1980,-114 1980,-150 1980,-150 1980,-156 1974,-162 1968,-162 1968,-162 1874,-162 1874,-162 1868,-162 1862,-156 1862,-150 1862,-150 1862,-114 1862,-114 1862,-108 1868,-102 1874,-102"/>
<text text-anchor="middle" x="1921" y="-149.2" font-family="Fira Mono" font-size="11.00">ind: 11 (TAIL)</text>
<polyline fill="none" stroke="#8e6bd6" points="1862,-142 1980,-142 "/>
<text text-anchor="middle" x="1921" y="-129.2" font-family="Fira Mono" font-size="11.00">val: 3</text>
<polyline fill="none" stroke="#8e6bd6" points="1862,-122 1980,-122 "/>
<text text-anchor="middle" x="1893" y="-109.2" font-family="Fira Mono" font-size="11.00">prev: 10</text>
<polyline fill="none" stroke="#8e6bd6" points="1924,-102 1924,-122 "/>
<text text-anchor="middle" x="1952" y="-109.2" font-family="Fira Mono" font-size="11.00">next: 0</text>
</g>
<!-- node_10&#45;&gt;node_11 -->
<!-- node_10&#45;&gt;node_11 -->
<g id="edge21" class="edge">
<title>node_10&#45;&gt;node_11</title>
<path fill="none" stroke="#999999" d="M1818.04,-142.17C1818.04,-142.17 1851.85,-142.17 1851.85,-142.17"/>
<polygon fill="#999999" stroke="#999999" points="1851.85,-145.67 1861.85,-142.17 1851.85,-138.67 1851.85,-145.67"/>
<polygon fill="#999999" stroke="#999999" points="1818.04,-138.67 1808.04,-142.17 1818.04,-145.67 1818.04,-138.67"/>
</g>
<!-- node_11&#45;&gt;node_0 -->
<g id="edge22" class="edge">
<title>node_11&#45;&gt;node_0</title>
<path fill="none" stroke="#999999" d="M1921,-91.83C1921,-91.83 1921,-57.83 1921,-57.83 1921,-57.83 103,-57.83 103,-57.83 103,-57.83 103,-91.83 103,-91.83"/>
<polygon fill="#999999" stroke="#999999" points="1917.5,-91.83 1921,-101.83 1924.5,-91.83 1917.5,-91.83"/>
<polygon fill="#999999" stroke="#999999" points="99.5,-91.83 103,-101.83 106.5,-91.83 99.5,-91.83"/>
</g>
<!-- node_bad_p_3&#45;&gt;node_3 -->
<g id="edge23" class="edge">
<title>node_bad_p_3&#45;&gt;node_3</title>
<path fill="none" stroke="#d66d66" stroke-width="2" d="M578,-36.06C578,-36.06 578,-91.59 578,-91.59"/>
<polygon fill="#d66d66" stroke="#d66d66" stroke-width="2" points="574.5,-91.59 578,-101.59 581.5,-91.59 574.5,-91.59"/>
</g>
<!-- node_free -->
<g id="node14" class="node">
<title>node_free</title>
<path fill="#ffecec" stroke="#d66d66" d="M82.5,-36C82.5,-36 35.5,-36 35.5,-36 29.5,-36 23.5,-30 23.5,-24 23.5,-24 23.5,-12 23.5,-12 23.5,-6 29.5,0 35.5,0 35.5,0 82.5,0 82.5,0 88.5,0 94.5,-6 94.5,-12 94.5,-12 94.5,-24 94.5,-24 94.5,-30 88.5,-36 82.5,-36"/>
<text text-anchor="middle" x="59" y="-15.2" font-family="Fira Mono" font-size="11.00">free_head</text>
</g>
<!-- node_free&#45;&gt;node_1 -->
<g id="edge25" class="edge">
<title>node_free&#45;&gt;node_1</title>
<path fill="none" stroke="#d88d88" stroke-dasharray="5,2" d="M94.85,-18C144.99,-18 230,-18 230,-18 230,-18 230,-91.75 230,-91.75"/>
<polygon fill="#d88d88" stroke="#d88d88" points="226.5,-91.75 230,-101.75 233.5,-91.75 226.5,-91.75"/>
</g>
</g>
</svg>
