<?xml version="1.0" encoding="UTF-8" standalone="no"?>
<!DOCTYPE svg PUBLIC "-//W3C//DTD SVG 1.1//EN"
 "http://www.w3.org/Graphics/SVG/1.1/DTD/svg11.dtd">
<!-- Generated by graphviz version 2.43.0 (0)
 -->
<!-- Title: G Pages: 1 -->
<svg width="770pt" height="306pt"
 viewBox="0.00 0.00 770.00 306.49" xmlns="http://www.w3.org/2000/svg" xmlns:xlink="http://www.w3.org/1999/xlink">
<g id="graph0" class="graph" transform="scale(1 1) rotate(-90) translate(-302.49 766)">
<title>G</title>
<polygon fill="white" stroke="transparent" points="-4,4 -4,-766 302.49,-766 302.49,4 -4,4"/>
<!-- node0 -->
<g id="node1" class="node">
<title>node0</title>
<path fill="lightblue" stroke="black" stroke-width="3" d="M286.49,-762C286.49,-762 146.49,-762 146.49,-762 140.49,-762 134.49,-756 134.49,-750 134.49,-750 134.49,-714 134.49,-714 134.49,-708 140.49,-702 146.49,-702 146.49,-702 286.49,-702 286.49,-702 292.49,-702 298.49,-708 298.49,-714 298.49,-714 298.49,-750 298.49,-750 298.49,-756 292.49,-762 286.49,-762"/>
<text text-anchor="middle" x="216.49" y="-748.4" font-family="Times,serif" font-size="12.00">index: 0</text>
<text text-anchor="middle" x="216.49" y="-735.4" font-family="Times,serif" font-size="12.00">next: 5</text>
<text text-anchor="middle" x="216.49" y="-722.4" font-family="Times,serif" font-size="12.00">value: 2</text>
<text text-anchor="middle" x="216.49" y="-709.4" font-family="Times,serif" font-size="12.00">prev: 140733073542336</text>
</g>
<!-- node1 -->
<g id="node2" class="node">
<title>node1</title>
<path fill="lightgreen" stroke="black" stroke-width="3" d="M286.49,-528C286.49,-528 146.49,-528 146.49,-528 140.49,-528 134.49,-522 134.49,-516 134.49,-516 134.49,-480 134.49,-480 134.49,-474 140.49,-468 146.49,-468 146.49,-468 286.49,-468 286.49,-468 292.49,-468 298.49,-474 298.49,-480 298.49,-480 298.49,-516 298.49,-516 298.49,-522 292.49,-528 286.49,-528"/>
<text text-anchor="middle" x="216.49" y="-514.4" font-family="Times,serif" font-size="12.00">index: 1</text>
<text text-anchor="middle" x="216.49" y="-501.4" font-family="Times,serif" font-size="12.00">next: 3</text>
<text text-anchor="middle" x="216.49" y="-488.4" font-family="Times,serif" font-size="12.00">value: 4</text>
<text text-anchor="middle" x="216.49" y="-475.4" font-family="Times,serif" font-size="12.00">prev: 140733073542336</text>
</g>
<!-- node0&#45;&gt;node1 -->
<!-- node2 -->
<g id="node3" class="node">
<title>node2</title>
<path fill="lightgreen" stroke="orange" stroke-width="3" d="M286.49,-294C286.49,-294 146.49,-294 146.49,-294 140.49,-294 134.49,-288 134.49,-282 134.49,-282 134.49,-246 134.49,-246 134.49,-240 140.49,-234 146.49,-234 146.49,-234 286.49,-234 286.49,-234 292.49,-234 298.49,-240 298.49,-246 298.49,-246 298.49,-282 298.49,-282 298.49,-288 292.49,-294 286.49,-294"/>
<text text-anchor="middle" x="216.49" y="-280.4" font-family="Times,serif" font-size="12.00">index: 2</text>
<text text-anchor="middle" x="216.49" y="-267.4" font-family="Times,serif" font-size="12.00">next: 0</text>
<text text-anchor="middle" x="216.49" y="-254.4" font-family="Times,serif" font-size="12.00">value: 3</text>
<text text-anchor="middle" x="216.49" y="-241.4" font-family="Times,serif" font-size="12.00">prev: 140733073542336</text>
</g>
<!-- node0&#45;&gt;node2 -->
<g id="edge18" class="edge">
<title>node0&#45;&gt;node2</title>
<path fill="none" stroke="blue" stroke-dasharray="5,2" d="M134.42,-703.3C127.36,-697.91 121.15,-691.54 116.49,-684 94.76,-648.84 94.76,-347.16 116.49,-312 119.33,-307.41 122.75,-303.25 126.58,-299.48"/>
<polygon fill="blue" stroke="blue" points="129.15,-301.88 134.42,-292.7 124.57,-296.59 129.15,-301.88"/>
</g>
<!-- node5 -->
<g id="node6" class="node">
<title>node5</title>
<path fill="lightgreen" stroke="blue" stroke-width="3" d="M286.49,-684C286.49,-684 146.49,-684 146.49,-684 140.49,-684 134.49,-678 134.49,-672 134.49,-672 134.49,-636 134.49,-636 134.49,-630 140.49,-624 146.49,-624 146.49,-624 286.49,-624 286.49,-624 292.49,-624 298.49,-630 298.49,-636 298.49,-636 298.49,-672 298.49,-672 298.49,-678 292.49,-684 286.49,-684"/>
<text text-anchor="middle" x="216.49" y="-670.4" font-family="Times,serif" font-size="12.00">index: 5</text>
<text text-anchor="middle" x="216.49" y="-657.4" font-family="Times,serif" font-size="12.00">next: 4</text>
<text text-anchor="middle" x="216.49" y="-644.4" font-family="Times,serif" font-size="12.00">value: 0</text>
<text text-anchor="middle" x="216.49" y="-631.4" font-family="Times,serif" font-size="12.00">prev: 140733073542336</text>
</g>
<!-- node0&#45;&gt;node5 -->
<g id="edge10" class="edge">
<title>node0&#45;&gt;node5</title>
<path fill="none" stroke="green" d="M216.49,-701.73C216.49,-699.26 216.49,-696.79 216.49,-694.32"/>
<polygon fill="green" stroke="green" points="219.99,-694.16 216.49,-684.16 212.99,-694.16 219.99,-694.16"/>
</g>
<!-- node1&#45;&gt;node2 -->
<!-- node3 -->
<g id="node4" class="node">
<title>node3</title>
<path fill="lightgreen" stroke="black" stroke-width="3" d="M286.49,-60C286.49,-60 146.49,-60 146.49,-60 140.49,-60 134.49,-54 134.49,-48 134.49,-48 134.49,-12 134.49,-12 134.49,-6 140.49,0 146.49,0 146.49,0 286.49,0 286.49,0 292.49,0 298.49,-6 298.49,-12 298.49,-12 298.49,-48 298.49,-48 298.49,-54 292.49,-60 286.49,-60"/>
<text text-anchor="middle" x="216.49" y="-46.4" font-family="Times,serif" font-size="12.00">index: 3</text>
<text text-anchor="middle" x="216.49" y="-33.4" font-family="Times,serif" font-size="12.00">next: 2</text>
<text text-anchor="middle" x="216.49" y="-20.4" font-family="Times,serif" font-size="12.00">value: 1</text>
<text text-anchor="middle" x="216.49" y="-7.4" font-family="Times,serif" font-size="12.00">prev: 140733073542336</text>
</g>
<!-- node1&#45;&gt;node3 -->
<g id="edge11" class="edge">
<title>node1&#45;&gt;node3</title>
<path fill="none" stroke="green" d="M135.13,-467.7C130.24,-463.41 125.92,-458.54 122.49,-453 111.45,-435.14 111.45,-92.86 122.49,-75 124.1,-72.4 125.9,-69.95 127.87,-67.64"/>
<polygon fill="green" stroke="green" points="130.58,-69.87 135.13,-60.3 125.61,-64.95 130.58,-69.87"/>
</g>
<!-- node4 -->
<g id="node5" class="node">
<title>node4</title>
<path fill="lightgreen" stroke="black" stroke-width="3" d="M286.49,-606C286.49,-606 146.49,-606 146.49,-606 140.49,-606 134.49,-600 134.49,-594 134.49,-594 134.49,-558 134.49,-558 134.49,-552 140.49,-546 146.49,-546 146.49,-546 286.49,-546 286.49,-546 292.49,-546 298.49,-552 298.49,-558 298.49,-558 298.49,-594 298.49,-594 298.49,-600 292.49,-606 286.49,-606"/>
<text text-anchor="middle" x="216.49" y="-592.4" font-family="Times,serif" font-size="12.00">index: 4</text>
<text text-anchor="middle" x="216.49" y="-579.4" font-family="Times,serif" font-size="12.00">next: 1</text>
<text text-anchor="middle" x="216.49" y="-566.4" font-family="Times,serif" font-size="12.00">value: 5</text>
<text text-anchor="middle" x="216.49" y="-553.4" font-family="Times,serif" font-size="12.00">prev: 140733073542336</text>
</g>
<!-- node1&#45;&gt;node4 -->
<g id="edge19" class="edge">
<title>node1&#45;&gt;node4</title>
<path fill="none" stroke="blue" stroke-dasharray="5,2" d="M158.15,-528.16C156.26,-530.82 155.21,-533.47 155.03,-536.12"/>
<polygon fill="blue" stroke="blue" points="151.71,-537.26 158.07,-545.73 158.38,-535.14 151.71,-537.26"/>
</g>
<!-- node2&#45;&gt;node3 -->
<!-- node2&#45;&gt;node3 -->
<g id="edge20" class="edge">
<title>node2&#45;&gt;node3</title>
<path fill="none" stroke="blue" stroke-dasharray="5,2" d="M134.3,-237.65C123.63,-230.8 114.12,-222.22 107.49,-211.5 99.96,-199.31 99.96,-94.69 107.49,-82.5 112.36,-74.63 118.78,-67.91 126.07,-62.18"/>
<polygon fill="blue" stroke="blue" points="128.17,-64.99 134.3,-56.35 124.12,-59.28 128.17,-64.99"/>
</g>
<!-- node3&#45;&gt;node1 -->
<g id="edge21" class="edge">
<title>node3&#45;&gt;node1</title>
<path fill="none" stroke="blue" stroke-dasharray="5,2" d="M134.25,-57.11C124.81,-63.5 116.45,-71.36 110.49,-81 99.8,-98.3 99.8,-429.7 110.49,-447 114.68,-453.78 120.06,-459.68 126.16,-464.8"/>
<polygon fill="blue" stroke="blue" points="124.15,-467.67 134.25,-470.89 128.36,-462.08 124.15,-467.67"/>
</g>
<!-- node3&#45;&gt;node2 -->
<g id="edge12" class="edge">
<title>node3&#45;&gt;node2</title>
<path fill="none" stroke="green" d="M134.42,-58.7C127.36,-64.09 121.15,-70.46 116.49,-78 108.43,-91.04 108.43,-202.96 116.49,-216 119.33,-220.59 122.75,-224.75 126.58,-228.52"/>
<polygon fill="green" stroke="green" points="124.57,-231.41 134.42,-235.3 129.15,-226.12 124.57,-231.41"/>
</g>
<!-- node3&#45;&gt;node4 -->
<!-- node4&#45;&gt;node1 -->
<g id="edge13" class="edge">
<title>node4&#45;&gt;node1</title>
<path fill="none" stroke="green" d="M274.91,-545.73C276.79,-543.08 277.8,-540.42 277.97,-537.77"/>
<polygon fill="green" stroke="green" points="281.27,-536.59 274.84,-528.16 274.61,-538.76 281.27,-536.59"/>
</g>
<!-- node4&#45;&gt;node5 -->
<!-- node4&#45;&gt;node5 -->
<g id="edge22" class="edge">
<title>node4&#45;&gt;node5</title>
<path fill="none" stroke="blue" stroke-dasharray="5,2" d="M158.15,-606.16C156.26,-608.82 155.21,-611.47 155.03,-614.12"/>
<polygon fill="blue" stroke="blue" points="151.71,-615.26 158.07,-623.73 158.38,-613.14 151.71,-615.26"/>
</g>
<!-- node5&#45;&gt;node4 -->
<g id="edge14" class="edge">
<title>node5&#45;&gt;node4</title>
<path fill="none" stroke="green" d="M216.49,-623.73C216.49,-621.26 216.49,-618.79 216.49,-616.32"/>
<polygon fill="green" stroke="green" points="219.99,-616.16 216.49,-606.16 212.99,-616.16 219.99,-616.16"/>
</g>
<!-- node6 -->
<g id="node7" class="node">
<title>node6</title>
<path fill="lightcoral" stroke="green" stroke-width="3" d="M286.49,-216C286.49,-216 146.49,-216 146.49,-216 140.49,-216 134.49,-210 134.49,-204 134.49,-204 134.49,-168 134.49,-168 134.49,-162 140.49,-156 146.49,-156 146.49,-156 286.49,-156 286.49,-156 292.49,-156 298.49,-162 298.49,-168 298.49,-168 298.49,-204 298.49,-204 298.49,-210 292.49,-216 286.49,-216"/>
<text text-anchor="middle" x="216.49" y="-202.4" font-family="Times,serif" font-size="12.00">index: 6</text>
<text text-anchor="middle" x="216.49" y="-189.4" font-family="Times,serif" font-size="12.00">next: 7</text>
<text text-anchor="middle" x="216.49" y="-176.4" font-family="Times,serif" font-size="12.00">value: &#45;1</text>
<text text-anchor="middle" x="216.49" y="-163.4" font-family="Times,serif" font-size="12.00">prev: 140733073542336</text>
</g>
<!-- node5&#45;&gt;node6 -->
<!-- node7 -->
<g id="node8" class="node">
<title>node7</title>
<path fill="lightcoral" stroke="black" stroke-width="3" d="M286.49,-138C286.49,-138 146.49,-138 146.49,-138 140.49,-138 134.49,-132 134.49,-126 134.49,-126 134.49,-90 134.49,-90 134.49,-84 140.49,-78 146.49,-78 146.49,-78 286.49,-78 286.49,-78 292.49,-78 298.49,-84 298.49,-90 298.49,-90 298.49,-126 298.49,-126 298.49,-132 292.49,-138 286.49,-138"/>
<text text-anchor="middle" x="216.49" y="-124.4" font-family="Times,serif" font-size="12.00">index: 7</text>
<text text-anchor="middle" x="216.49" y="-111.4" font-family="Times,serif" font-size="12.00">next: 8</text>
<text text-anchor="middle" x="216.49" y="-98.4" font-family="Times,serif" font-size="12.00">value: &#45;1</text>
<text text-anchor="middle" x="216.49" y="-85.4" font-family="Times,serif" font-size="12.00">prev: 140733073542336</text>
</g>
<!-- node6&#45;&gt;node7 -->
<!-- node6&#45;&gt;node7 -->
<g id="edge15" class="edge">
<title>node6&#45;&gt;node7</title>
<path fill="none" stroke="red" stroke-width="3" d="M216.49,-155.73C216.49,-153.26 216.49,-150.79 216.49,-148.32"/>
<polygon fill="red" stroke="red" stroke-width="3" points="219.99,-148.16 216.49,-138.16 212.99,-148.16 219.99,-148.16"/>
</g>
<!-- node6&#45;&gt;node7 -->
<g id="edge23" class="edge">
<title>node6&#45;&gt;node7</title>
<path fill="none" stroke="gray" stroke-dasharray="1,5" d="M158.07,-155.73C156.2,-153.08 155.18,-150.42 155.02,-147.77"/>
<polygon fill="gray" stroke="gray" points="158.38,-148.76 158.15,-138.16 151.72,-146.59 158.38,-148.76"/>
</g>
<!-- node8 -->
<g id="node9" class="node">
<title>node8</title>
<path fill="lightcoral" stroke="black" stroke-width="3" d="M286.49,-450C286.49,-450 146.49,-450 146.49,-450 140.49,-450 134.49,-444 134.49,-438 134.49,-438 134.49,-402 134.49,-402 134.49,-396 140.49,-390 146.49,-390 146.49,-390 286.49,-390 286.49,-390 292.49,-390 298.49,-396 298.49,-402 298.49,-402 298.49,-438 298.49,-438 298.49,-444 292.49,-450 286.49,-450"/>
<text text-anchor="middle" x="216.49" y="-436.4" font-family="Times,serif" font-size="12.00">index: 8</text>
<text text-anchor="middle" x="216.49" y="-423.4" font-family="Times,serif" font-size="12.00">next: 9</text>
<text text-anchor="middle" x="216.49" y="-410.4" font-family="Times,serif" font-size="12.00">value: &#45;1</text>
<text text-anchor="middle" x="216.49" y="-397.4" font-family="Times,serif" font-size="12.00">prev: 140733073542336</text>
</g>
<!-- node7&#45;&gt;node8 -->
<!-- node7&#45;&gt;node8 -->
<g id="edge16" class="edge">
<title>node7&#45;&gt;node8</title>
<path fill="none" stroke="red" stroke-width="3" d="M134.42,-136.7C127.36,-142.09 121.15,-148.46 116.49,-156 110.19,-166.21 110.19,-361.79 116.49,-372 119.33,-376.59 122.75,-380.75 126.58,-384.52"/>
<polygon fill="red" stroke="red" stroke-width="3" points="124.57,-387.41 134.42,-391.3 129.15,-382.12 124.57,-387.41"/>
</g>
<!-- node7&#45;&gt;node8 -->
<g id="edge24" class="edge">
<title>node7&#45;&gt;node8</title>
<path fill="none" stroke="gray" stroke-dasharray="1,5" d="M134.3,-134.35C123.63,-141.2 114.12,-149.78 107.49,-160.5 101.45,-170.28 101.45,-357.72 107.49,-367.5 112.36,-375.37 118.78,-382.09 126.07,-387.82"/>
<polygon fill="gray" stroke="gray" points="124.12,-390.72 134.3,-393.65 128.17,-385.01 124.12,-390.72"/>
</g>
<!-- node9 -->
<g id="node10" class="node">
<title>node9</title>
<path fill="lightcoral" stroke="black" stroke-width="3" d="M286.49,-372C286.49,-372 146.49,-372 146.49,-372 140.49,-372 134.49,-366 134.49,-360 134.49,-360 134.49,-324 134.49,-324 134.49,-318 140.49,-312 146.49,-312 146.49,-312 286.49,-312 286.49,-312 292.49,-312 298.49,-318 298.49,-324 298.49,-324 298.49,-360 298.49,-360 298.49,-366 292.49,-372 286.49,-372"/>
<text text-anchor="middle" x="216.49" y="-358.4" font-family="Times,serif" font-size="12.00">index: 9</text>
<text text-anchor="middle" x="216.49" y="-345.4" font-family="Times,serif" font-size="12.00">next: 4294967295</text>
<text text-anchor="middle" x="216.49" y="-332.4" font-family="Times,serif" font-size="12.00">value: &#45;1</text>
<text text-anchor="middle" x="216.49" y="-319.4" font-family="Times,serif" font-size="12.00">prev: 140733073542336</text>
</g>
<!-- node8&#45;&gt;node9 -->
<!-- node8&#45;&gt;node9 -->
<g id="edge17" class="edge">
<title>node8&#45;&gt;node9</title>
<path fill="none" stroke="red" stroke-width="3" d="M216.49,-389.73C216.49,-387.26 216.49,-384.79 216.49,-382.32"/>
<polygon fill="red" stroke="red" stroke-width="3" points="219.99,-382.16 216.49,-372.16 212.99,-382.16 219.99,-382.16"/>
</g>
<!-- node8&#45;&gt;node9 -->
<g id="edge25" class="edge">
<title>node8&#45;&gt;node9</title>
<path fill="none" stroke="gray" stroke-dasharray="1,5" d="M158.07,-389.73C156.2,-387.08 155.18,-384.42 155.02,-381.77"/>
<polygon fill="gray" stroke="gray" points="158.38,-382.76 158.15,-372.16 151.72,-380.59 158.38,-382.76"/>
</g>
<!-- null_elem -->
<g id="node11" class="node">
<title>null_elem</title>
<ellipse fill="lightgray" stroke="black" cx="49.25" cy="-732" rx="32.75" ry="18"/>
<text text-anchor="middle" x="49.25" y="-728.9" font-family="Times,serif" font-size="12.00">NULL</text>
</g>
<!-- null_elem&#45;&gt;node0 -->
<g id="edge26" class="edge">
<title>null_elem&#45;&gt;node0</title>
<path fill="none" stroke="brown" d="M82.11,-732C94.3,-732 108.9,-732 123.9,-732"/>
<polygon fill="brown" stroke="brown" points="124.32,-735.5 134.32,-732 124.32,-728.5 124.32,-735.5"/>
</g>
<!-- free_head -->
<g id="node12" class="node">
<title>free_head</title>
<ellipse fill="lightgray" stroke="black" cx="49.25" cy="-186" rx="49.5" ry="18"/>
<text text-anchor="middle" x="49.25" y="-182.9" font-family="Times,serif" font-size="12.00">Free Head</text>
</g>
<!-- free_head&#45;&gt;node6 -->
<g id="edge27" class="edge">
<title>free_head&#45;&gt;node6</title>
<path fill="none" stroke="green" d="M98.93,-186C106.94,-186 115.46,-186 124.11,-186"/>
<polygon fill="green" stroke="green" points="124.3,-189.5 134.3,-186 124.3,-182.5 124.3,-189.5"/>
</g>
<!-- list_head -->
<g id="node13" class="node">
<title>list_head</title>
<ellipse fill="lightblue" stroke="black" cx="49.25" cy="-654" rx="46.34" ry="18"/>
<text text-anchor="middle" x="49.25" y="-650.9" font-family="Times,serif" font-size="12.00">List Head</text>
</g>
<!-- list_head&#45;&gt;node5 -->
<g id="edge28" class="edge">
<title>list_head&#45;&gt;node5</title>
<path fill="none" stroke="blue" d="M95.84,-654C104.7,-654 114.28,-654 124.03,-654"/>
<polygon fill="blue" stroke="blue" points="124.22,-657.5 134.22,-654 124.22,-650.5 124.22,-657.5"/>
</g>
<!-- list_tail -->
<g id="node14" class="node">
<title>list_tail</title>
<ellipse fill="orange" stroke="black" cx="49.25" cy="-264" rx="40.03" ry="18"/>
<text text-anchor="middle" x="49.25" y="-260.9" font-family="Times,serif" font-size="12.00">List Tail</text>
</g>
<!-- list_tail&#45;&gt;node2 -->
<g id="edge29" class="edge">
<title>list_tail&#45;&gt;node2</title>
<path fill="none" stroke="orange" d="M89.41,-264C100,-264 111.92,-264 124.09,-264"/>
<polygon fill="orange" stroke="orange" points="124.36,-267.5 134.36,-264 124.36,-260.5 124.36,-267.5"/>
</g>
</g>
</svg>
