<?xml version="1.0" encoding="UTF-8" standalone="no"?>
<!DOCTYPE svg PUBLIC "-//W3C//DTD SVG 1.1//EN"
 "http://www.w3.org/Graphics/SVG/1.1/DTD/svg11.dtd">
<!-- Generated by graphviz version 2.43.0 (0)
 -->
<!-- Title: G Pages: 1 -->
<svg width="2018pt" height="302pt"
 viewBox="0.00 0.00 2018.00 301.50" xmlns="http://www.w3.org/2000/svg" xmlns:xlink="http://www.w3.org/1999/xlink">
<g id="graph0" class="graph" transform="scale(1 1) rotate(0) translate(4 297.5)">
<title>G</title>
<polygon fill="white" stroke="transparent" points="-4,4 -4,-297.5 2014,-297.5 2014,4 -4,4"/>
<!-- node_0 -->
<g id="node1" class="node">
<title>node_0</title>
<path fill="#e9f2ff" stroke="#6b8fd6" stroke-width="2" d="M12,-203C12,-203 106,-203 106,-203 112,-203 118,-209 118,-215 118,-215 118,-251 118,-251 118,-257 112,-263 106,-263 106,-263 12,-263 12,-263 6,-263 0,-257 0,-251 0,-251 0,-215 0,-215 0,-209 6,-203 12,-203"/>
<text text-anchor="middle" x="59" y="-250.2" font-family="Fira Mono" font-size="11.00">ind: 0</text>
<polyline fill="none" stroke="#6b8fd6" stroke-width="2" points="0,-243 118,-243 "/>
<text text-anchor="middle" x="59" y="-230.2" font-family="Fira Mono" font-size="11.00">val: 10101</text>
<polyline fill="none" stroke="#6b8fd6" stroke-width="2" points="0,-223 118,-223 "/>
<text text-anchor="middle" x="31" y="-210.2" font-family="Fira Mono" font-size="11.00">prev: 11</text>
<polyline fill="none" stroke="#6b8fd6" stroke-width="2" points="62,-203 62,-223 "/>
<text text-anchor="middle" x="90" y="-210.2" font-family="Fira Mono" font-size="11.00">next: 2</text>
</g>
<!-- node_1 -->
<g id="node2" class="node">
<title>node_1</title>
<path fill="#ffecec" stroke="#d66d66" d="M184,-203C184,-203 275,-203 275,-203 281,-203 287,-209 287,-215 287,-215 287,-251 287,-251 287,-257 281,-263 275,-263 275,-263 184,-263 184,-263 178,-263 172,-257 172,-251 172,-251 172,-215 172,-215 172,-209 178,-203 184,-203"/>
<text text-anchor="middle" x="229.5" y="-250.2" font-family="Fira Mono" font-size="11.00">ind: 1</text>
<polyline fill="none" stroke="#d66d66" points="172,-243 287,-243 "/>
<text text-anchor="middle" x="229.5" y="-230.2" font-family="Fira Mono" font-size="11.00">val: &#45;100</text>
<polyline fill="none" stroke="#d66d66" points="172,-223 287,-223 "/>
<text text-anchor="middle" x="201.5" y="-210.2" font-family="Fira Mono" font-size="11.00">prev: &#45;1</text>
<polyline fill="none" stroke="#d66d66" points="231,-203 231,-223 "/>
<text text-anchor="middle" x="259" y="-210.2" font-family="Fira Mono" font-size="11.00">next: 6</text>
</g>
<!-- node_0&#45;&gt;node_1 -->
<!-- node_2 -->
<g id="node3" class="node">
<title>node_2</title>
<path fill="#e9fbf5" stroke="#5aa99b" d="M353,-203C353,-203 440,-203 440,-203 446,-203 452,-209 452,-215 452,-215 452,-251 452,-251 452,-257 446,-263 440,-263 440,-263 353,-263 353,-263 347,-263 341,-257 341,-251 341,-251 341,-215 341,-215 341,-209 347,-203 353,-203"/>
<text text-anchor="middle" x="396.5" y="-250.2" font-family="Fira Mono" font-size="11.00">ind: 2 (HEAD)</text>
<polyline fill="none" stroke="#5aa99b" points="341,-243 452,-243 "/>
<text text-anchor="middle" x="396.5" y="-230.2" font-family="Fira Mono" font-size="11.00">val: 40</text>
<polyline fill="none" stroke="#5aa99b" points="341,-223 452,-223 "/>
<text text-anchor="middle" x="368.5" y="-210.2" font-family="Fira Mono" font-size="11.00">prev: 0</text>
<polyline fill="none" stroke="#5aa99b" points="396,-203 396,-223 "/>
<text text-anchor="middle" x="424" y="-210.2" font-family="Fira Mono" font-size="11.00">next: 4</text>
</g>
<!-- node_0&#45;&gt;node_2 -->
<g id="edge13" class="edge">
<title>node_0&#45;&gt;node_2</title>
<path fill="none" stroke="#999999" d="M111,-192.86C111,-192.86 111,-180.67 111,-180.67 111,-180.67 397,-180.67 397,-180.67 397,-180.67 397,-192.86 397,-192.86"/>
<polygon fill="#999999" stroke="#999999" points="107.5,-192.86 111,-202.86 114.5,-192.86 107.5,-192.86"/>
<polygon fill="#999999" stroke="#999999" points="393.5,-192.86 397,-202.86 400.5,-192.86 393.5,-192.86"/>
</g>
<!-- node_1&#45;&gt;node_2 -->
<!-- node_6 -->
<g id="node7" class="node">
<title>node_6</title>
<path fill="#ffecec" stroke="#d66d66" d="M1060,-203C1060,-203 1154,-203 1154,-203 1160,-203 1166,-209 1166,-215 1166,-215 1166,-251 1166,-251 1166,-257 1160,-263 1154,-263 1154,-263 1060,-263 1060,-263 1054,-263 1048,-257 1048,-251 1048,-251 1048,-215 1048,-215 1048,-209 1054,-203 1060,-203"/>
<text text-anchor="middle" x="1107" y="-250.2" font-family="Fira Mono" font-size="11.00">ind: 6</text>
<polyline fill="none" stroke="#d66d66" points="1048,-243 1166,-243 "/>
<text text-anchor="middle" x="1107" y="-230.2" font-family="Fira Mono" font-size="11.00">val: &#45;100</text>
<polyline fill="none" stroke="#d66d66" points="1048,-223 1166,-223 "/>
<text text-anchor="middle" x="1079" y="-210.2" font-family="Fira Mono" font-size="11.00">prev: 10</text>
<polyline fill="none" stroke="#d66d66" points="1110,-203 1110,-223 "/>
<text text-anchor="middle" x="1138" y="-210.2" font-family="Fira Mono" font-size="11.00">next: 4</text>
</g>
<!-- node_1&#45;&gt;node_6 -->
<g id="edge12" class="edge">
<title>node_1&#45;&gt;node_6</title>
<path fill="none" stroke="#d88d88" stroke-dasharray="5,2" d="M230,-263.12C230,-275.72 230,-287.5 230,-287.5 230,-287.5 1078,-287.5 1078,-287.5 1078,-287.5 1078,-273.12 1078,-273.12"/>
<polygon fill="#d88d88" stroke="#d88d88" points="1081.5,-273.12 1078,-263.12 1074.5,-273.12 1081.5,-273.12"/>
</g>
<!-- node_3 -->
<g id="node4" class="node">
<title>node_3</title>
<path fill="#fff3e0" stroke="#000000" d="M518,-203C518,-203 645,-203 645,-203 651,-203 657,-209 657,-215 657,-215 657,-251 657,-251 657,-257 651,-263 645,-263 645,-263 518,-263 518,-263 512,-263 506,-257 506,-251 506,-251 506,-215 506,-215 506,-209 512,-203 518,-203"/>
<text text-anchor="middle" x="581.5" y="-250.2" font-family="Fira Mono" font-size="11.00">ind: 3</text>
<polyline fill="none" stroke="#000000" points="506,-243 657,-243 "/>
<text text-anchor="middle" x="581.5" y="-230.2" font-family="Fira Mono" font-size="11.00">val: 2</text>
<polyline fill="none" stroke="#000000" points="506,-223 657,-223 "/>
<text text-anchor="middle" x="540" y="-210.2" font-family="Fira Mono" font-size="11.00">prev: 150</text>
<polyline fill="none" stroke="#000000" points="574,-203 574,-223 "/>
<text text-anchor="middle" x="615.5" y="-210.2" font-family="Fira Mono" font-size="11.00">next: 10000</text>
</g>
<!-- node_2&#45;&gt;node_3 -->
<!-- node_4 -->
<g id="node5" class="node">
<title>node_4</title>
<path fill="#fff3e0" stroke="#000000" d="M723,-203C723,-203 810,-203 810,-203 816,-203 822,-209 822,-215 822,-215 822,-251 822,-251 822,-257 816,-263 810,-263 810,-263 723,-263 723,-263 717,-263 711,-257 711,-251 711,-251 711,-215 711,-215 711,-209 717,-203 723,-203"/>
<text text-anchor="middle" x="766.5" y="-250.2" font-family="Fira Mono" font-size="11.00">ind: 4</text>
<polyline fill="none" stroke="#000000" points="711,-243 822,-243 "/>
<text text-anchor="middle" x="766.5" y="-230.2" font-family="Fira Mono" font-size="11.00">val: 20</text>
<polyline fill="none" stroke="#000000" points="711,-223 822,-223 "/>
<text text-anchor="middle" x="738.5" y="-210.2" font-family="Fira Mono" font-size="11.00">prev: 3</text>
<polyline fill="none" stroke="#000000" points="766,-203 766,-223 "/>
<text text-anchor="middle" x="794" y="-210.2" font-family="Fira Mono" font-size="11.00">next: 7</text>
</g>
<!-- node_2&#45;&gt;node_4 -->
<g id="edge14" class="edge">
<title>node_2&#45;&gt;node_4</title>
<path fill="none" stroke="#ff0000" stroke-width="2.2" d="M397,-263.43C397,-270.25 397,-275.5 397,-275.5 397,-275.5 739,-275.5 739,-275.5 739,-275.5 739,-273.43 739,-273.43"/>
<polygon fill="#ff0000" stroke="#ff0000" stroke-width="2.2" points="742.5,-273.43 739,-263.43 735.5,-273.43 742.5,-273.43"/>
</g>
<!-- node_3&#45;&gt;node_4 -->
<!-- node_3&#45;&gt;node_4 -->
<g id="edge26" class="edge">
<title>node_3&#45;&gt;node_4</title>
<path fill="none" stroke="#ff0000" stroke-width="2.2" d="M657.01,-243.17C657.01,-243.17 700.78,-243.17 700.78,-243.17"/>
<polygon fill="#ff0000" stroke="#ff0000" stroke-width="2.2" points="700.78,-246.67 710.78,-243.17 700.78,-239.67 700.78,-246.67"/>
</g>
<!-- node_bad_n_3 -->
<g id="node13" class="node">
<title>node_bad_n_3</title>
<path fill="#d88d88" stroke="#d66d66" d="M605,-36C605,-36 558,-36 558,-36 552,-36 546,-30 546,-24 546,-24 546,-12 546,-12 546,-6 552,0 558,0 558,0 605,0 605,0 611,0 617,-6 617,-12 617,-12 617,-24 617,-24 617,-30 611,-36 605,-36"/>
<text text-anchor="middle" x="581.5" y="-21.2" font-family="Fira Mono" font-size="11.00">idx 10000</text>
<text text-anchor="middle" x="581.5" y="-9.2" font-family="Fira Mono" font-size="11.00">(N/A)</text>
</g>
<!-- node_3&#45;&gt;node_bad_n_3 -->
<g id="edge15" class="edge">
<title>node_3&#45;&gt;node_bad_n_3</title>
<path fill="none" stroke="#ffecec" stroke-width="2" d="M549,-202.65C549,-202.65 549,-46.2 549,-46.2"/>
<polygon fill="#ffecec" stroke="#ffecec" stroke-width="2" points="552.5,-46.2 549,-36.2 545.5,-46.2 552.5,-46.2"/>
</g>
<!-- node_3&#45;&gt;node_bad_n_3 -->
<!-- node_bad_p_3 -->
<g id="node14" class="node">
<title>node_bad_p_3</title>
<path fill="#d88d88" stroke="#d66d66" d="M598,-137C598,-137 565,-137 565,-137 559,-137 553,-131 553,-125 553,-125 553,-113 553,-113 553,-107 559,-101 565,-101 565,-101 598,-101 598,-101 604,-101 610,-107 610,-113 610,-113 610,-125 610,-125 610,-131 604,-137 598,-137"/>
<text text-anchor="middle" x="581.5" y="-122.2" font-family="Fira Mono" font-size="11.00">idx 150</text>
<text text-anchor="middle" x="581.5" y="-110.2" font-family="Fira Mono" font-size="11.00">(N/A)</text>
</g>
<!-- node_3&#45;&gt;node_bad_p_3 -->
<!-- node_5 -->
<g id="node6" class="node">
<title>node_5</title>
<path fill="#ffecec" stroke="#d66d66" d="M888,-203C888,-203 982,-203 982,-203 988,-203 994,-209 994,-215 994,-215 994,-251 994,-251 994,-257 988,-263 982,-263 982,-263 888,-263 888,-263 882,-263 876,-257 876,-251 876,-251 876,-215 876,-215 876,-209 882,-203 888,-203"/>
<text text-anchor="middle" x="935" y="-250.2" font-family="Fira Mono" font-size="11.00">ind: 5</text>
<polyline fill="none" stroke="#d66d66" points="876,-243 994,-243 "/>
<text text-anchor="middle" x="935" y="-230.2" font-family="Fira Mono" font-size="11.00">val: &#45;100</text>
<polyline fill="none" stroke="#d66d66" points="876,-223 994,-223 "/>
<text text-anchor="middle" x="905.5" y="-210.2" font-family="Fira Mono" font-size="11.00">prev: &#45;1</text>
<polyline fill="none" stroke="#d66d66" points="935,-203 935,-223 "/>
<text text-anchor="middle" x="964.5" y="-210.2" font-family="Fira Mono" font-size="11.00">next: &#45;1</text>
</g>
<!-- node_4&#45;&gt;node_5 -->
<!-- node_7 -->
<g id="node8" class="node">
<title>node_7</title>
<path fill="#fff3e0" stroke="#000000" d="M1232,-203C1232,-203 1319,-203 1319,-203 1325,-203 1331,-209 1331,-215 1331,-215 1331,-251 1331,-251 1331,-257 1325,-263 1319,-263 1319,-263 1232,-263 1232,-263 1226,-263 1220,-257 1220,-251 1220,-251 1220,-215 1220,-215 1220,-209 1226,-203 1232,-203"/>
<text text-anchor="middle" x="1275.5" y="-250.2" font-family="Fira Mono" font-size="11.00">ind: 7</text>
<polyline fill="none" stroke="#000000" points="1220,-243 1331,-243 "/>
<text text-anchor="middle" x="1275.5" y="-230.2" font-family="Fira Mono" font-size="11.00">val: 5</text>
<polyline fill="none" stroke="#000000" points="1220,-223 1331,-223 "/>
<text text-anchor="middle" x="1247.5" y="-210.2" font-family="Fira Mono" font-size="11.00">prev: 4</text>
<polyline fill="none" stroke="#000000" points="1275,-203 1275,-223 "/>
<text text-anchor="middle" x="1303" y="-210.2" font-family="Fira Mono" font-size="11.00">next: 8</text>
</g>
<!-- node_4&#45;&gt;node_7 -->
<g id="edge17" class="edge">
<title>node_4&#45;&gt;node_7</title>
<path fill="none" stroke="#999999" d="M767,-273.25C767,-273.25 767,-293.5 767,-293.5 767,-293.5 1276,-293.5 1276,-293.5 1276,-293.5 1276,-273.25 1276,-273.25"/>
<polygon fill="#999999" stroke="#999999" points="770.5,-273.25 767,-263.25 763.5,-273.25 770.5,-273.25"/>
<polygon fill="#999999" stroke="#999999" points="1279.5,-273.25 1276,-263.25 1272.5,-273.25 1279.5,-273.25"/>
</g>
<!-- node_5&#45;&gt;node_6 -->
<!-- node_6&#45;&gt;node_4 -->
<g id="edge18" class="edge">
<title>node_6&#45;&gt;node_4</title>
<path fill="none" stroke="#ff0000" stroke-width="2.2" d="M1107,-263.16C1107,-273.03 1107,-281.5 1107,-281.5 1107,-281.5 795,-281.5 795,-281.5 795,-281.5 795,-273.16 795,-273.16"/>
<polygon fill="#ff0000" stroke="#ff0000" stroke-width="2.2" points="798.5,-273.16 795,-263.16 791.5,-273.16 798.5,-273.16"/>
</g>
<!-- node_6&#45;&gt;node_7 -->
<!-- node_8 -->
<g id="node9" class="node">
<title>node_8</title>
<path fill="#fff3e0" stroke="#000000" d="M1397,-203C1397,-203 1484,-203 1484,-203 1490,-203 1496,-209 1496,-215 1496,-215 1496,-251 1496,-251 1496,-257 1490,-263 1484,-263 1484,-263 1397,-263 1397,-263 1391,-263 1385,-257 1385,-251 1385,-251 1385,-215 1385,-215 1385,-209 1391,-203 1397,-203"/>
<text text-anchor="middle" x="1440.5" y="-250.2" font-family="Fira Mono" font-size="11.00">ind: 8</text>
<polyline fill="none" stroke="#000000" points="1385,-243 1496,-243 "/>
<text text-anchor="middle" x="1440.5" y="-230.2" font-family="Fira Mono" font-size="11.00">val: 4</text>
<polyline fill="none" stroke="#000000" points="1385,-223 1496,-223 "/>
<text text-anchor="middle" x="1412.5" y="-210.2" font-family="Fira Mono" font-size="11.00">prev: 7</text>
<polyline fill="none" stroke="#000000" points="1440,-203 1440,-223 "/>
<text text-anchor="middle" x="1468" y="-210.2" font-family="Fira Mono" font-size="11.00">next: 9</text>
</g>
<!-- node_7&#45;&gt;node_8 -->
<!-- node_7&#45;&gt;node_8 -->
<g id="edge19" class="edge">
<title>node_7&#45;&gt;node_8</title>
<path fill="none" stroke="#999999" d="M1341.36,-243.17C1341.36,-243.17 1374.98,-243.17 1374.98,-243.17"/>
<polygon fill="#999999" stroke="#999999" points="1374.98,-246.67 1384.98,-243.17 1374.98,-239.67 1374.98,-246.67"/>
<polygon fill="#999999" stroke="#999999" points="1341.36,-239.67 1331.36,-243.17 1341.36,-246.67 1341.36,-239.67"/>
</g>
<!-- node_9 -->
<g id="node10" class="node">
<title>node_9</title>
<path fill="#fff3e0" stroke="#000000" d="M1562,-203C1562,-203 1655,-203 1655,-203 1661,-203 1667,-209 1667,-215 1667,-215 1667,-251 1667,-251 1667,-257 1661,-263 1655,-263 1655,-263 1562,-263 1562,-263 1556,-263 1550,-257 1550,-251 1550,-251 1550,-215 1550,-215 1550,-209 1556,-203 1562,-203"/>
<text text-anchor="middle" x="1608.5" y="-250.2" font-family="Fira Mono" font-size="11.00">ind: 9</text>
<polyline fill="none" stroke="#000000" points="1550,-243 1667,-243 "/>
<text text-anchor="middle" x="1608.5" y="-230.2" font-family="Fira Mono" font-size="11.00">val: 5</text>
<polyline fill="none" stroke="#000000" points="1550,-223 1667,-223 "/>
<text text-anchor="middle" x="1577.5" y="-210.2" font-family="Fira Mono" font-size="11.00">prev: 8</text>
<polyline fill="none" stroke="#000000" points="1605,-203 1605,-223 "/>
<text text-anchor="middle" x="1636" y="-210.2" font-family="Fira Mono" font-size="11.00">next: 10</text>
</g>
<!-- node_8&#45;&gt;node_9 -->
<!-- node_8&#45;&gt;node_9 -->
<g id="edge20" class="edge">
<title>node_8&#45;&gt;node_9</title>
<path fill="none" stroke="#999999" d="M1506.44,-243.17C1506.44,-243.17 1539.93,-243.17 1539.93,-243.17"/>
<polygon fill="#999999" stroke="#999999" points="1539.93,-246.67 1549.93,-243.17 1539.93,-239.67 1539.93,-246.67"/>
<polygon fill="#999999" stroke="#999999" points="1506.44,-239.67 1496.44,-243.17 1506.44,-246.67 1506.44,-239.67"/>
</g>
<!-- node_10 -->
<g id="node11" class="node">
<title>node_10</title>
<path fill="#fff3e0" stroke="#000000" d="M1733,-203C1733,-203 1826,-203 1826,-203 1832,-203 1838,-209 1838,-215 1838,-215 1838,-251 1838,-251 1838,-257 1832,-263 1826,-263 1826,-263 1733,-263 1733,-263 1727,-263 1721,-257 1721,-251 1721,-251 1721,-215 1721,-215 1721,-209 1727,-203 1733,-203"/>
<text text-anchor="middle" x="1779.5" y="-250.2" font-family="Fira Mono" font-size="11.00">ind: 10</text>
<polyline fill="none" stroke="#000000" points="1721,-243 1838,-243 "/>
<text text-anchor="middle" x="1779.5" y="-230.2" font-family="Fira Mono" font-size="11.00">val: 4</text>
<polyline fill="none" stroke="#000000" points="1721,-223 1838,-223 "/>
<text text-anchor="middle" x="1748.5" y="-210.2" font-family="Fira Mono" font-size="11.00">prev: 9</text>
<polyline fill="none" stroke="#000000" points="1776,-203 1776,-223 "/>
<text text-anchor="middle" x="1807" y="-210.2" font-family="Fira Mono" font-size="11.00">next: 11</text>
</g>
<!-- node_9&#45;&gt;node_10 -->
<!-- node_9&#45;&gt;node_10 -->
<g id="edge21" class="edge">
<title>node_9&#45;&gt;node_10</title>
<path fill="none" stroke="#999999" d="M1677.35,-243.17C1677.35,-243.17 1710.83,-243.17 1710.83,-243.17"/>
<polygon fill="#999999" stroke="#999999" points="1710.83,-246.67 1720.83,-243.17 1710.83,-239.67 1710.83,-246.67"/>
<polygon fill="#999999" stroke="#999999" points="1677.35,-239.67 1667.35,-243.17 1677.35,-246.67 1677.35,-239.67"/>
</g>
<!-- node_10&#45;&gt;node_6 -->
<g id="edge27" class="edge">
<title>node_10&#45;&gt;node_6</title>
<path fill="none" stroke="#ff0000" stroke-width="2.2" d="M1780,-263.14C1780,-266.92 1780,-269.5 1780,-269.5 1780,-269.5 1137,-269.5 1137,-269.5 1137,-269.5 1137,-268.86 1137,-268.86"/>
<polygon fill="#ff0000" stroke="#ff0000" stroke-width="2.2" points="1140.5,-273.14 1137,-263.14 1133.5,-273.14 1140.5,-273.14"/>
</g>
<!-- node_11 -->
<g id="node12" class="node">
<title>node_11</title>
<path fill="#f1eafd" stroke="#8e6bd6" d="M1904,-203C1904,-203 1998,-203 1998,-203 2004,-203 2010,-209 2010,-215 2010,-215 2010,-251 2010,-251 2010,-257 2004,-263 1998,-263 1998,-263 1904,-263 1904,-263 1898,-263 1892,-257 1892,-251 1892,-251 1892,-215 1892,-215 1892,-209 1898,-203 1904,-203"/>
<text text-anchor="middle" x="1951" y="-250.2" font-family="Fira Mono" font-size="11.00">ind: 11 (TAIL)</text>
<polyline fill="none" stroke="#8e6bd6" points="1892,-243 2010,-243 "/>
<text text-anchor="middle" x="1951" y="-230.2" font-family="Fira Mono" font-size="11.00">val: 3</text>
<polyline fill="none" stroke="#8e6bd6" points="1892,-223 2010,-223 "/>
<text text-anchor="middle" x="1923" y="-210.2" font-family="Fira Mono" font-size="11.00">prev: 10</text>
<polyline fill="none" stroke="#8e6bd6" points="1954,-203 1954,-223 "/>
<text text-anchor="middle" x="1982" y="-210.2" font-family="Fira Mono" font-size="11.00">next: 0</text>
</g>
<!-- node_10&#45;&gt;node_11 -->
<!-- node_10&#45;&gt;node_11 -->
<g id="edge22" class="edge">
<title>node_10&#45;&gt;node_11</title>
<path fill="none" stroke="#999999" d="M1848.04,-243.17C1848.04,-243.17 1881.85,-243.17 1881.85,-243.17"/>
<polygon fill="#999999" stroke="#999999" points="1881.85,-246.67 1891.85,-243.17 1881.85,-239.67 1881.85,-246.67"/>
<polygon fill="#999999" stroke="#999999" points="1848.04,-239.67 1838.04,-243.17 1848.04,-246.67 1848.04,-239.67"/>
</g>
<!-- node_11&#45;&gt;node_0 -->
<g id="edge23" class="edge">
<title>node_11&#45;&gt;node_0</title>
<path fill="none" stroke="#999999" d="M1951,-192.83C1951,-192.83 1951,-158.83 1951,-158.83 1951,-158.83 103,-158.83 103,-158.83 103,-158.83 103,-192.83 103,-192.83"/>
<polygon fill="#999999" stroke="#999999" points="1947.5,-192.83 1951,-202.83 1954.5,-192.83 1947.5,-192.83"/>
<polygon fill="#999999" stroke="#999999" points="99.5,-192.83 103,-202.83 106.5,-192.83 99.5,-192.83"/>
</g>
<!-- node_bad_p_3&#45;&gt;node_3 -->
<g id="edge24" class="edge">
<title>node_bad_p_3&#45;&gt;node_3</title>
<path fill="none" stroke="#ffecec" stroke-width="2" d="M591,-137.06C591,-137.06 591,-192.59 591,-192.59"/>
<polygon fill="#ffecec" stroke="#ffecec" stroke-width="2" points="587.5,-192.59 591,-202.59 594.5,-192.59 587.5,-192.59"/>
</g>
<!-- node_free -->
<g id="node15" class="node">
<title>node_free</title>
<path fill="#ffecec" stroke="#d66d66" d="M82.5,-137C82.5,-137 35.5,-137 35.5,-137 29.5,-137 23.5,-131 23.5,-125 23.5,-125 23.5,-113 23.5,-113 23.5,-107 29.5,-101 35.5,-101 35.5,-101 82.5,-101 82.5,-101 88.5,-101 94.5,-107 94.5,-113 94.5,-113 94.5,-125 94.5,-125 94.5,-131 88.5,-137 82.5,-137"/>
<text text-anchor="middle" x="59" y="-116.2" font-family="Fira Mono" font-size="11.00">free_head</text>
</g>
<!-- node_free&#45;&gt;node_1 -->
<g id="edge28" class="edge">
<title>node_free&#45;&gt;node_1</title>
<path fill="none" stroke="#d88d88" stroke-dasharray="5,2" d="M94.85,-119C144.99,-119 230,-119 230,-119 230,-119 230,-192.75 230,-192.75"/>
<polygon fill="#d88d88" stroke="#d88d88" points="226.5,-192.75 230,-202.75 233.5,-192.75 226.5,-192.75"/>
</g>
</g>
</svg>
