<?xml version="1.0" encoding="UTF-8" standalone="no"?>
<!DOCTYPE svg PUBLIC "-//W3C//DTD SVG 1.1//EN"
 "http://www.w3.org/Graphics/SVG/1.1/DTD/svg11.dtd">
<!-- Generated by graphviz version 2.43.0 (0)
 -->
<!-- Title: G Pages: 1 -->
<svg width="562pt" height="99pt"
 viewBox="0.00 0.00 562.00 99.25" xmlns="http://www.w3.org/2000/svg" xmlns:xlink="http://www.w3.org/1999/xlink">
<g id="graph0" class="graph" transform="scale(0.35 0.35) rotate(0) translate(4 283.5)">
<title>G</title>
<polygon fill="white" stroke="transparent" points="-4,4 -4,-283.5 1624,-283.5 1624,4 -4,4"/>
<!-- node_0 -->
<g id="node1" class="node">
<title>node_0</title>
<path fill="#e9f2ff" stroke="#6b8fd6" stroke-width="2" d="M12,-195C12,-195 99,-195 99,-195 105,-195 111,-201 111,-207 111,-207 111,-243 111,-243 111,-249 105,-255 99,-255 99,-255 12,-255 12,-255 6,-255 0,-249 0,-243 0,-243 0,-207 0,-207 0,-201 6,-195 12,-195"/>
<text text-anchor="middle" x="55.5" y="-242.2" font-family="Fira Mono" font-size="11.00">ind: 0</text>
<polyline fill="none" stroke="#6b8fd6" stroke-width="2" points="0,-235 111,-235 "/>
<text text-anchor="middle" x="55.5" y="-222.2" font-family="Fira Mono" font-size="11.00">val: 10101</text>
<polyline fill="none" stroke="#6b8fd6" stroke-width="2" points="0,-215 111,-215 "/>
<text text-anchor="middle" x="27.5" y="-202.2" font-family="Fira Mono" font-size="11.00">prev: 3</text>
<polyline fill="none" stroke="#6b8fd6" stroke-width="2" points="55,-195 55,-215 "/>
<text text-anchor="middle" x="83" y="-202.2" font-family="Fira Mono" font-size="11.00">next: 1</text>
</g>
<!-- node_1 -->
<g id="node2" class="node">
<title>node_1</title>
<path fill="#e9fbf5" stroke="#5aa99b" d="M177,-195C177,-195 264,-195 264,-195 270,-195 276,-201 276,-207 276,-207 276,-243 276,-243 276,-249 270,-255 264,-255 264,-255 177,-255 177,-255 171,-255 165,-249 165,-243 165,-243 165,-207 165,-207 165,-201 171,-195 177,-195"/>
<text text-anchor="middle" x="220.5" y="-242.2" font-family="Fira Mono" font-size="11.00">ind: 1 (HEAD)</text>
<polyline fill="none" stroke="#5aa99b" points="165,-235 276,-235 "/>
<text text-anchor="middle" x="220.5" y="-222.2" font-family="Fira Mono" font-size="11.00">val: 2</text>
<polyline fill="none" stroke="#5aa99b" points="165,-215 276,-215 "/>
<text text-anchor="middle" x="192.5" y="-202.2" font-family="Fira Mono" font-size="11.00">prev: 0</text>
<polyline fill="none" stroke="#5aa99b" points="220,-195 220,-215 "/>
<text text-anchor="middle" x="248" y="-202.2" font-family="Fira Mono" font-size="11.00">next: 2</text>
</g>
<!-- node_0&#45;&gt;node_1 -->
<!-- node_0&#45;&gt;node_1 -->
<g id="edge11" class="edge">
<title>node_0&#45;&gt;node_1</title>
<path fill="none" stroke="#999999" d="M121.36,-235.17C121.36,-235.17 154.98,-235.17 154.98,-235.17"/>
<polygon fill="#999999" stroke="#999999" points="154.98,-238.67 164.98,-235.17 154.98,-231.67 154.98,-238.67"/>
<polygon fill="#999999" stroke="#999999" points="121.36,-231.67 111.36,-235.17 121.36,-238.67 121.36,-231.67"/>
</g>
<!-- node_2 -->
<g id="node3" class="node">
<title>node_2</title>
<path fill="#fff3e0" stroke="#000000" d="M342,-195C342,-195 429,-195 429,-195 435,-195 441,-201 441,-207 441,-207 441,-243 441,-243 441,-249 435,-255 429,-255 429,-255 342,-255 342,-255 336,-255 330,-249 330,-243 330,-243 330,-207 330,-207 330,-201 336,-195 342,-195"/>
<text text-anchor="middle" x="385.5" y="-242.2" font-family="Fira Mono" font-size="11.00">ind: 2</text>
<polyline fill="none" stroke="#000000" points="330,-235 441,-235 "/>
<text text-anchor="middle" x="385.5" y="-222.2" font-family="Fira Mono" font-size="11.00">val: 1</text>
<polyline fill="none" stroke="#000000" points="330,-215 441,-215 "/>
<text text-anchor="middle" x="357.5" y="-202.2" font-family="Fira Mono" font-size="11.00">prev: 1</text>
<polyline fill="none" stroke="#000000" points="385,-195 385,-215 "/>
<text text-anchor="middle" x="413" y="-202.2" font-family="Fira Mono" font-size="11.00">next: 5</text>
</g>
<!-- node_1&#45;&gt;node_2 -->
<!-- node_1&#45;&gt;node_2 -->
<g id="edge12" class="edge">
<title>node_1&#45;&gt;node_2</title>
<path fill="none" stroke="#999999" d="M286.36,-235.17C286.36,-235.17 319.98,-235.17 319.98,-235.17"/>
<polygon fill="#999999" stroke="#999999" points="319.98,-238.67 329.98,-235.17 319.98,-231.67 319.98,-238.67"/>
<polygon fill="#999999" stroke="#999999" points="286.36,-231.67 276.36,-235.17 286.36,-238.67 286.36,-231.67"/>
</g>
<!-- node_3 -->
<g id="node4" class="node">
<title>node_3</title>
<path fill="#f1eafd" stroke="#8e6bd6" d="M507,-195C507,-195 607,-195 607,-195 613,-195 619,-201 619,-207 619,-207 619,-243 619,-243 619,-249 613,-255 607,-255 607,-255 507,-255 507,-255 501,-255 495,-249 495,-243 495,-243 495,-207 495,-207 495,-201 501,-195 507,-195"/>
<text text-anchor="middle" x="557" y="-242.2" font-family="Fira Mono" font-size="11.00">ind: 3 (TAIL)</text>
<polyline fill="none" stroke="#8e6bd6" points="495,-235 619,-235 "/>
<text text-anchor="middle" x="557" y="-222.2" font-family="Fira Mono" font-size="11.00">val: 3</text>
<polyline fill="none" stroke="#8e6bd6" points="495,-215 619,-215 "/>
<text text-anchor="middle" x="529" y="-202.2" font-family="Fira Mono" font-size="11.00">prev: 150</text>
<polyline fill="none" stroke="#8e6bd6" points="563,-195 563,-215 "/>
<text text-anchor="middle" x="591" y="-202.2" font-family="Fira Mono" font-size="11.00">next: 0</text>
</g>
<!-- node_2&#45;&gt;node_3 -->
<!-- node_5 -->
<g id="node6" class="node">
<title>node_5</title>
<path fill="#fff3e0" stroke="#000000" d="M850,-195C850,-195 937,-195 937,-195 943,-195 949,-201 949,-207 949,-207 949,-243 949,-243 949,-249 943,-255 937,-255 937,-255 850,-255 850,-255 844,-255 838,-249 838,-243 838,-243 838,-207 838,-207 838,-201 844,-195 850,-195"/>
<text text-anchor="middle" x="893.5" y="-242.2" font-family="Fira Mono" font-size="11.00">ind: 5</text>
<polyline fill="none" stroke="#000000" points="838,-235 949,-235 "/>
<text text-anchor="middle" x="893.5" y="-222.2" font-family="Fira Mono" font-size="11.00">val: 5</text>
<polyline fill="none" stroke="#000000" points="838,-215 949,-215 "/>
<text text-anchor="middle" x="865.5" y="-202.2" font-family="Fira Mono" font-size="11.00">prev: 2</text>
<polyline fill="none" stroke="#000000" points="893,-195 893,-215 "/>
<text text-anchor="middle" x="921" y="-202.2" font-family="Fira Mono" font-size="11.00">next: 4</text>
</g>
<!-- node_2&#45;&gt;node_5 -->
<g id="edge13" class="edge">
<title>node_2&#45;&gt;node_5</title>
<path fill="none" stroke="#999999" d="M386,-265.43C386,-265.43 386,-267.5 386,-267.5 386,-267.5 894,-267.5 894,-267.5 894,-267.5 894,-265.43 894,-265.43"/>
<polygon fill="#999999" stroke="#999999" points="389.5,-265.43 386,-255.43 382.5,-265.43 389.5,-265.43"/>
<polygon fill="#999999" stroke="#999999" points="897.5,-265.43 894,-255.43 890.5,-265.43 897.5,-265.43"/>
</g>
<!-- node_3&#45;&gt;node_0 -->
<g id="edge14" class="edge">
<title>node_3&#45;&gt;node_0</title>
<path fill="none" stroke="#999999" d="M512,-184.86C512,-184.86 512,-172.67 512,-172.67 512,-172.67 101,-172.67 101,-172.67 101,-172.67 101,-184.86 101,-184.86"/>
<polygon fill="#999999" stroke="#999999" points="508.5,-184.86 512,-194.86 515.5,-184.86 508.5,-184.86"/>
<polygon fill="#999999" stroke="#999999" points="97.5,-184.86 101,-194.86 104.5,-184.86 97.5,-184.86"/>
</g>
<!-- node_4 -->
<g id="node5" class="node">
<title>node_4</title>
<path fill="#fff3e0" stroke="#000000" d="M685,-195C685,-195 772,-195 772,-195 778,-195 784,-201 784,-207 784,-207 784,-243 784,-243 784,-249 778,-255 772,-255 772,-255 685,-255 685,-255 679,-255 673,-249 673,-243 673,-243 673,-207 673,-207 673,-201 679,-195 685,-195"/>
<text text-anchor="middle" x="728.5" y="-242.2" font-family="Fira Mono" font-size="11.00">ind: 4</text>
<polyline fill="none" stroke="#000000" points="673,-235 784,-235 "/>
<text text-anchor="middle" x="728.5" y="-222.2" font-family="Fira Mono" font-size="11.00">val: 4</text>
<polyline fill="none" stroke="#000000" points="673,-215 784,-215 "/>
<text text-anchor="middle" x="700.5" y="-202.2" font-family="Fira Mono" font-size="11.00">prev: 5</text>
<polyline fill="none" stroke="#000000" points="728,-195 728,-215 "/>
<text text-anchor="middle" x="756" y="-202.2" font-family="Fira Mono" font-size="11.00">next: 7</text>
</g>
<!-- node_3&#45;&gt;node_4 -->
<!-- node_bad_p_3 -->
<g id="node11" class="node">
<title>node_bad_p_3</title>
<path fill="#ffecec" stroke="#000000" d="M573.5,-129C573.5,-129 540.5,-129 540.5,-129 534.5,-129 528.5,-123 528.5,-117 528.5,-117 528.5,-105 528.5,-105 528.5,-99 534.5,-93 540.5,-93 540.5,-93 573.5,-93 573.5,-93 579.5,-93 585.5,-99 585.5,-105 585.5,-105 585.5,-117 585.5,-117 585.5,-123 579.5,-129 573.5,-129"/>
<text text-anchor="middle" x="557" y="-114.2" font-family="Fira Mono" font-size="11.00">idx 150</text>
<text text-anchor="middle" x="557" y="-102.2" font-family="Fira Mono" font-size="11.00">(N/A)</text>
</g>
<!-- node_3&#45;&gt;node_bad_p_3 -->
<!-- node_4&#45;&gt;node_5 -->
<!-- node_7 -->
<g id="node8" class="node">
<title>node_7</title>
<path fill="#fff3e0" stroke="#000000" d="M1180,-195C1180,-195 1267,-195 1267,-195 1273,-195 1279,-201 1279,-207 1279,-207 1279,-243 1279,-243 1279,-249 1273,-255 1267,-255 1267,-255 1180,-255 1180,-255 1174,-255 1168,-249 1168,-243 1168,-243 1168,-207 1168,-207 1168,-201 1174,-195 1180,-195"/>
<text text-anchor="middle" x="1223.5" y="-242.2" font-family="Fira Mono" font-size="11.00">ind: 7</text>
<polyline fill="none" stroke="#000000" points="1168,-235 1279,-235 "/>
<text text-anchor="middle" x="1223.5" y="-222.2" font-family="Fira Mono" font-size="11.00">val: 5</text>
<polyline fill="none" stroke="#000000" points="1168,-215 1279,-215 "/>
<text text-anchor="middle" x="1195.5" y="-202.2" font-family="Fira Mono" font-size="11.00">prev: 4</text>
<polyline fill="none" stroke="#000000" points="1223,-195 1223,-215 "/>
<text text-anchor="middle" x="1251" y="-202.2" font-family="Fira Mono" font-size="11.00">next: 6</text>
</g>
<!-- node_4&#45;&gt;node_7 -->
<g id="edge15" class="edge">
<title>node_4&#45;&gt;node_7</title>
<path fill="none" stroke="#999999" d="M729,-265.12C729,-265.12 729,-279.5 729,-279.5 729,-279.5 1224,-279.5 1224,-279.5 1224,-279.5 1224,-265.12 1224,-265.12"/>
<polygon fill="#999999" stroke="#999999" points="732.5,-265.12 729,-255.12 725.5,-265.12 732.5,-265.12"/>
<polygon fill="#999999" stroke="#999999" points="1227.5,-265.12 1224,-255.12 1220.5,-265.12 1227.5,-265.12"/>
</g>
<!-- node_5&#45;&gt;node_4 -->
<g id="edge16" class="edge">
<title>node_5&#45;&gt;node_4</title>
<path fill="none" stroke="#999999" d="M827.64,-235.17C827.64,-235.17 794.02,-235.17 794.02,-235.17"/>
<polygon fill="#999999" stroke="#999999" points="794.02,-231.67 784.02,-235.17 794.02,-238.67 794.02,-231.67"/>
<polygon fill="#999999" stroke="#999999" points="827.64,-238.67 837.64,-235.17 827.64,-231.67 827.64,-238.67"/>
</g>
<!-- node_6 -->
<g id="node7" class="node">
<title>node_6</title>
<path fill="#fff3e0" stroke="#000000" d="M1015,-195C1015,-195 1102,-195 1102,-195 1108,-195 1114,-201 1114,-207 1114,-207 1114,-243 1114,-243 1114,-249 1108,-255 1102,-255 1102,-255 1015,-255 1015,-255 1009,-255 1003,-249 1003,-243 1003,-243 1003,-207 1003,-207 1003,-201 1009,-195 1015,-195"/>
<text text-anchor="middle" x="1058.5" y="-242.2" font-family="Fira Mono" font-size="11.00">ind: 6</text>
<polyline fill="none" stroke="#000000" points="1003,-235 1114,-235 "/>
<text text-anchor="middle" x="1058.5" y="-222.2" font-family="Fira Mono" font-size="11.00">val: 4</text>
<polyline fill="none" stroke="#000000" points="1003,-215 1114,-215 "/>
<text text-anchor="middle" x="1030.5" y="-202.2" font-family="Fira Mono" font-size="11.00">prev: 7</text>
<polyline fill="none" stroke="#000000" points="1058,-195 1058,-215 "/>
<text text-anchor="middle" x="1086" y="-202.2" font-family="Fira Mono" font-size="11.00">next: 3</text>
</g>
<!-- node_5&#45;&gt;node_6 -->
<!-- node_6&#45;&gt;node_3 -->
<g id="edge17" class="edge">
<title>node_6&#45;&gt;node_3</title>
<path fill="none" stroke="#6b8fd6" stroke-width="2.2" d="M1059,-194.83C1059,-174.3 1059,-150.83 1059,-150.83 1059,-150.83 603,-150.83 603,-150.83 603,-150.83 603,-184.83 603,-184.83"/>
<polygon fill="#6b8fd6" stroke="#6b8fd6" stroke-width="2.2" points="599.5,-184.83 603,-194.83 606.5,-184.83 599.5,-184.83"/>
</g>
<!-- node_6&#45;&gt;node_7 -->
<!-- node_7&#45;&gt;node_6 -->
<g id="edge18" class="edge">
<title>node_7&#45;&gt;node_6</title>
<path fill="none" stroke="#999999" d="M1157.64,-235.17C1157.64,-235.17 1124.02,-235.17 1124.02,-235.17"/>
<polygon fill="#999999" stroke="#999999" points="1124.02,-231.67 1114.02,-235.17 1124.02,-238.67 1124.02,-231.67"/>
<polygon fill="#999999" stroke="#999999" points="1157.64,-238.67 1167.64,-235.17 1157.64,-231.67 1157.64,-238.67"/>
</g>
<!-- node_8 -->
<g id="node9" class="node">
<title>node_8</title>
<path fill="#ffecec" stroke="#000000" d="M1345,-195C1345,-195 1436,-195 1436,-195 1442,-195 1448,-201 1448,-207 1448,-207 1448,-243 1448,-243 1448,-249 1442,-255 1436,-255 1436,-255 1345,-255 1345,-255 1339,-255 1333,-249 1333,-243 1333,-243 1333,-207 1333,-207 1333,-201 1339,-195 1345,-195"/>
<text text-anchor="middle" x="1390.5" y="-242.2" font-family="Fira Mono" font-size="11.00">ind: 8</text>
<polyline fill="none" stroke="#000000" points="1333,-235 1448,-235 "/>
<text text-anchor="middle" x="1390.5" y="-222.2" font-family="Fira Mono" font-size="11.00">val: &#45;1</text>
<polyline fill="none" stroke="#000000" points="1333,-215 1448,-215 "/>
<text text-anchor="middle" x="1362.5" y="-202.2" font-family="Fira Mono" font-size="11.00">prev: &#45;1</text>
<polyline fill="none" stroke="#000000" points="1392,-195 1392,-215 "/>
<text text-anchor="middle" x="1420" y="-202.2" font-family="Fira Mono" font-size="11.00">next: 9</text>
</g>
<!-- node_7&#45;&gt;node_8 -->
<!-- node_9 -->
<g id="node10" class="node">
<title>node_9</title>
<path fill="#ffecec" stroke="#000000" d="M1514,-195C1514,-195 1608,-195 1608,-195 1614,-195 1620,-201 1620,-207 1620,-207 1620,-243 1620,-243 1620,-249 1614,-255 1608,-255 1608,-255 1514,-255 1514,-255 1508,-255 1502,-249 1502,-243 1502,-243 1502,-207 1502,-207 1502,-201 1508,-195 1514,-195"/>
<text text-anchor="middle" x="1561" y="-242.2" font-family="Fira Mono" font-size="11.00">ind: 9</text>
<polyline fill="none" stroke="#000000" points="1502,-235 1620,-235 "/>
<text text-anchor="middle" x="1561" y="-222.2" font-family="Fira Mono" font-size="11.00">val: &#45;1</text>
<polyline fill="none" stroke="#000000" points="1502,-215 1620,-215 "/>
<text text-anchor="middle" x="1531.5" y="-202.2" font-family="Fira Mono" font-size="11.00">prev: &#45;1</text>
<polyline fill="none" stroke="#000000" points="1561,-195 1561,-215 "/>
<text text-anchor="middle" x="1590.5" y="-202.2" font-family="Fira Mono" font-size="11.00">next: &#45;1</text>
</g>
<!-- node_8&#45;&gt;node_9 -->
<!-- node_8&#45;&gt;node_9 -->
<g id="edge10" class="edge">
<title>node_8&#45;&gt;node_9</title>
<path fill="none" stroke="#000000" stroke-dasharray="5,2" d="M1448.22,-235.17C1448.22,-235.17 1491.88,-235.17 1491.88,-235.17"/>
<polygon fill="#000000" stroke="#000000" points="1491.88,-238.67 1501.88,-235.17 1491.88,-231.67 1491.88,-238.67"/>
</g>
<!-- node_bad_p_3&#45;&gt;node_3 -->
<g id="edge19" class="edge">
<title>node_bad_p_3&#45;&gt;node_3</title>
<path fill="none" stroke="#000000" stroke-width="2" d="M567,-129.06C567,-129.06 567,-184.59 567,-184.59"/>
<polygon fill="#000000" stroke="#000000" stroke-width="2" points="563.5,-184.59 567,-194.59 570.5,-184.59 563.5,-184.59"/>
</g>
<!-- node_free -->
<g id="node12" class="node">
<title>node_free</title>
<path fill="#ffecec" stroke="#000000" d="M79,-36C79,-36 32,-36 32,-36 26,-36 20,-30 20,-24 20,-24 20,-12 20,-12 20,-6 26,0 32,0 32,0 79,0 79,0 85,0 91,-6 91,-12 91,-12 91,-24 91,-24 91,-30 85,-36 79,-36"/>
<text text-anchor="middle" x="55.5" y="-15.2" font-family="Fira Mono" font-size="11.00">free_head</text>
</g>
<!-- node_free&#45;&gt;node_8 -->
<g id="edge21" class="edge">
<title>node_free&#45;&gt;node_8</title>
<path fill="none" stroke="#000000" stroke-dasharray="5,2" d="M91.22,-18C303.6,-18 1391,-18 1391,-18 1391,-18 1391,-184.9 1391,-184.9"/>
<polygon fill="#000000" stroke="#000000" points="1387.5,-184.9 1391,-194.9 1394.5,-184.9 1387.5,-184.9"/>
</g>
</g>
</svg>
