<?xml version="1.0" encoding="UTF-8" standalone="no"?>
<!DOCTYPE svg PUBLIC "-//W3C//DTD SVG 1.1//EN"
 "http://www.w3.org/Graphics/SVG/1.1/DTD/svg11.dtd">
<!-- Generated by graphviz version 2.43.0 (0)
 -->
<!-- Title: G Pages: 1 -->
<svg width="437pt" height="306pt"
 viewBox="0.00 0.00 437.00 306.49" xmlns="http://www.w3.org/2000/svg" xmlns:xlink="http://www.w3.org/1999/xlink">
<g id="graph0" class="graph" transform="scale(1 1) rotate(-90) translate(-302.49 433)">
<title>G</title>
<polygon fill="white" stroke="transparent" points="-4,4 -4,-433 302.49,-433 302.49,4 -4,4"/>
<!-- node0 -->
<g id="node1" class="node">
<title>node0</title>
<path fill="lightblue" stroke="blue" stroke-width="3" d="M286.49,-372C286.49,-372 146.49,-372 146.49,-372 140.49,-372 134.49,-366 134.49,-360 134.49,-360 134.49,-324 134.49,-324 134.49,-318 140.49,-312 146.49,-312 146.49,-312 286.49,-312 286.49,-312 292.49,-312 298.49,-318 298.49,-324 298.49,-324 298.49,-360 298.49,-360 298.49,-366 292.49,-372 286.49,-372"/>
<text text-anchor="middle" x="216.49" y="-358.4" font-family="Times,serif" font-size="12.00">index: 0</text>
<text text-anchor="middle" x="216.49" y="-345.4" font-family="Times,serif" font-size="12.00">next: 0</text>
<text text-anchor="middle" x="216.49" y="-332.4" font-family="Times,serif" font-size="12.00">value: 0</text>
<text text-anchor="middle" x="216.49" y="-319.4" font-family="Times,serif" font-size="12.00">prev: 140733073542688</text>
</g>
<!-- node1 -->
<g id="node2" class="node">
<title>node1</title>
<path fill="lightcoral" stroke="green" stroke-width="3" d="M286.49,-294C286.49,-294 146.49,-294 146.49,-294 140.49,-294 134.49,-288 134.49,-282 134.49,-282 134.49,-246 134.49,-246 134.49,-240 140.49,-234 146.49,-234 146.49,-234 286.49,-234 286.49,-234 292.49,-234 298.49,-240 298.49,-246 298.49,-246 298.49,-282 298.49,-282 298.49,-288 292.49,-294 286.49,-294"/>
<text text-anchor="middle" x="216.49" y="-280.4" font-family="Times,serif" font-size="12.00">index: 1</text>
<text text-anchor="middle" x="216.49" y="-267.4" font-family="Times,serif" font-size="12.00">next: 2</text>
<text text-anchor="middle" x="216.49" y="-254.4" font-family="Times,serif" font-size="12.00">value: &#45;1</text>
<text text-anchor="middle" x="216.49" y="-241.4" font-family="Times,serif" font-size="12.00">prev: 140733073542688</text>
</g>
<!-- node0&#45;&gt;node1 -->
<!-- node2 -->
<g id="node3" class="node">
<title>node2</title>
<path fill="lightcoral" stroke="black" stroke-width="3" d="M286.49,-216C286.49,-216 146.49,-216 146.49,-216 140.49,-216 134.49,-210 134.49,-204 134.49,-204 134.49,-168 134.49,-168 134.49,-162 140.49,-156 146.49,-156 146.49,-156 286.49,-156 286.49,-156 292.49,-156 298.49,-162 298.49,-168 298.49,-168 298.49,-204 298.49,-204 298.49,-210 292.49,-216 286.49,-216"/>
<text text-anchor="middle" x="216.49" y="-202.4" font-family="Times,serif" font-size="12.00">index: 2</text>
<text text-anchor="middle" x="216.49" y="-189.4" font-family="Times,serif" font-size="12.00">next: 3</text>
<text text-anchor="middle" x="216.49" y="-176.4" font-family="Times,serif" font-size="12.00">value: &#45;1</text>
<text text-anchor="middle" x="216.49" y="-163.4" font-family="Times,serif" font-size="12.00">prev: 140733073542688</text>
</g>
<!-- node1&#45;&gt;node2 -->
<!-- node1&#45;&gt;node2 -->
<g id="edge5" class="edge">
<title>node1&#45;&gt;node2</title>
<path fill="none" stroke="red" stroke-width="3" d="M216.49,-233.73C216.49,-231.26 216.49,-228.79 216.49,-226.32"/>
<polygon fill="red" stroke="red" stroke-width="3" points="219.99,-226.16 216.49,-216.16 212.99,-226.16 219.99,-226.16"/>
</g>
<!-- node1&#45;&gt;node2 -->
<g id="edge8" class="edge">
<title>node1&#45;&gt;node2</title>
<path fill="none" stroke="gray" stroke-dasharray="1,5" d="M158.07,-233.73C156.2,-231.08 155.18,-228.42 155.02,-225.77"/>
<polygon fill="gray" stroke="gray" points="158.38,-226.76 158.15,-216.16 151.72,-224.59 158.38,-226.76"/>
</g>
<!-- node3 -->
<g id="node4" class="node">
<title>node3</title>
<path fill="lightcoral" stroke="black" stroke-width="3" d="M286.49,-138C286.49,-138 146.49,-138 146.49,-138 140.49,-138 134.49,-132 134.49,-126 134.49,-126 134.49,-90 134.49,-90 134.49,-84 140.49,-78 146.49,-78 146.49,-78 286.49,-78 286.49,-78 292.49,-78 298.49,-84 298.49,-90 298.49,-90 298.49,-126 298.49,-126 298.49,-132 292.49,-138 286.49,-138"/>
<text text-anchor="middle" x="216.49" y="-124.4" font-family="Times,serif" font-size="12.00">index: 3</text>
<text text-anchor="middle" x="216.49" y="-111.4" font-family="Times,serif" font-size="12.00">next: 4</text>
<text text-anchor="middle" x="216.49" y="-98.4" font-family="Times,serif" font-size="12.00">value: &#45;1</text>
<text text-anchor="middle" x="216.49" y="-85.4" font-family="Times,serif" font-size="12.00">prev: 140733073542688</text>
</g>
<!-- node2&#45;&gt;node3 -->
<!-- node2&#45;&gt;node3 -->
<g id="edge6" class="edge">
<title>node2&#45;&gt;node3</title>
<path fill="none" stroke="red" stroke-width="3" d="M216.49,-155.73C216.49,-153.26 216.49,-150.79 216.49,-148.32"/>
<polygon fill="red" stroke="red" stroke-width="3" points="219.99,-148.16 216.49,-138.16 212.99,-148.16 219.99,-148.16"/>
</g>
<!-- node2&#45;&gt;node3 -->
<g id="edge9" class="edge">
<title>node2&#45;&gt;node3</title>
<path fill="none" stroke="gray" stroke-dasharray="1,5" d="M158.07,-155.73C156.2,-153.08 155.18,-150.42 155.02,-147.77"/>
<polygon fill="gray" stroke="gray" points="158.38,-148.76 158.15,-138.16 151.72,-146.59 158.38,-148.76"/>
</g>
<!-- node4 -->
<g id="node5" class="node">
<title>node4</title>
<path fill="lightcoral" stroke="black" stroke-width="3" d="M286.49,-60C286.49,-60 146.49,-60 146.49,-60 140.49,-60 134.49,-54 134.49,-48 134.49,-48 134.49,-12 134.49,-12 134.49,-6 140.49,0 146.49,0 146.49,0 286.49,0 286.49,0 292.49,0 298.49,-6 298.49,-12 298.49,-12 298.49,-48 298.49,-48 298.49,-54 292.49,-60 286.49,-60"/>
<text text-anchor="middle" x="216.49" y="-46.4" font-family="Times,serif" font-size="12.00">index: 4</text>
<text text-anchor="middle" x="216.49" y="-33.4" font-family="Times,serif" font-size="12.00">next: 4294967295</text>
<text text-anchor="middle" x="216.49" y="-20.4" font-family="Times,serif" font-size="12.00">value: &#45;1</text>
<text text-anchor="middle" x="216.49" y="-7.4" font-family="Times,serif" font-size="12.00">prev: 140733073542688</text>
</g>
<!-- node3&#45;&gt;node4 -->
<!-- node3&#45;&gt;node4 -->
<g id="edge7" class="edge">
<title>node3&#45;&gt;node4</title>
<path fill="none" stroke="red" stroke-width="3" d="M216.49,-77.73C216.49,-75.26 216.49,-72.79 216.49,-70.32"/>
<polygon fill="red" stroke="red" stroke-width="3" points="219.99,-70.16 216.49,-60.16 212.99,-70.16 219.99,-70.16"/>
</g>
<!-- node3&#45;&gt;node4 -->
<g id="edge10" class="edge">
<title>node3&#45;&gt;node4</title>
<path fill="none" stroke="gray" stroke-dasharray="1,5" d="M158.07,-77.73C156.2,-75.08 155.18,-72.42 155.02,-69.77"/>
<polygon fill="gray" stroke="gray" points="158.38,-70.76 158.15,-60.16 151.72,-68.59 158.38,-70.76"/>
</g>
<!-- null_elem -->
<g id="node6" class="node">
<title>null_elem</title>
<ellipse fill="lightgray" stroke="black" cx="49.25" cy="-411" rx="32.75" ry="18"/>
<text text-anchor="middle" x="49.25" y="-407.9" font-family="Times,serif" font-size="12.00">NULL</text>
</g>
<!-- null_elem&#45;&gt;node0 -->
<g id="edge11" class="edge">
<title>null_elem&#45;&gt;node0</title>
<path fill="none" stroke="brown" d="M75.7,-400.37C91.56,-393.75 112.91,-384.83 134.16,-375.96"/>
<polygon fill="brown" stroke="brown" points="135.68,-379.12 143.56,-372.04 132.99,-372.66 135.68,-379.12"/>
</g>
<!-- free_head -->
<g id="node7" class="node">
<title>free_head</title>
<ellipse fill="lightgray" stroke="black" cx="49.25" cy="-249" rx="49.5" ry="18"/>
<text text-anchor="middle" x="49.25" y="-245.9" font-family="Times,serif" font-size="12.00">Free Head</text>
</g>
<!-- free_head&#45;&gt;node1 -->
<g id="edge12" class="edge">
<title>free_head&#45;&gt;node1</title>
<path fill="none" stroke="green" d="M97.16,-253.26C105.71,-254.03 114.89,-254.87 124.22,-255.71"/>
<polygon fill="green" stroke="green" points="124.1,-259.22 134.38,-256.64 124.73,-252.25 124.1,-259.22"/>
</g>
<!-- list_head -->
<g id="node8" class="node">
<title>list_head</title>
<ellipse fill="lightblue" stroke="black" cx="49.25" cy="-357" rx="46.34" ry="18"/>
<text text-anchor="middle" x="49.25" y="-353.9" font-family="Times,serif" font-size="12.00">List Head</text>
</g>
<!-- list_head&#45;&gt;node0 -->
<g id="edge13" class="edge">
<title>list_head&#45;&gt;node0</title>
<path fill="none" stroke="blue" d="M94.53,-352.98C103.88,-352.13 114.06,-351.21 124.43,-350.27"/>
<polygon fill="blue" stroke="blue" points="124.76,-353.75 134.4,-349.36 124.12,-346.78 124.76,-353.75"/>
</g>
<!-- list_tail -->
<g id="node9" class="node">
<title>list_tail</title>
<ellipse fill="orange" stroke="black" cx="49.25" cy="-303" rx="40.03" ry="18"/>
<text text-anchor="middle" x="49.25" y="-299.9" font-family="Times,serif" font-size="12.00">List Tail</text>
</g>
<!-- list_tail&#45;&gt;node0 -->
<g id="edge14" class="edge">
<title>list_tail&#45;&gt;node0</title>
<path fill="none" stroke="orange" d="M85.29,-311.27C96.88,-314.01 110.36,-317.19 124.17,-320.45"/>
<polygon fill="orange" stroke="orange" points="123.73,-323.94 134.26,-322.83 125.33,-317.12 123.73,-323.94"/>
</g>
</g>
</svg>
