<?xml version="1.0" encoding="UTF-8" standalone="no"?>
<!DOCTYPE svg PUBLIC "-//W3C//DTD SVG 1.1//EN"
 "http://www.w3.org/Graphics/SVG/1.1/DTD/svg11.dtd">
<!-- Generated by graphviz version 2.43.0 (0)
 -->
<!-- Title: G Pages: 1 -->
<svg width="478pt" height="189pt"
 viewBox="0.00 0.00 478.00 188.50" xmlns="http://www.w3.org/2000/svg" xmlns:xlink="http://www.w3.org/1999/xlink">
<g id="graph0" class="graph" transform="scale(1 1) rotate(0) translate(4 184.5)">
<title>G</title>
<polygon fill="white" stroke="transparent" points="-4,4 -4,-184.5 474,-184.5 474,4 -4,4"/>
<!-- node_0 -->
<g id="node1" class="node">
<title>node_0</title>
<path fill="#e9f2ff" stroke="#6b8fd6" stroke-width="2" d="M30,-102C30,-102 117,-102 117,-102 123,-102 129,-108 129,-114 129,-114 129,-150 129,-150 129,-156 123,-162 117,-162 117,-162 30,-162 30,-162 24,-162 18,-156 18,-150 18,-150 18,-114 18,-114 18,-108 24,-102 30,-102"/>
<text text-anchor="middle" x="73.5" y="-149.2" font-family="Fira Mono" font-size="11.00">ind: 0</text>
<polyline fill="none" stroke="#6b8fd6" stroke-width="2" points="18,-142 129,-142 "/>
<text text-anchor="middle" x="73.5" y="-129.2" font-family="Fira Mono" font-size="11.00">val: 10101</text>
<polyline fill="none" stroke="#6b8fd6" stroke-width="2" points="18,-122 129,-122 "/>
<text text-anchor="middle" x="45.5" y="-109.2" font-family="Fira Mono" font-size="11.00">prev: 0</text>
<polyline fill="none" stroke="#6b8fd6" stroke-width="2" points="73,-102 73,-122 "/>
<text text-anchor="middle" x="101" y="-109.2" font-family="Fira Mono" font-size="11.00">next: 0</text>
</g>
<!-- node_0&#45;&gt;node_0 -->
<g id="edge4" class="edge">
<title>node_0&#45;&gt;node_0</title>
<path fill="none" stroke="#999999" d="M7.79,-132C7.79,-132 0,-132 0,-132 0,-132 0,-180.5 0,-180.5 0,-180.5 156,-180.5 156,-180.5 156,-180.5 156,-142.17 156,-142.17 156,-142.17 139.44,-142.17 139.44,-142.17"/>
<polygon fill="#999999" stroke="#999999" points="7.79,-135.5 17.79,-132 7.79,-128.5 7.79,-135.5"/>
<polygon fill="#999999" stroke="#999999" points="139.44,-138.67 129.44,-142.17 139.44,-145.67 139.44,-138.67"/>
</g>
<!-- node_1 -->
<g id="node2" class="node">
<title>node_1</title>
<path fill="#ffecec" stroke="#d66d66" d="M195,-102C195,-102 286,-102 286,-102 292,-102 298,-108 298,-114 298,-114 298,-150 298,-150 298,-156 292,-162 286,-162 286,-162 195,-162 195,-162 189,-162 183,-156 183,-150 183,-150 183,-114 183,-114 183,-108 189,-102 195,-102"/>
<text text-anchor="middle" x="240.5" y="-149.2" font-family="Fira Mono" font-size="11.00">ind: 1</text>
<polyline fill="none" stroke="#d66d66" points="183,-142 298,-142 "/>
<text text-anchor="middle" x="240.5" y="-129.2" font-family="Fira Mono" font-size="11.00">val: &#45;100</text>
<polyline fill="none" stroke="#d66d66" points="183,-122 298,-122 "/>
<text text-anchor="middle" x="212.5" y="-109.2" font-family="Fira Mono" font-size="11.00">prev: &#45;1</text>
<polyline fill="none" stroke="#d66d66" points="242,-102 242,-122 "/>
<text text-anchor="middle" x="270" y="-109.2" font-family="Fira Mono" font-size="11.00">next: 2</text>
</g>
<!-- node_0&#45;&gt;node_1 -->
<!-- node_2 -->
<g id="node3" class="node">
<title>node_2</title>
<path fill="#ffecec" stroke="#d66d66" d="M364,-102C364,-102 458,-102 458,-102 464,-102 470,-108 470,-114 470,-114 470,-150 470,-150 470,-156 464,-162 458,-162 458,-162 364,-162 364,-162 358,-162 352,-156 352,-150 352,-150 352,-114 352,-114 352,-108 358,-102 364,-102"/>
<text text-anchor="middle" x="411" y="-149.2" font-family="Fira Mono" font-size="11.00">ind: 2</text>
<polyline fill="none" stroke="#d66d66" points="352,-142 470,-142 "/>
<text text-anchor="middle" x="411" y="-129.2" font-family="Fira Mono" font-size="11.00">val: &#45;100</text>
<polyline fill="none" stroke="#d66d66" points="352,-122 470,-122 "/>
<text text-anchor="middle" x="381.5" y="-109.2" font-family="Fira Mono" font-size="11.00">prev: &#45;1</text>
<polyline fill="none" stroke="#d66d66" points="411,-102 411,-122 "/>
<text text-anchor="middle" x="440.5" y="-109.2" font-family="Fira Mono" font-size="11.00">next: &#45;1</text>
</g>
<!-- node_1&#45;&gt;node_2 -->
<!-- node_1&#45;&gt;node_2 -->
<g id="edge3" class="edge">
<title>node_1&#45;&gt;node_2</title>
<path fill="none" stroke="#d88d88" stroke-dasharray="5,2" d="M298.22,-142.17C298.22,-142.17 341.88,-142.17 341.88,-142.17"/>
<polygon fill="#d88d88" stroke="#d88d88" points="341.88,-145.67 351.88,-142.17 341.88,-138.67 341.88,-145.67"/>
</g>
<!-- node_free -->
<g id="node4" class="node">
<title>node_free</title>
<path fill="#ffecec" stroke="#d66d66" d="M97,-36C97,-36 50,-36 50,-36 44,-36 38,-30 38,-24 38,-24 38,-12 38,-12 38,-6 44,0 50,0 50,0 97,0 97,0 103,0 109,-6 109,-12 109,-12 109,-24 109,-24 109,-30 103,-36 97,-36"/>
<text text-anchor="middle" x="73.5" y="-15.2" font-family="Fira Mono" font-size="11.00">free_head</text>
</g>
<!-- node_free&#45;&gt;node_1 -->
<g id="edge5" class="edge">
<title>node_free&#45;&gt;node_1</title>
<path fill="none" stroke="#d88d88" stroke-dasharray="5,2" d="M109.02,-18C158.19,-18 241,-18 241,-18 241,-18 241,-91.75 241,-91.75"/>
<polygon fill="#d88d88" stroke="#d88d88" points="237.5,-91.75 241,-101.75 244.5,-91.75 237.5,-91.75"/>
</g>
</g>
</svg>
