<?xml version="1.0" encoding="UTF-8" standalone="no"?>
<!DOCTYPE svg PUBLIC "-//W3C//DTD SVG 1.1//EN"
 "http://www.w3.org/Graphics/SVG/1.1/DTD/svg11.dtd">
<!-- Generated by graphviz version 2.43.0 (0)
 -->
<!-- Title: G Pages: 1 -->
<svg width="1973pt" height="375pt"
 viewBox="0.00 0.00 1973.00 374.50" xmlns="http://www.w3.org/2000/svg" xmlns:xlink="http://www.w3.org/1999/xlink">
<g id="graph0" class="graph" transform="scale(1 1) rotate(0) translate(4 370.5)">
<title>G</title>
<polygon fill="white" stroke="transparent" points="-4,4 -4,-370.5 1969,-370.5 1969,4 -4,4"/>
<!-- node_0 -->
<g id="node1" class="node">
<title>node_0</title>
<path fill="#e9f2ff" stroke="#6b8fd6" stroke-width="2" d="M12,-102C12,-102 106,-102 106,-102 112,-102 118,-108 118,-114 118,-114 118,-150 118,-150 118,-156 112,-162 106,-162 106,-162 12,-162 12,-162 6,-162 0,-156 0,-150 0,-150 0,-114 0,-114 0,-108 6,-102 12,-102"/>
<text text-anchor="middle" x="59" y="-149.2" font-family="Fira Mono" font-size="11.00">ind: 0</text>
<polyline fill="none" stroke="#6b8fd6" stroke-width="2" points="0,-142 118,-142 "/>
<text text-anchor="middle" x="59" y="-129.2" font-family="Fira Mono" font-size="11.00">val: 10101</text>
<polyline fill="none" stroke="#6b8fd6" stroke-width="2" points="0,-122 118,-122 "/>
<text text-anchor="middle" x="31" y="-109.2" font-family="Fira Mono" font-size="11.00">prev: 11</text>
<polyline fill="none" stroke="#6b8fd6" stroke-width="2" points="62,-102 62,-122 "/>
<text text-anchor="middle" x="90" y="-109.2" font-family="Fira Mono" font-size="11.00">next: 1</text>
</g>
<!-- node_1 -->
<g id="node2" class="node">
<title>node_1</title>
<path fill="#e9fbf5" stroke="#5aa99b" d="M184,-102C184,-102 271,-102 271,-102 277,-102 283,-108 283,-114 283,-114 283,-150 283,-150 283,-156 277,-162 271,-162 271,-162 184,-162 184,-162 178,-162 172,-156 172,-150 172,-150 172,-114 172,-114 172,-108 178,-102 184,-102"/>
<text text-anchor="middle" x="227.5" y="-149.2" font-family="Fira Mono" font-size="11.00">ind: 1 (HEAD)</text>
<polyline fill="none" stroke="#5aa99b" points="172,-142 283,-142 "/>
<text text-anchor="middle" x="227.5" y="-129.2" font-family="Fira Mono" font-size="11.00">val: 10</text>
<polyline fill="none" stroke="#5aa99b" points="172,-122 283,-122 "/>
<text text-anchor="middle" x="199.5" y="-109.2" font-family="Fira Mono" font-size="11.00">prev: 0</text>
<polyline fill="none" stroke="#5aa99b" points="227,-102 227,-122 "/>
<text text-anchor="middle" x="255" y="-109.2" font-family="Fira Mono" font-size="11.00">next: 2</text>
</g>
<!-- node_0&#45;&gt;node_1 -->
<!-- node_0&#45;&gt;node_1 -->
<g id="edge12" class="edge">
<title>node_0&#45;&gt;node_1</title>
<path fill="none" stroke="#999999" d="M128.41,-142.17C128.41,-142.17 161.73,-142.17 161.73,-142.17"/>
<polygon fill="#999999" stroke="#999999" points="161.73,-145.67 171.73,-142.17 161.73,-138.67 161.73,-145.67"/>
<polygon fill="#999999" stroke="#999999" points="128.41,-138.67 118.41,-142.17 128.41,-145.67 128.41,-138.67"/>
</g>
<!-- node_2 -->
<g id="node3" class="node">
<title>node_2</title>
<path fill="#fff3e0" stroke="#000000" d="M349,-102C349,-102 436,-102 436,-102 442,-102 448,-108 448,-114 448,-114 448,-150 448,-150 448,-156 442,-162 436,-162 436,-162 349,-162 349,-162 343,-162 337,-156 337,-150 337,-150 337,-114 337,-114 337,-108 343,-102 349,-102"/>
<text text-anchor="middle" x="392.5" y="-149.2" font-family="Fira Mono" font-size="11.00">ind: 2</text>
<polyline fill="none" stroke="#000000" points="337,-142 448,-142 "/>
<text text-anchor="middle" x="392.5" y="-129.2" font-family="Fira Mono" font-size="11.00">val: 40</text>
<polyline fill="none" stroke="#000000" points="337,-122 448,-122 "/>
<text text-anchor="middle" x="364.5" y="-109.2" font-family="Fira Mono" font-size="11.00">prev: 1</text>
<polyline fill="none" stroke="#000000" points="392,-102 392,-122 "/>
<text text-anchor="middle" x="420" y="-109.2" font-family="Fira Mono" font-size="11.00">next: 3</text>
</g>
<!-- node_1&#45;&gt;node_2 -->
<!-- node_1&#45;&gt;node_2 -->
<g id="edge13" class="edge">
<title>node_1&#45;&gt;node_2</title>
<path fill="none" stroke="#999999" d="M293.36,-142.17C293.36,-142.17 326.98,-142.17 326.98,-142.17"/>
<polygon fill="#999999" stroke="#999999" points="326.98,-145.67 336.98,-142.17 326.98,-138.67 326.98,-145.67"/>
<polygon fill="#999999" stroke="#999999" points="293.36,-138.67 283.36,-142.17 293.36,-145.67 293.36,-138.67"/>
</g>
<!-- node_3 -->
<g id="node4" class="node">
<title>node_3</title>
<path fill="#fff3e0" stroke="#000000" d="M514,-102C514,-102 614,-102 614,-102 620,-102 626,-108 626,-114 626,-114 626,-150 626,-150 626,-156 620,-162 614,-162 614,-162 514,-162 514,-162 508,-162 502,-156 502,-150 502,-150 502,-114 502,-114 502,-108 508,-102 514,-102"/>
<text text-anchor="middle" x="564" y="-149.2" font-family="Fira Mono" font-size="11.00">ind: 3</text>
<polyline fill="none" stroke="#000000" points="502,-142 626,-142 "/>
<text text-anchor="middle" x="564" y="-129.2" font-family="Fira Mono" font-size="11.00">val: 2</text>
<polyline fill="none" stroke="#000000" points="502,-122 626,-122 "/>
<text text-anchor="middle" x="536" y="-109.2" font-family="Fira Mono" font-size="11.00">prev: 150</text>
<polyline fill="none" stroke="#000000" points="570,-102 570,-122 "/>
<text text-anchor="middle" x="598" y="-109.2" font-family="Fira Mono" font-size="11.00">next: 4</text>
</g>
<!-- node_2&#45;&gt;node_3 -->
<!-- node_2&#45;&gt;node_3 -->
<g id="edge14" class="edge">
<title>node_2&#45;&gt;node_3</title>
<path fill="none" stroke="#6b8fd6" stroke-width="2.2" d="M448.18,-142.17C448.18,-142.17 491.77,-142.17 491.77,-142.17"/>
<polygon fill="#6b8fd6" stroke="#6b8fd6" stroke-width="2.2" points="491.77,-145.67 501.77,-142.17 491.77,-138.67 491.77,-145.67"/>
</g>
<!-- node_4 -->
<g id="node5" class="node">
<title>node_4</title>
<path fill="#fff3e0" stroke="#000000" d="M692,-102C692,-102 779,-102 779,-102 785,-102 791,-108 791,-114 791,-114 791,-150 791,-150 791,-156 785,-162 779,-162 779,-162 692,-162 692,-162 686,-162 680,-156 680,-150 680,-150 680,-114 680,-114 680,-108 686,-102 692,-102"/>
<text text-anchor="middle" x="735.5" y="-149.2" font-family="Fira Mono" font-size="11.00">ind: 4</text>
<polyline fill="none" stroke="#000000" points="680,-142 791,-142 "/>
<text text-anchor="middle" x="735.5" y="-129.2" font-family="Fira Mono" font-size="11.00">val: 20</text>
<polyline fill="none" stroke="#000000" points="680,-122 791,-122 "/>
<text text-anchor="middle" x="707.5" y="-109.2" font-family="Fira Mono" font-size="11.00">prev: 3</text>
<polyline fill="none" stroke="#000000" points="735,-102 735,-122 "/>
<text text-anchor="middle" x="763" y="-109.2" font-family="Fira Mono" font-size="11.00">next: 5</text>
</g>
<!-- node_3&#45;&gt;node_4 -->
<!-- node_3&#45;&gt;node_4 -->
<g id="edge15" class="edge">
<title>node_3&#45;&gt;node_4</title>
<path fill="none" stroke="#999999" d="M636.4,-142.17C636.4,-142.17 669.96,-142.17 669.96,-142.17"/>
<polygon fill="#999999" stroke="#999999" points="669.96,-145.67 679.96,-142.17 669.96,-138.67 669.96,-145.67"/>
<polygon fill="#999999" stroke="#999999" points="636.4,-138.67 626.4,-142.17 636.4,-145.67 636.4,-138.67"/>
</g>
<!-- node_bad_p_3 -->
<g id="node13" class="node">
<title>node_bad_p_3</title>
<path fill="#ffecec" stroke="#d66d66" d="M580.5,-36C580.5,-36 547.5,-36 547.5,-36 541.5,-36 535.5,-30 535.5,-24 535.5,-24 535.5,-12 535.5,-12 535.5,-6 541.5,0 547.5,0 547.5,0 580.5,0 580.5,0 586.5,0 592.5,-6 592.5,-12 592.5,-12 592.5,-24 592.5,-24 592.5,-30 586.5,-36 580.5,-36"/>
<text text-anchor="middle" x="564" y="-21.2" font-family="Fira Mono" font-size="11.00">idx 150</text>
<text text-anchor="middle" x="564" y="-9.2" font-family="Fira Mono" font-size="11.00">(N/A)</text>
</g>
<!-- node_3&#45;&gt;node_bad_p_3 -->
<!-- node_5 -->
<g id="node6" class="node">
<title>node_5</title>
<path fill="#fff3e0" stroke="#000000" d="M857,-102C857,-102 944,-102 944,-102 950,-102 956,-108 956,-114 956,-114 956,-150 956,-150 956,-156 950,-162 944,-162 944,-162 857,-162 857,-162 851,-162 845,-156 845,-150 845,-150 845,-114 845,-114 845,-108 851,-102 857,-102"/>
<text text-anchor="middle" x="900.5" y="-149.2" font-family="Fira Mono" font-size="11.00">ind: 5</text>
<polyline fill="none" stroke="#000000" points="845,-142 956,-142 "/>
<text text-anchor="middle" x="900.5" y="-129.2" font-family="Fira Mono" font-size="11.00">val: 1</text>
<polyline fill="none" stroke="#000000" points="845,-122 956,-122 "/>
<text text-anchor="middle" x="872.5" y="-109.2" font-family="Fira Mono" font-size="11.00">prev: 4</text>
<polyline fill="none" stroke="#000000" points="900,-102 900,-122 "/>
<text text-anchor="middle" x="928" y="-109.2" font-family="Fira Mono" font-size="11.00">next: 6</text>
</g>
<!-- node_4&#45;&gt;node_5 -->
<!-- node_4&#45;&gt;node_5 -->
<g id="edge16" class="edge">
<title>node_4&#45;&gt;node_5</title>
<path fill="none" stroke="#999999" d="M801.36,-142.17C801.36,-142.17 834.98,-142.17 834.98,-142.17"/>
<polygon fill="#999999" stroke="#999999" points="834.98,-145.67 844.98,-142.17 834.98,-138.67 834.98,-145.67"/>
<polygon fill="#999999" stroke="#999999" points="801.36,-138.67 791.36,-142.17 801.36,-145.67 801.36,-138.67"/>
</g>
<!-- node_6 -->
<g id="node7" class="node">
<title>node_6</title>
<path fill="#fff3e0" stroke="#000000" d="M1022,-102C1022,-102 1109,-102 1109,-102 1115,-102 1121,-108 1121,-114 1121,-114 1121,-150 1121,-150 1121,-156 1115,-162 1109,-162 1109,-162 1022,-162 1022,-162 1016,-162 1010,-156 1010,-150 1010,-150 1010,-114 1010,-114 1010,-108 1016,-102 1022,-102"/>
<text text-anchor="middle" x="1065.5" y="-149.2" font-family="Fira Mono" font-size="11.00">ind: 6</text>
<polyline fill="none" stroke="#000000" points="1010,-142 1121,-142 "/>
<text text-anchor="middle" x="1065.5" y="-129.2" font-family="Fira Mono" font-size="11.00">val: 30</text>
<polyline fill="none" stroke="#000000" points="1010,-122 1121,-122 "/>
<text text-anchor="middle" x="1037.5" y="-109.2" font-family="Fira Mono" font-size="11.00">prev: 5</text>
<polyline fill="none" stroke="#000000" points="1065,-102 1065,-122 "/>
<text text-anchor="middle" x="1093" y="-109.2" font-family="Fira Mono" font-size="11.00">next: 7</text>
</g>
<!-- node_5&#45;&gt;node_6 -->
<!-- node_5&#45;&gt;node_6 -->
<g id="edge17" class="edge">
<title>node_5&#45;&gt;node_6</title>
<path fill="none" stroke="#999999" d="M966.36,-142.17C966.36,-142.17 999.98,-142.17 999.98,-142.17"/>
<polygon fill="#999999" stroke="#999999" points="999.98,-145.67 1009.98,-142.17 999.98,-138.67 999.98,-145.67"/>
<polygon fill="#999999" stroke="#999999" points="966.36,-138.67 956.36,-142.17 966.36,-145.67 966.36,-138.67"/>
</g>
<!-- node_7 -->
<g id="node8" class="node">
<title>node_7</title>
<path fill="#fff3e0" stroke="#000000" d="M1187,-102C1187,-102 1274,-102 1274,-102 1280,-102 1286,-108 1286,-114 1286,-114 1286,-150 1286,-150 1286,-156 1280,-162 1274,-162 1274,-162 1187,-162 1187,-162 1181,-162 1175,-156 1175,-150 1175,-150 1175,-114 1175,-114 1175,-108 1181,-102 1187,-102"/>
<text text-anchor="middle" x="1230.5" y="-149.2" font-family="Fira Mono" font-size="11.00">ind: 7</text>
<polyline fill="none" stroke="#000000" points="1175,-142 1286,-142 "/>
<text text-anchor="middle" x="1230.5" y="-129.2" font-family="Fira Mono" font-size="11.00">val: 5</text>
<polyline fill="none" stroke="#000000" points="1175,-122 1286,-122 "/>
<text text-anchor="middle" x="1202.5" y="-109.2" font-family="Fira Mono" font-size="11.00">prev: 6</text>
<polyline fill="none" stroke="#000000" points="1230,-102 1230,-122 "/>
<text text-anchor="middle" x="1258" y="-109.2" font-family="Fira Mono" font-size="11.00">next: 8</text>
</g>
<!-- node_6&#45;&gt;node_7 -->
<!-- node_6&#45;&gt;node_7 -->
<g id="edge18" class="edge">
<title>node_6&#45;&gt;node_7</title>
<path fill="none" stroke="#999999" d="M1131.36,-142.17C1131.36,-142.17 1164.98,-142.17 1164.98,-142.17"/>
<polygon fill="#999999" stroke="#999999" points="1164.98,-145.67 1174.98,-142.17 1164.98,-138.67 1164.98,-145.67"/>
<polygon fill="#999999" stroke="#999999" points="1131.36,-138.67 1121.36,-142.17 1131.36,-145.67 1131.36,-138.67"/>
</g>
<!-- node_8 -->
<g id="node9" class="node">
<title>node_8</title>
<path fill="#fff3e0" stroke="#000000" d="M1352,-102C1352,-102 1439,-102 1439,-102 1445,-102 1451,-108 1451,-114 1451,-114 1451,-150 1451,-150 1451,-156 1445,-162 1439,-162 1439,-162 1352,-162 1352,-162 1346,-162 1340,-156 1340,-150 1340,-150 1340,-114 1340,-114 1340,-108 1346,-102 1352,-102"/>
<text text-anchor="middle" x="1395.5" y="-149.2" font-family="Fira Mono" font-size="11.00">ind: 8</text>
<polyline fill="none" stroke="#000000" points="1340,-142 1451,-142 "/>
<text text-anchor="middle" x="1395.5" y="-129.2" font-family="Fira Mono" font-size="11.00">val: 4</text>
<polyline fill="none" stroke="#000000" points="1340,-122 1451,-122 "/>
<text text-anchor="middle" x="1367.5" y="-109.2" font-family="Fira Mono" font-size="11.00">prev: 7</text>
<polyline fill="none" stroke="#000000" points="1395,-102 1395,-122 "/>
<text text-anchor="middle" x="1423" y="-109.2" font-family="Fira Mono" font-size="11.00">next: 9</text>
</g>
<!-- node_7&#45;&gt;node_8 -->
<!-- node_7&#45;&gt;node_8 -->
<g id="edge19" class="edge">
<title>node_7&#45;&gt;node_8</title>
<path fill="none" stroke="#999999" d="M1296.36,-142.17C1296.36,-142.17 1329.98,-142.17 1329.98,-142.17"/>
<polygon fill="#999999" stroke="#999999" points="1329.98,-145.67 1339.98,-142.17 1329.98,-138.67 1329.98,-145.67"/>
<polygon fill="#999999" stroke="#999999" points="1296.36,-138.67 1286.36,-142.17 1296.36,-145.67 1296.36,-138.67"/>
</g>
<!-- node_9 -->
<g id="node10" class="node">
<title>node_9</title>
<path fill="#fff3e0" stroke="#000000" d="M1517,-102C1517,-102 1610,-102 1610,-102 1616,-102 1622,-108 1622,-114 1622,-114 1622,-150 1622,-150 1622,-156 1616,-162 1610,-162 1610,-162 1517,-162 1517,-162 1511,-162 1505,-156 1505,-150 1505,-150 1505,-114 1505,-114 1505,-108 1511,-102 1517,-102"/>
<text text-anchor="middle" x="1563.5" y="-149.2" font-family="Fira Mono" font-size="11.00">ind: 9</text>
<polyline fill="none" stroke="#000000" points="1505,-142 1622,-142 "/>
<text text-anchor="middle" x="1563.5" y="-129.2" font-family="Fira Mono" font-size="11.00">val: 5</text>
<polyline fill="none" stroke="#000000" points="1505,-122 1622,-122 "/>
<text text-anchor="middle" x="1532.5" y="-109.2" font-family="Fira Mono" font-size="11.00">prev: 8</text>
<polyline fill="none" stroke="#000000" points="1560,-102 1560,-122 "/>
<text text-anchor="middle" x="1591" y="-109.2" font-family="Fira Mono" font-size="11.00">next: 10</text>
</g>
<!-- node_8&#45;&gt;node_9 -->
<!-- node_8&#45;&gt;node_9 -->
<g id="edge20" class="edge">
<title>node_8&#45;&gt;node_9</title>
<path fill="none" stroke="#999999" d="M1461.44,-142.17C1461.44,-142.17 1494.93,-142.17 1494.93,-142.17"/>
<polygon fill="#999999" stroke="#999999" points="1494.93,-145.67 1504.93,-142.17 1494.93,-138.67 1494.93,-145.67"/>
<polygon fill="#999999" stroke="#999999" points="1461.44,-138.67 1451.44,-142.17 1461.44,-145.67 1461.44,-138.67"/>
</g>
<!-- node_10 -->
<g id="node11" class="node">
<title>node_10</title>
<path fill="#fff3e0" stroke="#000000" d="M1688,-102C1688,-102 1781,-102 1781,-102 1787,-102 1793,-108 1793,-114 1793,-114 1793,-150 1793,-150 1793,-156 1787,-162 1781,-162 1781,-162 1688,-162 1688,-162 1682,-162 1676,-156 1676,-150 1676,-150 1676,-114 1676,-114 1676,-108 1682,-102 1688,-102"/>
<text text-anchor="middle" x="1734.5" y="-149.2" font-family="Fira Mono" font-size="11.00">ind: 10</text>
<polyline fill="none" stroke="#000000" points="1676,-142 1793,-142 "/>
<text text-anchor="middle" x="1734.5" y="-129.2" font-family="Fira Mono" font-size="11.00">val: 4</text>
<polyline fill="none" stroke="#000000" points="1676,-122 1793,-122 "/>
<text text-anchor="middle" x="1703.5" y="-109.2" font-family="Fira Mono" font-size="11.00">prev: 9</text>
<polyline fill="none" stroke="#000000" points="1731,-102 1731,-122 "/>
<text text-anchor="middle" x="1762" y="-109.2" font-family="Fira Mono" font-size="11.00">next: 11</text>
</g>
<!-- node_9&#45;&gt;node_10 -->
<!-- node_9&#45;&gt;node_10 -->
<g id="edge21" class="edge">
<title>node_9&#45;&gt;node_10</title>
<path fill="none" stroke="#999999" d="M1632.35,-142.17C1632.35,-142.17 1665.83,-142.17 1665.83,-142.17"/>
<polygon fill="#999999" stroke="#999999" points="1665.83,-145.67 1675.83,-142.17 1665.83,-138.67 1665.83,-145.67"/>
<polygon fill="#999999" stroke="#999999" points="1632.35,-138.67 1622.35,-142.17 1632.35,-145.67 1632.35,-138.67"/>
</g>
<!-- node_11 -->
<g id="node12" class="node">
<title>node_11</title>
<path fill="#f1eafd" stroke="#8e6bd6" d="M1859,-102C1859,-102 1953,-102 1953,-102 1959,-102 1965,-108 1965,-114 1965,-114 1965,-150 1965,-150 1965,-156 1959,-162 1953,-162 1953,-162 1859,-162 1859,-162 1853,-162 1847,-156 1847,-150 1847,-150 1847,-114 1847,-114 1847,-108 1853,-102 1859,-102"/>
<text text-anchor="middle" x="1906" y="-149.2" font-family="Fira Mono" font-size="11.00">ind: 11 (TAIL)</text>
<polyline fill="none" stroke="#8e6bd6" points="1847,-142 1965,-142 "/>
<text text-anchor="middle" x="1906" y="-129.2" font-family="Fira Mono" font-size="11.00">val: 3</text>
<polyline fill="none" stroke="#8e6bd6" points="1847,-122 1965,-122 "/>
<text text-anchor="middle" x="1878" y="-109.2" font-family="Fira Mono" font-size="11.00">prev: 10</text>
<polyline fill="none" stroke="#8e6bd6" points="1909,-102 1909,-122 "/>
<text text-anchor="middle" x="1937" y="-109.2" font-family="Fira Mono" font-size="11.00">next: 0</text>
</g>
<!-- node_10&#45;&gt;node_11 -->
<!-- node_10&#45;&gt;node_11 -->
<g id="edge22" class="edge">
<title>node_10&#45;&gt;node_11</title>
<path fill="none" stroke="#999999" d="M1803.04,-142.17C1803.04,-142.17 1836.85,-142.17 1836.85,-142.17"/>
<polygon fill="#999999" stroke="#999999" points="1836.85,-145.67 1846.85,-142.17 1836.85,-138.67 1836.85,-145.67"/>
<polygon fill="#999999" stroke="#999999" points="1803.04,-138.67 1793.04,-142.17 1803.04,-145.67 1803.04,-138.67"/>
</g>
<!-- node_11&#45;&gt;node_0 -->
<g id="edge23" class="edge">
<title>node_11&#45;&gt;node_0</title>
<path fill="none" stroke="#999999" d="M1906,-172.02C1906,-172.02 1906,-195 1906,-195 1906,-195 107,-195 107,-195 107,-195 107,-172.02 107,-172.02"/>
<polygon fill="#999999" stroke="#999999" points="1909.5,-172.02 1906,-162.02 1902.5,-172.02 1909.5,-172.02"/>
<polygon fill="#999999" stroke="#999999" points="110.5,-172.02 107,-162.02 103.5,-172.02 110.5,-172.02"/>
</g>
<!-- node_bad_p_3&#45;&gt;node_3 -->
<g id="edge24" class="edge">
<title>node_bad_p_3&#45;&gt;node_3</title>
<path fill="none" stroke="#d66d66" stroke-width="2" d="M574,-36.06C574,-36.06 574,-91.59 574,-91.59"/>
<polygon fill="#d66d66" stroke="#d66d66" stroke-width="2" points="570.5,-91.59 574,-101.59 577.5,-91.59 570.5,-91.59"/>
</g>
<!-- node_free -->
<g id="node14" class="node">
<title>node_free</title>
<path fill="#ffecec" stroke="#d88d88" d="M82.5,-264C82.5,-264 35.5,-264 35.5,-264 29.5,-264 23.5,-258 23.5,-252 23.5,-252 23.5,-240 23.5,-240 23.5,-234 29.5,-228 35.5,-228 35.5,-228 82.5,-228 82.5,-228 88.5,-228 94.5,-234 94.5,-240 94.5,-240 94.5,-252 94.5,-252 94.5,-258 88.5,-264 82.5,-264"/>
<text text-anchor="middle" x="59" y="-243.2" font-family="Fira Mono" font-size="11.00">free_head</text>
</g>
<!-- node_ -->
<g id="node15" class="node">
<title>node_</title>
<path fill="lightgrey" stroke="black" d="M212.5,-228C212.5,-228 242.5,-228 242.5,-228 248.5,-228 254.5,-234 254.5,-240 254.5,-240 254.5,-252 254.5,-252 254.5,-258 248.5,-264 242.5,-264 242.5,-264 212.5,-264 212.5,-264 206.5,-264 200.5,-258 200.5,-252 200.5,-252 200.5,-240 200.5,-240 200.5,-234 206.5,-228 212.5,-228"/>
<text text-anchor="middle" x="227.5" y="-243.2" font-family="Fira Mono" font-size="11.00">node_</text>
</g>
<!-- node_free&#45;&gt;node_ -->
<g id="edge26" class="edge">
<title>node_free&#45;&gt;node_</title>
<path fill="none" stroke="black" d="M94.73,-246C94.73,-246 190.4,-246 190.4,-246"/>
<polygon fill="black" stroke="black" points="190.4,-249.5 200.4,-246 190.4,-242.5 190.4,-249.5"/>
</g>
<!-- &#45;1 -->
<g id="node16" class="node">
<title>&#45;1</title>
<polygon fill="none" stroke="#d88d88" stroke-dasharray="5,2" points="32,-330 32,-366 86,-366 86,-330 32,-330"/>
<text text-anchor="middle" x="59" y="-345.2" font-family="Fira Mono" font-size="11.00">&#45;1</text>
</g>
</g>
</svg>
