<?xml version="1.0" encoding="UTF-8" standalone="no"?>
<!DOCTYPE svg PUBLIC "-//W3C//DTD SVG 1.1//EN"
 "http://www.w3.org/Graphics/SVG/1.1/DTD/svg11.dtd">
<!-- Generated by graphviz version 2.43.0 (0)
 -->
<!-- Title: G Pages: 1 -->
<svg width="2000pt" height="476pt"
 viewBox="0.00 0.00 2000.00 475.50" xmlns="http://www.w3.org/2000/svg" xmlns:xlink="http://www.w3.org/1999/xlink">
<g id="graph0" class="graph" transform="scale(1 1) rotate(0) translate(4 471.5)">
<title>G</title>
<polygon fill="white" stroke="transparent" points="-4,4 -4,-471.5 1996,-471.5 1996,4 -4,4"/>
<!-- node_0 -->
<g id="node1" class="node">
<title>node_0</title>
<path fill="#e9f2ff" stroke="#6b8fd6" stroke-width="2" d="M12,-203C12,-203 106,-203 106,-203 112,-203 118,-209 118,-215 118,-215 118,-251 118,-251 118,-257 112,-263 106,-263 106,-263 12,-263 12,-263 6,-263 0,-257 0,-251 0,-251 0,-215 0,-215 0,-209 6,-203 12,-203"/>
<text text-anchor="middle" x="59" y="-250.2" font-family="Fira Mono" font-size="11.00">ind: 0</text>
<polyline fill="none" stroke="#6b8fd6" stroke-width="2" points="0,-243 118,-243 "/>
<text text-anchor="middle" x="59" y="-230.2" font-family="Fira Mono" font-size="11.00">val: 10101</text>
<polyline fill="none" stroke="#6b8fd6" stroke-width="2" points="0,-223 118,-223 "/>
<text text-anchor="middle" x="31" y="-210.2" font-family="Fira Mono" font-size="11.00">prev: 11</text>
<polyline fill="none" stroke="#6b8fd6" stroke-width="2" points="62,-203 62,-223 "/>
<text text-anchor="middle" x="90" y="-210.2" font-family="Fira Mono" font-size="11.00">next: 1</text>
</g>
<!-- node_1 -->
<g id="node2" class="node">
<title>node_1</title>
<path fill="#e9fbf5" stroke="#5aa99b" d="M184,-203C184,-203 271,-203 271,-203 277,-203 283,-209 283,-215 283,-215 283,-251 283,-251 283,-257 277,-263 271,-263 271,-263 184,-263 184,-263 178,-263 172,-257 172,-251 172,-251 172,-215 172,-215 172,-209 178,-203 184,-203"/>
<text text-anchor="middle" x="227.5" y="-250.2" font-family="Fira Mono" font-size="11.00">ind: 1 (HEAD)</text>
<polyline fill="none" stroke="#5aa99b" points="172,-243 283,-243 "/>
<text text-anchor="middle" x="227.5" y="-230.2" font-family="Fira Mono" font-size="11.00">val: 10</text>
<polyline fill="none" stroke="#5aa99b" points="172,-223 283,-223 "/>
<text text-anchor="middle" x="199.5" y="-210.2" font-family="Fira Mono" font-size="11.00">prev: 0</text>
<polyline fill="none" stroke="#5aa99b" points="227,-203 227,-223 "/>
<text text-anchor="middle" x="255" y="-210.2" font-family="Fira Mono" font-size="11.00">next: 2</text>
</g>
<!-- node_0&#45;&gt;node_1 -->
<!-- node_0&#45;&gt;node_1 -->
<g id="edge12" class="edge">
<title>node_0&#45;&gt;node_1</title>
<path fill="none" stroke="#999999" d="M128.41,-243.17C128.41,-243.17 161.73,-243.17 161.73,-243.17"/>
<polygon fill="#999999" stroke="#999999" points="161.73,-246.67 171.73,-243.17 161.73,-239.67 161.73,-246.67"/>
<polygon fill="#999999" stroke="#999999" points="128.41,-239.67 118.41,-243.17 128.41,-246.67 128.41,-239.67"/>
</g>
<!-- node_2 -->
<g id="node3" class="node">
<title>node_2</title>
<path fill="#fff3e0" stroke="#000000" d="M349,-203C349,-203 436,-203 436,-203 442,-203 448,-209 448,-215 448,-215 448,-251 448,-251 448,-257 442,-263 436,-263 436,-263 349,-263 349,-263 343,-263 337,-257 337,-251 337,-251 337,-215 337,-215 337,-209 343,-203 349,-203"/>
<text text-anchor="middle" x="392.5" y="-250.2" font-family="Fira Mono" font-size="11.00">ind: 2</text>
<polyline fill="none" stroke="#000000" points="337,-243 448,-243 "/>
<text text-anchor="middle" x="392.5" y="-230.2" font-family="Fira Mono" font-size="11.00">val: 40</text>
<polyline fill="none" stroke="#000000" points="337,-223 448,-223 "/>
<text text-anchor="middle" x="364.5" y="-210.2" font-family="Fira Mono" font-size="11.00">prev: 1</text>
<polyline fill="none" stroke="#000000" points="392,-203 392,-223 "/>
<text text-anchor="middle" x="420" y="-210.2" font-family="Fira Mono" font-size="11.00">next: 4</text>
</g>
<!-- node_1&#45;&gt;node_2 -->
<!-- node_1&#45;&gt;node_2 -->
<g id="edge13" class="edge">
<title>node_1&#45;&gt;node_2</title>
<path fill="none" stroke="#999999" d="M293.36,-243.17C293.36,-243.17 326.98,-243.17 326.98,-243.17"/>
<polygon fill="#999999" stroke="#999999" points="326.98,-246.67 336.98,-243.17 326.98,-239.67 326.98,-246.67"/>
<polygon fill="#999999" stroke="#999999" points="293.36,-239.67 283.36,-243.17 293.36,-246.67 293.36,-239.67"/>
</g>
<!-- node_3 -->
<g id="node4" class="node">
<title>node_3</title>
<path fill="#fff3e0" stroke="#000000" d="M514,-203C514,-203 641,-203 641,-203 647,-203 653,-209 653,-215 653,-215 653,-251 653,-251 653,-257 647,-263 641,-263 641,-263 514,-263 514,-263 508,-263 502,-257 502,-251 502,-251 502,-215 502,-215 502,-209 508,-203 514,-203"/>
<text text-anchor="middle" x="577.5" y="-250.2" font-family="Fira Mono" font-size="11.00">ind: 3</text>
<polyline fill="none" stroke="#000000" points="502,-243 653,-243 "/>
<text text-anchor="middle" x="577.5" y="-230.2" font-family="Fira Mono" font-size="11.00">val: 2</text>
<polyline fill="none" stroke="#000000" points="502,-223 653,-223 "/>
<text text-anchor="middle" x="536" y="-210.2" font-family="Fira Mono" font-size="11.00">prev: 150</text>
<polyline fill="none" stroke="#000000" points="570,-203 570,-223 "/>
<text text-anchor="middle" x="611.5" y="-210.2" font-family="Fira Mono" font-size="11.00">next: 10000</text>
</g>
<!-- node_2&#45;&gt;node_3 -->
<!-- node_4 -->
<g id="node5" class="node">
<title>node_4</title>
<path fill="#fff3e0" stroke="#000000" d="M719,-203C719,-203 806,-203 806,-203 812,-203 818,-209 818,-215 818,-215 818,-251 818,-251 818,-257 812,-263 806,-263 806,-263 719,-263 719,-263 713,-263 707,-257 707,-251 707,-251 707,-215 707,-215 707,-209 713,-203 719,-203"/>
<text text-anchor="middle" x="762.5" y="-250.2" font-family="Fira Mono" font-size="11.00">ind: 4</text>
<polyline fill="none" stroke="#000000" points="707,-243 818,-243 "/>
<text text-anchor="middle" x="762.5" y="-230.2" font-family="Fira Mono" font-size="11.00">val: 20</text>
<polyline fill="none" stroke="#000000" points="707,-223 818,-223 "/>
<text text-anchor="middle" x="734.5" y="-210.2" font-family="Fira Mono" font-size="11.00">prev: 3</text>
<polyline fill="none" stroke="#000000" points="762,-203 762,-223 "/>
<text text-anchor="middle" x="790" y="-210.2" font-family="Fira Mono" font-size="11.00">next: 5</text>
</g>
<!-- node_2&#45;&gt;node_4 -->
<g id="edge14" class="edge">
<title>node_2&#45;&gt;node_4</title>
<path fill="none" stroke="#6b8fd6" stroke-width="2.2" d="M393,-202.86C393,-186.57 393,-169.75 393,-169.75 393,-169.75 763,-169.75 763,-169.75 763,-169.75 763,-192.86 763,-192.86"/>
<polygon fill="#6b8fd6" stroke="#6b8fd6" stroke-width="2.2" points="759.5,-192.86 763,-202.86 766.5,-192.86 759.5,-192.86"/>
</g>
<!-- node_3&#45;&gt;node_4 -->
<!-- node_3&#45;&gt;node_4 -->
<g id="edge27" class="edge">
<title>node_3&#45;&gt;node_4</title>
<path fill="none" stroke="#6b8fd6" stroke-width="2.2" d="M653.01,-243.17C653.01,-243.17 696.78,-243.17 696.78,-243.17"/>
<polygon fill="#6b8fd6" stroke="#6b8fd6" stroke-width="2.2" points="696.78,-246.67 706.78,-243.17 696.78,-239.67 696.78,-246.67"/>
</g>
<!-- node_bad_n_3 -->
<g id="node13" class="node">
<title>node_bad_n_3</title>
<path fill="#ffecec" stroke="#d66d66" d="M601,-36C601,-36 554,-36 554,-36 548,-36 542,-30 542,-24 542,-24 542,-12 542,-12 542,-6 548,0 554,0 554,0 601,0 601,0 607,0 613,-6 613,-12 613,-12 613,-24 613,-24 613,-30 607,-36 601,-36"/>
<text text-anchor="middle" x="577.5" y="-21.2" font-family="Fira Mono" font-size="11.00">idx 10000</text>
<text text-anchor="middle" x="577.5" y="-9.2" font-family="Fira Mono" font-size="11.00">(N/A)</text>
</g>
<!-- node_3&#45;&gt;node_bad_n_3 -->
<g id="edge15" class="edge">
<title>node_3&#45;&gt;node_bad_n_3</title>
<path fill="none" stroke="#d66d66" stroke-width="2" d="M545,-202.65C545,-202.65 545,-46.2 545,-46.2"/>
<polygon fill="#d66d66" stroke="#d66d66" stroke-width="2" points="548.5,-46.2 545,-36.2 541.5,-46.2 548.5,-46.2"/>
</g>
<!-- node_3&#45;&gt;node_bad_n_3 -->
<!-- node_bad_p_3 -->
<g id="node14" class="node">
<title>node_bad_p_3</title>
<path fill="#ffecec" stroke="#d66d66" d="M594,-137C594,-137 561,-137 561,-137 555,-137 549,-131 549,-125 549,-125 549,-113 549,-113 549,-107 555,-101 561,-101 561,-101 594,-101 594,-101 600,-101 606,-107 606,-113 606,-113 606,-125 606,-125 606,-131 600,-137 594,-137"/>
<text text-anchor="middle" x="577.5" y="-122.2" font-family="Fira Mono" font-size="11.00">idx 150</text>
<text text-anchor="middle" x="577.5" y="-110.2" font-family="Fira Mono" font-size="11.00">(N/A)</text>
</g>
<!-- node_3&#45;&gt;node_bad_p_3 -->
<!-- node_5 -->
<g id="node6" class="node">
<title>node_5</title>
<path fill="#fff3e0" stroke="#000000" d="M884,-203C884,-203 971,-203 971,-203 977,-203 983,-209 983,-215 983,-215 983,-251 983,-251 983,-257 977,-263 971,-263 971,-263 884,-263 884,-263 878,-263 872,-257 872,-251 872,-251 872,-215 872,-215 872,-209 878,-203 884,-203"/>
<text text-anchor="middle" x="927.5" y="-250.2" font-family="Fira Mono" font-size="11.00">ind: 5</text>
<polyline fill="none" stroke="#000000" points="872,-243 983,-243 "/>
<text text-anchor="middle" x="927.5" y="-230.2" font-family="Fira Mono" font-size="11.00">val: 1</text>
<polyline fill="none" stroke="#000000" points="872,-223 983,-223 "/>
<text text-anchor="middle" x="899.5" y="-210.2" font-family="Fira Mono" font-size="11.00">prev: 4</text>
<polyline fill="none" stroke="#000000" points="927,-203 927,-223 "/>
<text text-anchor="middle" x="955" y="-210.2" font-family="Fira Mono" font-size="11.00">next: 6</text>
</g>
<!-- node_4&#45;&gt;node_5 -->
<!-- node_4&#45;&gt;node_5 -->
<g id="edge17" class="edge">
<title>node_4&#45;&gt;node_5</title>
<path fill="none" stroke="#999999" d="M828.36,-243.17C828.36,-243.17 861.98,-243.17 861.98,-243.17"/>
<polygon fill="#999999" stroke="#999999" points="861.98,-246.67 871.98,-243.17 861.98,-239.67 861.98,-246.67"/>
<polygon fill="#999999" stroke="#999999" points="828.36,-239.67 818.36,-243.17 828.36,-246.67 828.36,-239.67"/>
</g>
<!-- node_6 -->
<g id="node7" class="node">
<title>node_6</title>
<path fill="#fff3e0" stroke="#000000" d="M1049,-203C1049,-203 1136,-203 1136,-203 1142,-203 1148,-209 1148,-215 1148,-215 1148,-251 1148,-251 1148,-257 1142,-263 1136,-263 1136,-263 1049,-263 1049,-263 1043,-263 1037,-257 1037,-251 1037,-251 1037,-215 1037,-215 1037,-209 1043,-203 1049,-203"/>
<text text-anchor="middle" x="1092.5" y="-250.2" font-family="Fira Mono" font-size="11.00">ind: 6</text>
<polyline fill="none" stroke="#000000" points="1037,-243 1148,-243 "/>
<text text-anchor="middle" x="1092.5" y="-230.2" font-family="Fira Mono" font-size="11.00">val: 30</text>
<polyline fill="none" stroke="#000000" points="1037,-223 1148,-223 "/>
<text text-anchor="middle" x="1064.5" y="-210.2" font-family="Fira Mono" font-size="11.00">prev: 5</text>
<polyline fill="none" stroke="#000000" points="1092,-203 1092,-223 "/>
<text text-anchor="middle" x="1120" y="-210.2" font-family="Fira Mono" font-size="11.00">next: 7</text>
</g>
<!-- node_5&#45;&gt;node_6 -->
<!-- node_5&#45;&gt;node_6 -->
<g id="edge18" class="edge">
<title>node_5&#45;&gt;node_6</title>
<path fill="none" stroke="#999999" d="M993.36,-243.17C993.36,-243.17 1026.98,-243.17 1026.98,-243.17"/>
<polygon fill="#999999" stroke="#999999" points="1026.98,-246.67 1036.98,-243.17 1026.98,-239.67 1026.98,-246.67"/>
<polygon fill="#999999" stroke="#999999" points="993.36,-239.67 983.36,-243.17 993.36,-246.67 993.36,-239.67"/>
</g>
<!-- node_7 -->
<g id="node8" class="node">
<title>node_7</title>
<path fill="#fff3e0" stroke="#000000" d="M1214,-203C1214,-203 1301,-203 1301,-203 1307,-203 1313,-209 1313,-215 1313,-215 1313,-251 1313,-251 1313,-257 1307,-263 1301,-263 1301,-263 1214,-263 1214,-263 1208,-263 1202,-257 1202,-251 1202,-251 1202,-215 1202,-215 1202,-209 1208,-203 1214,-203"/>
<text text-anchor="middle" x="1257.5" y="-250.2" font-family="Fira Mono" font-size="11.00">ind: 7</text>
<polyline fill="none" stroke="#000000" points="1202,-243 1313,-243 "/>
<text text-anchor="middle" x="1257.5" y="-230.2" font-family="Fira Mono" font-size="11.00">val: 5</text>
<polyline fill="none" stroke="#000000" points="1202,-223 1313,-223 "/>
<text text-anchor="middle" x="1229.5" y="-210.2" font-family="Fira Mono" font-size="11.00">prev: 6</text>
<polyline fill="none" stroke="#000000" points="1257,-203 1257,-223 "/>
<text text-anchor="middle" x="1285" y="-210.2" font-family="Fira Mono" font-size="11.00">next: 8</text>
</g>
<!-- node_6&#45;&gt;node_7 -->
<!-- node_6&#45;&gt;node_7 -->
<g id="edge19" class="edge">
<title>node_6&#45;&gt;node_7</title>
<path fill="none" stroke="#999999" d="M1158.36,-243.17C1158.36,-243.17 1191.98,-243.17 1191.98,-243.17"/>
<polygon fill="#999999" stroke="#999999" points="1191.98,-246.67 1201.98,-243.17 1191.98,-239.67 1191.98,-246.67"/>
<polygon fill="#999999" stroke="#999999" points="1158.36,-239.67 1148.36,-243.17 1158.36,-246.67 1158.36,-239.67"/>
</g>
<!-- node_8 -->
<g id="node9" class="node">
<title>node_8</title>
<path fill="#fff3e0" stroke="#000000" d="M1379,-203C1379,-203 1466,-203 1466,-203 1472,-203 1478,-209 1478,-215 1478,-215 1478,-251 1478,-251 1478,-257 1472,-263 1466,-263 1466,-263 1379,-263 1379,-263 1373,-263 1367,-257 1367,-251 1367,-251 1367,-215 1367,-215 1367,-209 1373,-203 1379,-203"/>
<text text-anchor="middle" x="1422.5" y="-250.2" font-family="Fira Mono" font-size="11.00">ind: 8</text>
<polyline fill="none" stroke="#000000" points="1367,-243 1478,-243 "/>
<text text-anchor="middle" x="1422.5" y="-230.2" font-family="Fira Mono" font-size="11.00">val: 4</text>
<polyline fill="none" stroke="#000000" points="1367,-223 1478,-223 "/>
<text text-anchor="middle" x="1394.5" y="-210.2" font-family="Fira Mono" font-size="11.00">prev: 7</text>
<polyline fill="none" stroke="#000000" points="1422,-203 1422,-223 "/>
<text text-anchor="middle" x="1450" y="-210.2" font-family="Fira Mono" font-size="11.00">next: 9</text>
</g>
<!-- node_7&#45;&gt;node_8 -->
<!-- node_7&#45;&gt;node_8 -->
<g id="edge20" class="edge">
<title>node_7&#45;&gt;node_8</title>
<path fill="none" stroke="#999999" d="M1323.36,-243.17C1323.36,-243.17 1356.98,-243.17 1356.98,-243.17"/>
<polygon fill="#999999" stroke="#999999" points="1356.98,-246.67 1366.98,-243.17 1356.98,-239.67 1356.98,-246.67"/>
<polygon fill="#999999" stroke="#999999" points="1323.36,-239.67 1313.36,-243.17 1323.36,-246.67 1323.36,-239.67"/>
</g>
<!-- node_9 -->
<g id="node10" class="node">
<title>node_9</title>
<path fill="#fff3e0" stroke="#000000" d="M1544,-203C1544,-203 1637,-203 1637,-203 1643,-203 1649,-209 1649,-215 1649,-215 1649,-251 1649,-251 1649,-257 1643,-263 1637,-263 1637,-263 1544,-263 1544,-263 1538,-263 1532,-257 1532,-251 1532,-251 1532,-215 1532,-215 1532,-209 1538,-203 1544,-203"/>
<text text-anchor="middle" x="1590.5" y="-250.2" font-family="Fira Mono" font-size="11.00">ind: 9</text>
<polyline fill="none" stroke="#000000" points="1532,-243 1649,-243 "/>
<text text-anchor="middle" x="1590.5" y="-230.2" font-family="Fira Mono" font-size="11.00">val: 5</text>
<polyline fill="none" stroke="#000000" points="1532,-223 1649,-223 "/>
<text text-anchor="middle" x="1559.5" y="-210.2" font-family="Fira Mono" font-size="11.00">prev: 8</text>
<polyline fill="none" stroke="#000000" points="1587,-203 1587,-223 "/>
<text text-anchor="middle" x="1618" y="-210.2" font-family="Fira Mono" font-size="11.00">next: 10</text>
</g>
<!-- node_8&#45;&gt;node_9 -->
<!-- node_8&#45;&gt;node_9 -->
<g id="edge21" class="edge">
<title>node_8&#45;&gt;node_9</title>
<path fill="none" stroke="#999999" d="M1488.44,-243.17C1488.44,-243.17 1521.93,-243.17 1521.93,-243.17"/>
<polygon fill="#999999" stroke="#999999" points="1521.93,-246.67 1531.93,-243.17 1521.93,-239.67 1521.93,-246.67"/>
<polygon fill="#999999" stroke="#999999" points="1488.44,-239.67 1478.44,-243.17 1488.44,-246.67 1488.44,-239.67"/>
</g>
<!-- node_10 -->
<g id="node11" class="node">
<title>node_10</title>
<path fill="#fff3e0" stroke="#000000" d="M1715,-203C1715,-203 1808,-203 1808,-203 1814,-203 1820,-209 1820,-215 1820,-215 1820,-251 1820,-251 1820,-257 1814,-263 1808,-263 1808,-263 1715,-263 1715,-263 1709,-263 1703,-257 1703,-251 1703,-251 1703,-215 1703,-215 1703,-209 1709,-203 1715,-203"/>
<text text-anchor="middle" x="1761.5" y="-250.2" font-family="Fira Mono" font-size="11.00">ind: 10</text>
<polyline fill="none" stroke="#000000" points="1703,-243 1820,-243 "/>
<text text-anchor="middle" x="1761.5" y="-230.2" font-family="Fira Mono" font-size="11.00">val: 4</text>
<polyline fill="none" stroke="#000000" points="1703,-223 1820,-223 "/>
<text text-anchor="middle" x="1730.5" y="-210.2" font-family="Fira Mono" font-size="11.00">prev: 9</text>
<polyline fill="none" stroke="#000000" points="1758,-203 1758,-223 "/>
<text text-anchor="middle" x="1789" y="-210.2" font-family="Fira Mono" font-size="11.00">next: 11</text>
</g>
<!-- node_9&#45;&gt;node_10 -->
<!-- node_9&#45;&gt;node_10 -->
<g id="edge22" class="edge">
<title>node_9&#45;&gt;node_10</title>
<path fill="none" stroke="#999999" d="M1659.35,-243.17C1659.35,-243.17 1692.83,-243.17 1692.83,-243.17"/>
<polygon fill="#999999" stroke="#999999" points="1692.83,-246.67 1702.83,-243.17 1692.83,-239.67 1692.83,-246.67"/>
<polygon fill="#999999" stroke="#999999" points="1659.35,-239.67 1649.35,-243.17 1659.35,-246.67 1659.35,-239.67"/>
</g>
<!-- node_11 -->
<g id="node12" class="node">
<title>node_11</title>
<path fill="#f1eafd" stroke="#8e6bd6" d="M1886,-203C1886,-203 1980,-203 1980,-203 1986,-203 1992,-209 1992,-215 1992,-215 1992,-251 1992,-251 1992,-257 1986,-263 1980,-263 1980,-263 1886,-263 1886,-263 1880,-263 1874,-257 1874,-251 1874,-251 1874,-215 1874,-215 1874,-209 1880,-203 1886,-203"/>
<text text-anchor="middle" x="1933" y="-250.2" font-family="Fira Mono" font-size="11.00">ind: 11 (TAIL)</text>
<polyline fill="none" stroke="#8e6bd6" points="1874,-243 1992,-243 "/>
<text text-anchor="middle" x="1933" y="-230.2" font-family="Fira Mono" font-size="11.00">val: 3</text>
<polyline fill="none" stroke="#8e6bd6" points="1874,-223 1992,-223 "/>
<text text-anchor="middle" x="1905" y="-210.2" font-family="Fira Mono" font-size="11.00">prev: 10</text>
<polyline fill="none" stroke="#8e6bd6" points="1936,-203 1936,-223 "/>
<text text-anchor="middle" x="1964" y="-210.2" font-family="Fira Mono" font-size="11.00">next: 0</text>
</g>
<!-- node_10&#45;&gt;node_11 -->
<!-- node_10&#45;&gt;node_11 -->
<g id="edge23" class="edge">
<title>node_10&#45;&gt;node_11</title>
<path fill="none" stroke="#999999" d="M1830.04,-243.17C1830.04,-243.17 1863.85,-243.17 1863.85,-243.17"/>
<polygon fill="#999999" stroke="#999999" points="1863.85,-246.67 1873.85,-243.17 1863.85,-239.67 1863.85,-246.67"/>
<polygon fill="#999999" stroke="#999999" points="1830.04,-239.67 1820.04,-243.17 1830.04,-246.67 1830.04,-239.67"/>
</g>
<!-- node_11&#45;&gt;node_0 -->
<g id="edge24" class="edge">
<title>node_11&#45;&gt;node_0</title>
<path fill="none" stroke="#999999" d="M1933,-273.02C1933,-273.02 1933,-296 1933,-296 1933,-296 107,-296 107,-296 107,-296 107,-273.02 107,-273.02"/>
<polygon fill="#999999" stroke="#999999" points="1936.5,-273.02 1933,-263.02 1929.5,-273.02 1936.5,-273.02"/>
<polygon fill="#999999" stroke="#999999" points="110.5,-273.02 107,-263.02 103.5,-273.02 110.5,-273.02"/>
</g>
<!-- node_bad_p_3&#45;&gt;node_3 -->
<g id="edge25" class="edge">
<title>node_bad_p_3&#45;&gt;node_3</title>
<path fill="none" stroke="#d66d66" stroke-width="2" d="M587,-137.06C587,-137.06 587,-192.59 587,-192.59"/>
<polygon fill="#d66d66" stroke="#d66d66" stroke-width="2" points="583.5,-192.59 587,-202.59 590.5,-192.59 583.5,-192.59"/>
</g>
<!-- node_free -->
<g id="node15" class="node">
<title>node_free</title>
<path fill="#ffecec" stroke="#d88d88" d="M82.5,-365C82.5,-365 35.5,-365 35.5,-365 29.5,-365 23.5,-359 23.5,-353 23.5,-353 23.5,-341 23.5,-341 23.5,-335 29.5,-329 35.5,-329 35.5,-329 82.5,-329 82.5,-329 88.5,-329 94.5,-335 94.5,-341 94.5,-341 94.5,-353 94.5,-353 94.5,-359 88.5,-365 82.5,-365"/>
<text text-anchor="middle" x="59" y="-344.2" font-family="Fira Mono" font-size="11.00">free_head</text>
</g>
<!-- node_ -->
<g id="node16" class="node">
<title>node_</title>
<path fill="lightgrey" stroke="black" d="M212.5,-329C212.5,-329 242.5,-329 242.5,-329 248.5,-329 254.5,-335 254.5,-341 254.5,-341 254.5,-353 254.5,-353 254.5,-359 248.5,-365 242.5,-365 242.5,-365 212.5,-365 212.5,-365 206.5,-365 200.5,-359 200.5,-353 200.5,-353 200.5,-341 200.5,-341 200.5,-335 206.5,-329 212.5,-329"/>
<text text-anchor="middle" x="227.5" y="-344.2" font-family="Fira Mono" font-size="11.00">node_</text>
</g>
<!-- node_free&#45;&gt;node_ -->
<g id="edge28" class="edge">
<title>node_free&#45;&gt;node_</title>
<path fill="none" stroke="black" d="M94.73,-347C94.73,-347 190.4,-347 190.4,-347"/>
<polygon fill="black" stroke="black" points="190.4,-350.5 200.4,-347 190.4,-343.5 190.4,-350.5"/>
</g>
<!-- &#45;1 -->
<g id="node17" class="node">
<title>&#45;1</title>
<polygon fill="none" stroke="#d88d88" stroke-dasharray="5,2" points="32,-431 32,-467 86,-467 86,-431 32,-431"/>
<text text-anchor="middle" x="59" y="-446.2" font-family="Fira Mono" font-size="11.00">&#45;1</text>
</g>
</g>
</svg>
